<?xml version="1.0" encoding="utf-8" standalone="no"?>
<!DOCTYPE svg PUBLIC "-//W3C//DTD SVG 1.1//EN"
  "http://www.w3.org/Graphics/SVG/1.1/DTD/svg11.dtd">
<svg xmlns:xlink="http://www.w3.org/1999/xlink" width="576pt" height="576pt" viewBox="0 0 576 576" xmlns="http://www.w3.org/2000/svg" version="1.1">
 <metadata>
  <rdf:RDF xmlns:dc="http://purl.org/dc/elements/1.1/" xmlns:cc="http://creativecommons.org/ns#" xmlns:rdf="http://www.w3.org/1999/02/22-rdf-syntax-ns#">
   <cc:Work>
    <dc:type rdf:resource="http://purl.org/dc/dcmitype/StillImage"/>
    <dc:date>2022-12-11T01:07:15.348969</dc:date>
    <dc:format>image/svg+xml</dc:format>
    <dc:creator>
     <cc:Agent>
      <dc:title>Matplotlib v3.5.1, https://matplotlib.org/</dc:title>
     </cc:Agent>
    </dc:creator>
   </cc:Work>
  </rdf:RDF>
 </metadata>
 <defs>
  <style type="text/css">*{stroke-linejoin: round; stroke-linecap: butt}</style>
 </defs>
 <g id="figure_1">
  <g id="patch_1">
   <path d="M 0 576 
L 576 576 
L 576 0 
L 0 0 
z
" style="fill: #ffffff"/>
  </g>
  <g id="axes_1">
   <g id="patch_2">
    <path d="M 72 512.64 
L 518.4 512.64 
L 518.4 69.12 
L 72 69.12 
z
" style="fill: #ffffff"/>
   </g>
   <g id="matplotlib.axis_1">
    <g id="xtick_1">
     <g id="line2d_1">
      <path d="M 92.290909 512.64 
L 92.290909 69.12 
" clip-path="url(#p8d36a6baed)" style="fill: none; stroke: #b0b0b0; stroke-width: 0.8; stroke-linecap: square"/>
     </g>
     <g id="line2d_2">
      <defs>
       <path id="md087b7b1f0" d="M 0 0 
L 0 3.5 
" style="stroke: #000000; stroke-width: 0.8"/>
      </defs>
      <g>
       <use xlink:href="#md087b7b1f0" x="92.290909" y="512.64" style="stroke: #000000; stroke-width: 0.8"/>
      </g>
     </g>
     <g id="text_1">
      <!-- −1.00 -->
      <g transform="translate(76.968253 527.238438)scale(0.1 -0.1)">
       <defs>
        <path id="DejaVuSans-2212" d="M 678 2272 
L 4684 2272 
L 4684 1741 
L 678 1741 
L 678 2272 
z
" transform="scale(0.015625)"/>
        <path id="DejaVuSans-31" d="M 794 531 
L 1825 531 
L 1825 4091 
L 703 3866 
L 703 4441 
L 1819 4666 
L 2450 4666 
L 2450 531 
L 3481 531 
L 3481 0 
L 794 0 
L 794 531 
z
" transform="scale(0.015625)"/>
        <path id="DejaVuSans-2e" d="M 684 794 
L 1344 794 
L 1344 0 
L 684 0 
L 684 794 
z
" transform="scale(0.015625)"/>
        <path id="DejaVuSans-30" d="M 2034 4250 
Q 1547 4250 1301 3770 
Q 1056 3291 1056 2328 
Q 1056 1369 1301 889 
Q 1547 409 2034 409 
Q 2525 409 2770 889 
Q 3016 1369 3016 2328 
Q 3016 3291 2770 3770 
Q 2525 4250 2034 4250 
z
M 2034 4750 
Q 2819 4750 3233 4129 
Q 3647 3509 3647 2328 
Q 3647 1150 3233 529 
Q 2819 -91 2034 -91 
Q 1250 -91 836 529 
Q 422 1150 422 2328 
Q 422 3509 836 4129 
Q 1250 4750 2034 4750 
z
" transform="scale(0.015625)"/>
       </defs>
       <use xlink:href="#DejaVuSans-2212"/>
       <use xlink:href="#DejaVuSans-31" x="83.789062"/>
       <use xlink:href="#DejaVuSans-2e" x="147.412109"/>
       <use xlink:href="#DejaVuSans-30" x="179.199219"/>
       <use xlink:href="#DejaVuSans-30" x="242.822266"/>
      </g>
     </g>
    </g>
    <g id="xtick_2">
     <g id="line2d_3">
      <path d="M 143.018182 512.64 
L 143.018182 69.12 
" clip-path="url(#p8d36a6baed)" style="fill: none; stroke: #b0b0b0; stroke-width: 0.8; stroke-linecap: square"/>
     </g>
     <g id="line2d_4">
      <g>
       <use xlink:href="#md087b7b1f0" x="143.018182" y="512.64" style="stroke: #000000; stroke-width: 0.8"/>
      </g>
     </g>
     <g id="text_2">
      <!-- −0.75 -->
      <g transform="translate(127.695526 527.238438)scale(0.1 -0.1)">
       <defs>
        <path id="DejaVuSans-37" d="M 525 4666 
L 3525 4666 
L 3525 4397 
L 1831 0 
L 1172 0 
L 2766 4134 
L 525 4134 
L 525 4666 
z
" transform="scale(0.015625)"/>
        <path id="DejaVuSans-35" d="M 691 4666 
L 3169 4666 
L 3169 4134 
L 1269 4134 
L 1269 2991 
Q 1406 3038 1543 3061 
Q 1681 3084 1819 3084 
Q 2600 3084 3056 2656 
Q 3513 2228 3513 1497 
Q 3513 744 3044 326 
Q 2575 -91 1722 -91 
Q 1428 -91 1123 -41 
Q 819 9 494 109 
L 494 744 
Q 775 591 1075 516 
Q 1375 441 1709 441 
Q 2250 441 2565 725 
Q 2881 1009 2881 1497 
Q 2881 1984 2565 2268 
Q 2250 2553 1709 2553 
Q 1456 2553 1204 2497 
Q 953 2441 691 2322 
L 691 4666 
z
" transform="scale(0.015625)"/>
       </defs>
       <use xlink:href="#DejaVuSans-2212"/>
       <use xlink:href="#DejaVuSans-30" x="83.789062"/>
       <use xlink:href="#DejaVuSans-2e" x="147.412109"/>
       <use xlink:href="#DejaVuSans-37" x="179.199219"/>
       <use xlink:href="#DejaVuSans-35" x="242.822266"/>
      </g>
     </g>
    </g>
    <g id="xtick_3">
     <g id="line2d_5">
      <path d="M 193.745455 512.64 
L 193.745455 69.12 
" clip-path="url(#p8d36a6baed)" style="fill: none; stroke: #b0b0b0; stroke-width: 0.8; stroke-linecap: square"/>
     </g>
     <g id="line2d_6">
      <g>
       <use xlink:href="#md087b7b1f0" x="193.745455" y="512.64" style="stroke: #000000; stroke-width: 0.8"/>
      </g>
     </g>
     <g id="text_3">
      <!-- −0.50 -->
      <g transform="translate(178.422798 527.238438)scale(0.1 -0.1)">
       <use xlink:href="#DejaVuSans-2212"/>
       <use xlink:href="#DejaVuSans-30" x="83.789062"/>
       <use xlink:href="#DejaVuSans-2e" x="147.412109"/>
       <use xlink:href="#DejaVuSans-35" x="179.199219"/>
       <use xlink:href="#DejaVuSans-30" x="242.822266"/>
      </g>
     </g>
    </g>
    <g id="xtick_4">
     <g id="line2d_7">
      <path d="M 244.472727 512.64 
L 244.472727 69.12 
" clip-path="url(#p8d36a6baed)" style="fill: none; stroke: #b0b0b0; stroke-width: 0.8; stroke-linecap: square"/>
     </g>
     <g id="line2d_8">
      <g>
       <use xlink:href="#md087b7b1f0" x="244.472727" y="512.64" style="stroke: #000000; stroke-width: 0.8"/>
      </g>
     </g>
     <g id="text_4">
      <!-- −0.25 -->
      <g transform="translate(229.150071 527.238438)scale(0.1 -0.1)">
       <defs>
        <path id="DejaVuSans-32" d="M 1228 531 
L 3431 531 
L 3431 0 
L 469 0 
L 469 531 
Q 828 903 1448 1529 
Q 2069 2156 2228 2338 
Q 2531 2678 2651 2914 
Q 2772 3150 2772 3378 
Q 2772 3750 2511 3984 
Q 2250 4219 1831 4219 
Q 1534 4219 1204 4116 
Q 875 4013 500 3803 
L 500 4441 
Q 881 4594 1212 4672 
Q 1544 4750 1819 4750 
Q 2544 4750 2975 4387 
Q 3406 4025 3406 3419 
Q 3406 3131 3298 2873 
Q 3191 2616 2906 2266 
Q 2828 2175 2409 1742 
Q 1991 1309 1228 531 
z
" transform="scale(0.015625)"/>
       </defs>
       <use xlink:href="#DejaVuSans-2212"/>
       <use xlink:href="#DejaVuSans-30" x="83.789062"/>
       <use xlink:href="#DejaVuSans-2e" x="147.412109"/>
       <use xlink:href="#DejaVuSans-32" x="179.199219"/>
       <use xlink:href="#DejaVuSans-35" x="242.822266"/>
      </g>
     </g>
    </g>
    <g id="xtick_5">
     <g id="line2d_9">
      <path d="M 295.2 512.64 
L 295.2 69.12 
" clip-path="url(#p8d36a6baed)" style="fill: none; stroke: #b0b0b0; stroke-width: 0.8; stroke-linecap: square"/>
     </g>
     <g id="line2d_10">
      <g>
       <use xlink:href="#md087b7b1f0" x="295.2" y="512.64" style="stroke: #000000; stroke-width: 0.8"/>
      </g>
     </g>
     <g id="text_5">
      <!-- 0.00 -->
      <g transform="translate(284.067187 527.238438)scale(0.1 -0.1)">
       <use xlink:href="#DejaVuSans-30"/>
       <use xlink:href="#DejaVuSans-2e" x="63.623047"/>
       <use xlink:href="#DejaVuSans-30" x="95.410156"/>
       <use xlink:href="#DejaVuSans-30" x="159.033203"/>
      </g>
     </g>
    </g>
    <g id="xtick_6">
     <g id="line2d_11">
      <path d="M 345.927273 512.64 
L 345.927273 69.12 
" clip-path="url(#p8d36a6baed)" style="fill: none; stroke: #b0b0b0; stroke-width: 0.8; stroke-linecap: square"/>
     </g>
     <g id="line2d_12">
      <g>
       <use xlink:href="#md087b7b1f0" x="345.927273" y="512.64" style="stroke: #000000; stroke-width: 0.8"/>
      </g>
     </g>
     <g id="text_6">
      <!-- 0.25 -->
      <g transform="translate(334.79446 527.238438)scale(0.1 -0.1)">
       <use xlink:href="#DejaVuSans-30"/>
       <use xlink:href="#DejaVuSans-2e" x="63.623047"/>
       <use xlink:href="#DejaVuSans-32" x="95.410156"/>
       <use xlink:href="#DejaVuSans-35" x="159.033203"/>
      </g>
     </g>
    </g>
    <g id="xtick_7">
     <g id="line2d_13">
      <path d="M 396.654545 512.64 
L 396.654545 69.12 
" clip-path="url(#p8d36a6baed)" style="fill: none; stroke: #b0b0b0; stroke-width: 0.8; stroke-linecap: square"/>
     </g>
     <g id="line2d_14">
      <g>
       <use xlink:href="#md087b7b1f0" x="396.654545" y="512.64" style="stroke: #000000; stroke-width: 0.8"/>
      </g>
     </g>
     <g id="text_7">
      <!-- 0.50 -->
      <g transform="translate(385.521733 527.238438)scale(0.1 -0.1)">
       <use xlink:href="#DejaVuSans-30"/>
       <use xlink:href="#DejaVuSans-2e" x="63.623047"/>
       <use xlink:href="#DejaVuSans-35" x="95.410156"/>
       <use xlink:href="#DejaVuSans-30" x="159.033203"/>
      </g>
     </g>
    </g>
    <g id="xtick_8">
     <g id="line2d_15">
      <path d="M 447.381818 512.64 
L 447.381818 69.12 
" clip-path="url(#p8d36a6baed)" style="fill: none; stroke: #b0b0b0; stroke-width: 0.8; stroke-linecap: square"/>
     </g>
     <g id="line2d_16">
      <g>
       <use xlink:href="#md087b7b1f0" x="447.381818" y="512.64" style="stroke: #000000; stroke-width: 0.8"/>
      </g>
     </g>
     <g id="text_8">
      <!-- 0.75 -->
      <g transform="translate(436.249006 527.238438)scale(0.1 -0.1)">
       <use xlink:href="#DejaVuSans-30"/>
       <use xlink:href="#DejaVuSans-2e" x="63.623047"/>
       <use xlink:href="#DejaVuSans-37" x="95.410156"/>
       <use xlink:href="#DejaVuSans-35" x="159.033203"/>
      </g>
     </g>
    </g>
    <g id="xtick_9">
     <g id="line2d_17">
      <path d="M 498.109091 512.64 
L 498.109091 69.12 
" clip-path="url(#p8d36a6baed)" style="fill: none; stroke: #b0b0b0; stroke-width: 0.8; stroke-linecap: square"/>
     </g>
     <g id="line2d_18">
      <g>
       <use xlink:href="#md087b7b1f0" x="498.109091" y="512.64" style="stroke: #000000; stroke-width: 0.8"/>
      </g>
     </g>
     <g id="text_9">
      <!-- 1.00 -->
      <g transform="translate(486.976278 527.238438)scale(0.1 -0.1)">
       <use xlink:href="#DejaVuSans-31"/>
       <use xlink:href="#DejaVuSans-2e" x="63.623047"/>
       <use xlink:href="#DejaVuSans-30" x="95.410156"/>
       <use xlink:href="#DejaVuSans-30" x="159.033203"/>
      </g>
     </g>
    </g>
    <g id="text_10">
     <!-- x -->
     <g transform="translate(292.240625 540.916563)scale(0.1 -0.1)">
      <defs>
       <path id="DejaVuSans-78" d="M 3513 3500 
L 2247 1797 
L 3578 0 
L 2900 0 
L 1881 1375 
L 863 0 
L 184 0 
L 1544 1831 
L 300 3500 
L 978 3500 
L 1906 2253 
L 2834 3500 
L 3513 3500 
z
" transform="scale(0.015625)"/>
      </defs>
      <use xlink:href="#DejaVuSans-78"/>
     </g>
    </g>
   </g>
   <g id="matplotlib.axis_2">
    <g id="ytick_1">
     <g id="line2d_19">
      <path d="M 72 449.442962 
L 518.4 449.442962 
" clip-path="url(#p8d36a6baed)" style="fill: none; stroke: #b0b0b0; stroke-width: 0.8; stroke-linecap: square"/>
     </g>
     <g id="line2d_20">
      <defs>
       <path id="m0ca79e610b" d="M 0 0 
L -3.5 0 
" style="stroke: #000000; stroke-width: 0.8"/>
      </defs>
      <g>
       <use xlink:href="#m0ca79e610b" x="72" y="449.442962" style="stroke: #000000; stroke-width: 0.8"/>
      </g>
     </g>
     <g id="text_11">
      <!-- −3 -->
      <g transform="translate(50.257812 453.242181)scale(0.1 -0.1)">
       <defs>
        <path id="DejaVuSans-33" d="M 2597 2516 
Q 3050 2419 3304 2112 
Q 3559 1806 3559 1356 
Q 3559 666 3084 287 
Q 2609 -91 1734 -91 
Q 1441 -91 1130 -33 
Q 819 25 488 141 
L 488 750 
Q 750 597 1062 519 
Q 1375 441 1716 441 
Q 2309 441 2620 675 
Q 2931 909 2931 1356 
Q 2931 1769 2642 2001 
Q 2353 2234 1838 2234 
L 1294 2234 
L 1294 2753 
L 1863 2753 
Q 2328 2753 2575 2939 
Q 2822 3125 2822 3475 
Q 2822 3834 2567 4026 
Q 2313 4219 1838 4219 
Q 1578 4219 1281 4162 
Q 984 4106 628 3988 
L 628 4550 
Q 988 4650 1302 4700 
Q 1616 4750 1894 4750 
Q 2613 4750 3031 4423 
Q 3450 4097 3450 3541 
Q 3450 3153 3228 2886 
Q 3006 2619 2597 2516 
z
" transform="scale(0.015625)"/>
       </defs>
       <use xlink:href="#DejaVuSans-2212"/>
       <use xlink:href="#DejaVuSans-33" x="83.789062"/>
      </g>
     </g>
    </g>
    <g id="ytick_2">
     <g id="line2d_21">
      <path d="M 72 379.38089 
L 518.4 379.38089 
" clip-path="url(#p8d36a6baed)" style="fill: none; stroke: #b0b0b0; stroke-width: 0.8; stroke-linecap: square"/>
     </g>
     <g id="line2d_22">
      <g>
       <use xlink:href="#m0ca79e610b" x="72" y="379.38089" style="stroke: #000000; stroke-width: 0.8"/>
      </g>
     </g>
     <g id="text_12">
      <!-- −2 -->
      <g transform="translate(50.257812 383.180109)scale(0.1 -0.1)">
       <use xlink:href="#DejaVuSans-2212"/>
       <use xlink:href="#DejaVuSans-32" x="83.789062"/>
      </g>
     </g>
    </g>
    <g id="ytick_3">
     <g id="line2d_23">
      <path d="M 72 309.318818 
L 518.4 309.318818 
" clip-path="url(#p8d36a6baed)" style="fill: none; stroke: #b0b0b0; stroke-width: 0.8; stroke-linecap: square"/>
     </g>
     <g id="line2d_24">
      <g>
       <use xlink:href="#m0ca79e610b" x="72" y="309.318818" style="stroke: #000000; stroke-width: 0.8"/>
      </g>
     </g>
     <g id="text_13">
      <!-- −1 -->
      <g transform="translate(50.257812 313.118037)scale(0.1 -0.1)">
       <use xlink:href="#DejaVuSans-2212"/>
       <use xlink:href="#DejaVuSans-31" x="83.789062"/>
      </g>
     </g>
    </g>
    <g id="ytick_4">
     <g id="line2d_25">
      <path d="M 72 239.256746 
L 518.4 239.256746 
" clip-path="url(#p8d36a6baed)" style="fill: none; stroke: #b0b0b0; stroke-width: 0.8; stroke-linecap: square"/>
     </g>
     <g id="line2d_26">
      <g>
       <use xlink:href="#m0ca79e610b" x="72" y="239.256746" style="stroke: #000000; stroke-width: 0.8"/>
      </g>
     </g>
     <g id="text_14">
      <!-- 0 -->
      <g transform="translate(58.6375 243.055965)scale(0.1 -0.1)">
       <use xlink:href="#DejaVuSans-30"/>
      </g>
     </g>
    </g>
    <g id="ytick_5">
     <g id="line2d_27">
      <path d="M 72 169.194674 
L 518.4 169.194674 
" clip-path="url(#p8d36a6baed)" style="fill: none; stroke: #b0b0b0; stroke-width: 0.8; stroke-linecap: square"/>
     </g>
     <g id="line2d_28">
      <g>
       <use xlink:href="#m0ca79e610b" x="72" y="169.194674" style="stroke: #000000; stroke-width: 0.8"/>
      </g>
     </g>
     <g id="text_15">
      <!-- 1 -->
      <g transform="translate(58.6375 172.993893)scale(0.1 -0.1)">
       <use xlink:href="#DejaVuSans-31"/>
      </g>
     </g>
    </g>
    <g id="ytick_6">
     <g id="line2d_29">
      <path d="M 72 99.132602 
L 518.4 99.132602 
" clip-path="url(#p8d36a6baed)" style="fill: none; stroke: #b0b0b0; stroke-width: 0.8; stroke-linecap: square"/>
     </g>
     <g id="line2d_30">
      <g>
       <use xlink:href="#m0ca79e610b" x="72" y="99.132602" style="stroke: #000000; stroke-width: 0.8"/>
      </g>
     </g>
     <g id="text_16">
      <!-- 2 -->
      <g transform="translate(58.6375 102.931821)scale(0.1 -0.1)">
       <use xlink:href="#DejaVuSans-32"/>
      </g>
     </g>
    </g>
    <g id="text_17">
     <!-- y -->
     <g transform="translate(44.178125 293.839375)rotate(-90)scale(0.1 -0.1)">
      <defs>
       <path id="DejaVuSans-79" d="M 2059 -325 
Q 1816 -950 1584 -1140 
Q 1353 -1331 966 -1331 
L 506 -1331 
L 506 -850 
L 844 -850 
Q 1081 -850 1212 -737 
Q 1344 -625 1503 -206 
L 1606 56 
L 191 3500 
L 800 3500 
L 1894 763 
L 2988 3500 
L 3597 3500 
L 2059 -325 
z
" transform="scale(0.015625)"/>
      </defs>
      <use xlink:href="#DejaVuSans-79"/>
     </g>
    </g>
   </g>
   <g id="line2d_31">
    <path d="M 92.290909 236.562051 
L 114.610909 235.888782 
L 132.872727 235.135448 
L 149.105455 234.237973 
L 161.28 233.364225 
L 171.425455 232.456254 
L 181.570909 231.331172 
L 189.687273 230.228128 
L 197.803636 228.892534 
L 203.890909 227.700116 
L 209.978182 226.306271 
L 216.065455 224.668079 
L 222.152727 222.732672 
L 226.210909 221.245931 
L 230.269091 219.576389 
L 234.327273 217.699185 
L 238.385455 215.587127 
L 242.443636 213.211366 
L 246.501818 210.542782 
L 250.56 207.554451 
L 254.618182 204.22571 
L 258.676364 200.548419 
L 262.734545 196.53597 
L 266.792727 192.235221 
L 278.967273 178.858408 
L 280.996364 176.840646 
L 283.025455 174.979616 
L 285.054545 173.315972 
L 287.083636 171.889369 
L 289.112727 170.736382 
L 291.141818 169.888358 
L 293.170909 169.369392 
L 295.2 169.194674 
L 297.229091 169.369392 
L 299.258182 169.888358 
L 301.287273 170.736382 
L 303.316364 171.889369 
L 305.345455 173.315972 
L 307.374545 174.979616 
L 309.403636 176.840646 
L 313.461818 180.993069 
L 321.578182 190.003971 
L 327.665455 196.53597 
L 331.723636 200.548419 
L 335.781818 204.22571 
L 339.84 207.554451 
L 343.898182 210.542782 
L 347.956364 213.211366 
L 352.014545 215.587127 
L 356.072727 217.699185 
L 360.130909 219.576389 
L 364.189091 221.245931 
L 368.247273 222.732672 
L 374.334545 224.668079 
L 380.421818 226.306271 
L 386.509091 227.700116 
L 392.596364 228.892534 
L 400.712727 230.228128 
L 408.829091 231.331172 
L 418.974545 232.456254 
L 429.12 233.364225 
L 441.294545 234.237973 
L 455.498182 235.036775 
L 473.76 235.815583 
L 494.050909 236.455384 
L 498.109091 236.562051 
L 498.109091 236.562051 
" clip-path="url(#p8d36a6baed)" style="fill: none; stroke: #ff0000; stroke-width: 2.5; stroke-linecap: square"/>
   </g>
   <g id="line2d_32">
    <path d="M 92.290909 236.562051 
L 100.407273 231.280449 
L 108.523636 226.214422 
L 116.64 221.363971 
L 124.756364 216.729095 
L 132.872727 212.309795 
L 140.989091 208.106071 
L 149.105455 204.117922 
L 157.221818 200.345349 
L 165.338182 196.788352 
L 173.454545 193.44693 
L 181.570909 190.321083 
L 189.687273 187.410813 
L 197.803636 184.716118 
L 205.92 182.236998 
L 214.036364 179.973454 
L 222.152727 177.925486 
L 230.269091 176.093093 
L 238.385455 174.476276 
L 246.501818 173.075035 
L 254.618182 171.889369 
L 262.734545 170.919279 
L 270.850909 170.164764 
L 278.967273 169.625825 
L 287.083636 169.302462 
L 295.2 169.194674 
L 303.316364 169.302462 
L 311.432727 169.625825 
L 319.549091 170.164764 
L 327.665455 170.919279 
L 335.781818 171.889369 
L 343.898182 173.075035 
L 352.014545 174.476276 
L 360.130909 176.093093 
L 368.247273 177.925486 
L 376.363636 179.973454 
L 384.48 182.236998 
L 392.596364 184.716118 
L 400.712727 187.410813 
L 408.829091 190.321083 
L 416.945455 193.44693 
L 425.061818 196.788352 
L 433.178182 200.345349 
L 441.294545 204.117922 
L 449.410909 208.106071 
L 457.527273 212.309795 
L 465.643636 216.729095 
L 473.76 221.363971 
L 481.876364 226.214422 
L 489.992727 231.280449 
L 498.109091 236.562051 
L 498.109091 236.562051 
" clip-path="url(#p8d36a6baed)" style="fill: none; stroke: #1f77b4; stroke-width: 1.5; stroke-linecap: square"/>
   </g>
   <g id="line2d_33">
    <path d="M 92.290909 236.562051 
L 96.349091 238.297421 
L 100.407273 239.741576 
L 104.465455 240.910197 
L 108.523636 241.818647 
L 112.581818 242.481959 
L 116.64 242.914848 
L 120.698182 243.131704 
L 124.756364 243.146592 
L 128.814545 242.973256 
L 132.872727 242.625115 
L 136.930909 242.115265 
L 143.018182 241.075139 
L 149.105455 239.741576 
L 155.192727 238.154682 
L 161.28 236.352929 
L 169.396364 233.679792 
L 177.512727 230.772755 
L 189.687273 226.141988 
L 216.065455 216.005703 
L 226.210909 212.402479 
L 234.327273 209.741414 
L 242.443636 207.32244 
L 250.56 205.181774 
L 256.647273 203.777783 
L 262.734545 202.559095 
L 268.821818 201.535258 
L 274.909091 200.714185 
L 280.996364 200.102152 
L 287.083636 199.703796 
L 293.170909 199.522119 
L 299.258182 199.558485 
L 305.345455 199.81262 
L 311.432727 200.282617 
L 317.52 200.964926 
L 323.607273 201.854365 
L 329.694545 202.944112 
L 335.781818 204.22571 
L 341.869091 205.689063 
L 349.985455 207.902418 
L 358.101818 210.385513 
L 366.218182 213.100836 
L 376.363636 216.756042 
L 388.538182 221.398449 
L 412.887273 230.772755 
L 421.003636 233.679792 
L 429.12 236.352929 
L 435.207273 238.154682 
L 441.294545 239.741576 
L 447.381818 241.075139 
L 453.469091 242.115265 
L 457.527273 242.625115 
L 461.585455 242.973256 
L 465.643636 243.146592 
L 469.701818 243.131704 
L 473.76 242.914848 
L 477.818182 242.481959 
L 481.876364 241.818647 
L 485.934545 240.910197 
L 489.992727 239.741576 
L 494.050909 238.297421 
L 498.109091 236.562051 
L 498.109091 236.562051 
" clip-path="url(#p8d36a6baed)" style="fill: none; stroke: #ff7f0e; stroke-width: 1.5; stroke-linecap: square"/>
   </g>
   <g id="line2d_34">
    <path d="M 92.290909 236.562051 
L 94.32 242.770742 
L 96.349091 247.64265 
L 98.378182 251.339893 
L 100.407273 254.011471 
L 102.436364 255.793986 
L 104.465455 256.812344 
L 106.494545 257.180421 
L 108.523636 257.001708 
L 110.552727 256.369937 
L 112.581818 255.369669 
L 114.610909 254.076875 
L 116.64 252.55948 
L 120.698182 249.085507 
L 130.843636 239.89898 
L 134.901818 236.663577 
L 138.96 233.895968 
L 140.989091 232.709991 
L 143.018182 231.661988 
L 145.047273 230.753369 
L 147.076364 229.983343 
L 149.105455 229.349174 
L 151.134545 228.846414 
L 153.163636 228.469128 
L 157.221818 228.061059 
L 161.28 228.055427 
L 165.338182 228.371038 
L 169.396364 228.919996 
L 177.512727 230.357659 
L 183.6 231.392594 
L 187.658182 231.915197 
L 191.716364 232.226323 
L 195.774545 232.271083 
L 199.832727 232.005853 
L 203.890909 231.398734 
L 207.949091 230.429676 
L 212.007273 229.090328 
L 216.065455 227.383625 
L 220.123636 225.323169 
L 224.181818 222.932414 
L 228.24 220.243711 
L 232.298182 217.297221 
L 238.385455 212.497996 
L 246.501818 205.675055 
L 256.647273 197.12925 
L 262.734545 192.353517 
L 266.792727 189.436046 
L 270.850909 186.792898 
L 274.909091 184.471213 
L 278.967273 182.512413 
L 283.025455 180.951441 
L 287.083636 179.816143 
L 289.112727 179.414756 
L 291.141818 179.126765 
L 293.170909 178.953454 
L 295.2 178.895598 
L 297.229091 178.953454 
L 299.258182 179.126765 
L 301.287273 179.414756 
L 305.345455 180.329135 
L 309.403636 181.680285 
L 313.461818 183.444109 
L 317.52 185.58914 
L 321.578182 188.077111 
L 325.636364 190.863638 
L 329.694545 193.899038 
L 335.781818 198.799568 
L 356.072727 215.741702 
L 360.130909 218.799906 
L 364.189091 221.622966 
L 368.247273 224.167253 
L 372.305455 226.396371 
L 376.363636 228.282287 
L 380.421818 229.806363 
L 384.48 230.96024 
L 388.538182 231.74656 
L 392.596364 232.179488 
L 396.654545 232.284996 
L 400.712727 232.100881 
L 404.770909 231.676479 
L 410.858182 230.723851 
L 423.032727 228.621984 
L 427.090909 228.178467 
L 431.149091 228.012801 
L 435.207273 228.210107 
L 437.236364 228.469128 
L 439.265455 228.846414 
L 441.294545 229.349174 
L 443.323636 229.983343 
L 445.352727 230.753369 
L 447.381818 231.661988 
L 449.410909 232.709991 
L 451.44 233.895968 
L 455.498182 236.663577 
L 459.556364 239.89898 
L 463.614545 243.482394 
L 471.730909 250.877892 
L 473.76 252.55948 
L 475.789091 254.076875 
L 477.818182 255.369669 
L 479.847273 256.369937 
L 481.876364 257.001708 
L 483.905455 257.180421 
L 485.934545 256.812344 
L 487.963636 255.793986 
L 489.992727 254.011471 
L 492.021818 251.339893 
L 494.050909 247.64265 
L 496.08 242.770742 
L 498.109091 236.562051 
L 498.109091 236.562051 
" clip-path="url(#p8d36a6baed)" style="fill: none; stroke: #2ca02c; stroke-width: 1.5; stroke-linecap: square"/>
   </g>
   <g id="line2d_35">
    <path d="M 92.290909 236.562051 
L 94.32 349.191467 
L 96.349091 423.577084 
L 98.378182 467.873529 
L 100.407273 488.935349 
L 102.436364 492.48 
L 104.465455 483.234527 
L 106.494545 465.067223 
L 108.523636 441.105501 
L 112.581818 385.223754 
L 116.64 329.507488 
L 118.669091 304.297858 
L 120.698182 281.635071 
L 122.727273 261.823965 
L 124.756364 244.997299 
L 126.785455 231.152738 
L 128.814545 220.184566 
L 130.843636 211.910651 
L 132.872727 206.095193 
L 134.901818 202.467722 
L 136.930909 200.738757 
L 138.96 200.612548 
L 140.989091 201.797242 
L 143.018182 204.012808 
L 145.047273 206.99702 
L 147.076364 210.509776 
L 157.221818 229.416753 
L 159.250909 232.526031 
L 161.28 235.217143 
L 163.309091 237.452529 
L 165.338182 239.213721 
L 167.367273 240.498986 
L 169.396364 241.32093 
L 171.425455 241.704101 
L 173.454545 241.682661 
L 175.483636 241.298151 
L 177.512727 240.597389 
L 179.541818 239.630523 
L 181.570909 238.449259 
L 185.629091 235.648844 
L 193.745455 229.593012 
L 197.803636 226.925497 
L 199.832727 225.768595 
L 201.861818 224.74727 
L 203.890909 223.867671 
L 205.92 223.130552 
L 207.949091 222.531635 
L 209.978182 222.062056 
L 214.036364 221.455621 
L 218.094545 221.169085 
L 226.210909 220.823498 
L 230.269091 220.37586 
L 232.298182 220.003913 
L 234.327273 219.507553 
L 236.356364 218.870625 
L 238.385455 218.079835 
L 240.414545 217.125003 
L 242.443636 215.999246 
L 244.472727 214.699107 
L 246.501818 213.224615 
L 248.530909 211.579281 
L 250.56 209.770041 
L 254.618182 205.70395 
L 258.676364 201.144553 
L 264.763636 193.740324 
L 270.850909 186.257945 
L 274.909091 181.587927 
L 278.967273 177.422569 
L 280.996364 175.591039 
L 283.025455 173.95658 
L 285.054545 172.53873 
L 287.083636 171.354527 
L 289.112727 170.418258 
L 291.141818 169.741256 
L 293.170909 169.331736 
L 295.2 169.194674 
L 297.229091 169.331736 
L 299.258182 169.741256 
L 301.287273 170.418258 
L 303.316364 171.354527 
L 305.345455 172.53873 
L 307.374545 173.95658 
L 309.403636 175.591039 
L 311.432727 177.422569 
L 315.490909 181.587927 
L 319.549091 186.257945 
L 327.665455 196.252195 
L 331.723636 201.144553 
L 335.781818 205.70395 
L 339.84 209.770041 
L 341.869091 211.579281 
L 343.898182 213.224615 
L 345.927273 214.699107 
L 347.956364 215.999246 
L 349.985455 217.125003 
L 352.014545 218.079835 
L 354.043636 218.870625 
L 356.072727 219.507553 
L 358.101818 220.003913 
L 362.16 220.642096 
L 366.218182 220.942693 
L 376.363636 221.455621 
L 380.421818 222.062056 
L 382.450909 222.531635 
L 384.48 223.130552 
L 386.509091 223.867671 
L 388.538182 224.74727 
L 390.567273 225.768595 
L 394.625455 228.206175 
L 398.683636 231.062557 
L 406.8 237.105278 
L 408.829091 238.449259 
L 410.858182 239.630523 
L 412.887273 240.597389 
L 414.916364 241.298151 
L 416.945455 241.682661 
L 418.974545 241.704101 
L 421.003636 241.32093 
L 423.032727 240.498986 
L 425.061818 239.213721 
L 427.090909 237.452529 
L 429.12 235.217143 
L 431.149091 232.526031 
L 433.178182 229.416753 
L 435.207273 225.948189 
L 439.265455 218.287255 
L 443.323636 210.509776 
L 445.352727 206.99702 
L 447.381818 204.012808 
L 449.410909 201.797242 
L 451.44 200.612548 
L 453.469091 200.738757 
L 455.498182 202.467722 
L 457.527273 206.095193 
L 459.556364 211.910651 
L 461.585455 220.184566 
L 463.614545 231.152738 
L 465.643636 244.997299 
L 467.672727 261.823965 
L 469.701818 281.635071 
L 471.730909 304.297858 
L 473.76 329.507488 
L 477.818182 385.223754 
L 481.876364 441.105501 
L 483.905455 465.067223 
L 485.934545 483.234527 
L 487.963636 492.48 
L 489.992727 488.935349 
L 492.021818 467.873529 
L 494.050909 423.577084 
L 496.08 349.191467 
L 498.109091 236.562051 
L 498.109091 236.562051 
" clip-path="url(#p8d36a6baed)" style="fill: none; stroke: #d62728; stroke-width: 1.5; stroke-linecap: square"/>
   </g>
   <g id="line2d_36">
    <path d="M 92.290909 236.562051 
L 94.32 157.286611 
L 96.349091 112.318637 
L 98.378182 92.149401 
L 100.407273 89.28 
L 102.436364 97.879532 
L 104.465455 113.490997 
L 106.494545 132.779434 
L 110.552727 173.4026 
L 112.581818 191.905727 
L 114.610909 208.141321 
L 116.64 221.76194 
L 118.669091 232.670547 
L 120.698182 240.949261 
L 122.727273 246.802 
L 124.756364 250.508979 
L 126.785455 252.391243 
L 128.814545 252.783611 
L 130.843636 252.014638 
L 132.872727 250.392362 
L 134.901818 248.194767 
L 138.96 243.003804 
L 143.018182 237.915769 
L 145.047273 235.706848 
L 147.076364 233.812197 
L 149.105455 232.26437 
L 151.134545 231.072466 
L 153.163636 230.226404 
L 155.192727 229.701096 
L 157.221818 229.460367 
L 159.250909 229.460557 
L 161.28 229.653726 
L 165.338182 230.422096 
L 173.454545 232.250539 
L 177.512727 232.783536 
L 179.541818 232.887548 
L 181.570909 232.874035 
L 183.6 232.742886 
L 187.658182 232.149739 
L 191.716364 231.186206 
L 195.774545 229.966369 
L 212.007273 224.745486 
L 218.094545 223.152109 
L 226.210909 221.093065 
L 230.269091 219.8762 
L 234.327273 218.386231 
L 238.385455 216.520413 
L 242.443636 214.198335 
L 246.501818 211.372503 
L 250.56 208.035863 
L 254.618182 204.22571 
L 258.676364 200.023794 
L 264.763636 193.263993 
L 270.850909 186.452637 
L 274.909091 182.1971 
L 278.967273 178.394683 
L 280.996364 176.72025 
L 283.025455 175.224573 
L 285.054545 173.925983 
L 287.083636 172.840556 
L 289.112727 171.981835 
L 291.141818 171.360601 
L 293.170909 170.984688 
L 295.2 170.858853 
L 297.229091 170.984688 
L 299.258182 171.360601 
L 301.287273 171.981835 
L 303.316364 172.840556 
L 305.345455 173.925983 
L 307.374545 175.224573 
L 309.403636 176.72025 
L 311.432727 178.394683 
L 315.490909 182.1971 
L 319.549091 186.452637 
L 327.665455 195.552686 
L 333.752727 202.166952 
L 337.810909 206.185883 
L 341.869091 209.766762 
L 345.927273 212.849841 
L 349.985455 215.420251 
L 354.043636 217.50599 
L 358.101818 219.172156 
L 362.16 220.511816 
L 368.247273 222.149088 
L 378.392727 224.745486 
L 384.48 226.580156 
L 398.683636 231.186206 
L 402.741818 232.149739 
L 406.8 232.742886 
L 408.829091 232.874035 
L 410.858182 232.887548 
L 412.887273 232.783536 
L 416.945455 232.250539 
L 421.003636 231.391076 
L 427.090909 229.990437 
L 429.12 229.653726 
L 431.149091 229.460557 
L 433.178182 229.460367 
L 435.207273 229.701096 
L 437.236364 230.226404 
L 439.265455 231.072466 
L 441.294545 232.26437 
L 443.323636 233.812197 
L 445.352727 235.706848 
L 447.381818 237.915769 
L 451.44 243.003804 
L 455.498182 248.194767 
L 457.527273 250.392362 
L 459.556364 252.014638 
L 461.585455 252.783611 
L 463.614545 252.391243 
L 465.643636 250.508979 
L 467.672727 246.802 
L 469.701818 240.949261 
L 471.730909 232.670547 
L 473.76 221.76194 
L 475.789091 208.141321 
L 477.818182 191.905727 
L 479.847273 173.4026 
L 485.934545 113.490997 
L 487.963636 97.879532 
L 489.992727 89.28 
L 492.021818 92.149401 
L 494.050909 112.318637 
L 496.08 157.286611 
L 498.109091 236.562051 
L 498.109091 236.562051 
" clip-path="url(#p8d36a6baed)" style="fill: none; stroke: #9467bd; stroke-width: 1.5; stroke-linecap: square"/>
   </g>
   <g id="patch_3">
    <path d="M 72 512.64 
L 72 69.12 
" style="fill: none; stroke: #000000; stroke-width: 0.8; stroke-linejoin: miter; stroke-linecap: square"/>
   </g>
   <g id="patch_4">
    <path d="M 518.4 512.64 
L 518.4 69.12 
" style="fill: none; stroke: #000000; stroke-width: 0.8; stroke-linejoin: miter; stroke-linecap: square"/>
   </g>
   <g id="patch_5">
    <path d="M 72 512.64 
L 518.4 512.64 
" style="fill: none; stroke: #000000; stroke-width: 0.8; stroke-linejoin: miter; stroke-linecap: square"/>
   </g>
   <g id="patch_6">
    <path d="M 72 69.12 
L 518.4 69.12 
" style="fill: none; stroke: #000000; stroke-width: 0.8; stroke-linejoin: miter; stroke-linecap: square"/>
   </g>
   <g id="text_18">
    <!-- Wielomiany interpolacyjne dla funkcji -->
    <g transform="translate(182.650312 46.416375)scale(0.12 -0.12)">
     <defs>
      <path id="DejaVuSans-57" d="M 213 4666 
L 850 4666 
L 1831 722 
L 2809 4666 
L 3519 4666 
L 4500 722 
L 5478 4666 
L 6119 4666 
L 4947 0 
L 4153 0 
L 3169 4050 
L 2175 0 
L 1381 0 
L 213 4666 
z
" transform="scale(0.015625)"/>
      <path id="DejaVuSans-69" d="M 603 3500 
L 1178 3500 
L 1178 0 
L 603 0 
L 603 3500 
z
M 603 4863 
L 1178 4863 
L 1178 4134 
L 603 4134 
L 603 4863 
z
" transform="scale(0.015625)"/>
      <path id="DejaVuSans-65" d="M 3597 1894 
L 3597 1613 
L 953 1613 
Q 991 1019 1311 708 
Q 1631 397 2203 397 
Q 2534 397 2845 478 
Q 3156 559 3463 722 
L 3463 178 
Q 3153 47 2828 -22 
Q 2503 -91 2169 -91 
Q 1331 -91 842 396 
Q 353 884 353 1716 
Q 353 2575 817 3079 
Q 1281 3584 2069 3584 
Q 2775 3584 3186 3129 
Q 3597 2675 3597 1894 
z
M 3022 2063 
Q 3016 2534 2758 2815 
Q 2500 3097 2075 3097 
Q 1594 3097 1305 2825 
Q 1016 2553 972 2059 
L 3022 2063 
z
" transform="scale(0.015625)"/>
      <path id="DejaVuSans-6c" d="M 603 4863 
L 1178 4863 
L 1178 0 
L 603 0 
L 603 4863 
z
" transform="scale(0.015625)"/>
      <path id="DejaVuSans-6f" d="M 1959 3097 
Q 1497 3097 1228 2736 
Q 959 2375 959 1747 
Q 959 1119 1226 758 
Q 1494 397 1959 397 
Q 2419 397 2687 759 
Q 2956 1122 2956 1747 
Q 2956 2369 2687 2733 
Q 2419 3097 1959 3097 
z
M 1959 3584 
Q 2709 3584 3137 3096 
Q 3566 2609 3566 1747 
Q 3566 888 3137 398 
Q 2709 -91 1959 -91 
Q 1206 -91 779 398 
Q 353 888 353 1747 
Q 353 2609 779 3096 
Q 1206 3584 1959 3584 
z
" transform="scale(0.015625)"/>
      <path id="DejaVuSans-6d" d="M 3328 2828 
Q 3544 3216 3844 3400 
Q 4144 3584 4550 3584 
Q 5097 3584 5394 3201 
Q 5691 2819 5691 2113 
L 5691 0 
L 5113 0 
L 5113 2094 
Q 5113 2597 4934 2840 
Q 4756 3084 4391 3084 
Q 3944 3084 3684 2787 
Q 3425 2491 3425 1978 
L 3425 0 
L 2847 0 
L 2847 2094 
Q 2847 2600 2669 2842 
Q 2491 3084 2119 3084 
Q 1678 3084 1418 2786 
Q 1159 2488 1159 1978 
L 1159 0 
L 581 0 
L 581 3500 
L 1159 3500 
L 1159 2956 
Q 1356 3278 1631 3431 
Q 1906 3584 2284 3584 
Q 2666 3584 2933 3390 
Q 3200 3197 3328 2828 
z
" transform="scale(0.015625)"/>
      <path id="DejaVuSans-61" d="M 2194 1759 
Q 1497 1759 1228 1600 
Q 959 1441 959 1056 
Q 959 750 1161 570 
Q 1363 391 1709 391 
Q 2188 391 2477 730 
Q 2766 1069 2766 1631 
L 2766 1759 
L 2194 1759 
z
M 3341 1997 
L 3341 0 
L 2766 0 
L 2766 531 
Q 2569 213 2275 61 
Q 1981 -91 1556 -91 
Q 1019 -91 701 211 
Q 384 513 384 1019 
Q 384 1609 779 1909 
Q 1175 2209 1959 2209 
L 2766 2209 
L 2766 2266 
Q 2766 2663 2505 2880 
Q 2244 3097 1772 3097 
Q 1472 3097 1187 3025 
Q 903 2953 641 2809 
L 641 3341 
Q 956 3463 1253 3523 
Q 1550 3584 1831 3584 
Q 2591 3584 2966 3190 
Q 3341 2797 3341 1997 
z
" transform="scale(0.015625)"/>
      <path id="DejaVuSans-6e" d="M 3513 2113 
L 3513 0 
L 2938 0 
L 2938 2094 
Q 2938 2591 2744 2837 
Q 2550 3084 2163 3084 
Q 1697 3084 1428 2787 
Q 1159 2491 1159 1978 
L 1159 0 
L 581 0 
L 581 3500 
L 1159 3500 
L 1159 2956 
Q 1366 3272 1645 3428 
Q 1925 3584 2291 3584 
Q 2894 3584 3203 3211 
Q 3513 2838 3513 2113 
z
" transform="scale(0.015625)"/>
      <path id="DejaVuSans-20" transform="scale(0.015625)"/>
      <path id="DejaVuSans-74" d="M 1172 4494 
L 1172 3500 
L 2356 3500 
L 2356 3053 
L 1172 3053 
L 1172 1153 
Q 1172 725 1289 603 
Q 1406 481 1766 481 
L 2356 481 
L 2356 0 
L 1766 0 
Q 1100 0 847 248 
Q 594 497 594 1153 
L 594 3053 
L 172 3053 
L 172 3500 
L 594 3500 
L 594 4494 
L 1172 4494 
z
" transform="scale(0.015625)"/>
      <path id="DejaVuSans-72" d="M 2631 2963 
Q 2534 3019 2420 3045 
Q 2306 3072 2169 3072 
Q 1681 3072 1420 2755 
Q 1159 2438 1159 1844 
L 1159 0 
L 581 0 
L 581 3500 
L 1159 3500 
L 1159 2956 
Q 1341 3275 1631 3429 
Q 1922 3584 2338 3584 
Q 2397 3584 2469 3576 
Q 2541 3569 2628 3553 
L 2631 2963 
z
" transform="scale(0.015625)"/>
      <path id="DejaVuSans-70" d="M 1159 525 
L 1159 -1331 
L 581 -1331 
L 581 3500 
L 1159 3500 
L 1159 2969 
Q 1341 3281 1617 3432 
Q 1894 3584 2278 3584 
Q 2916 3584 3314 3078 
Q 3713 2572 3713 1747 
Q 3713 922 3314 415 
Q 2916 -91 2278 -91 
Q 1894 -91 1617 61 
Q 1341 213 1159 525 
z
M 3116 1747 
Q 3116 2381 2855 2742 
Q 2594 3103 2138 3103 
Q 1681 3103 1420 2742 
Q 1159 2381 1159 1747 
Q 1159 1113 1420 752 
Q 1681 391 2138 391 
Q 2594 391 2855 752 
Q 3116 1113 3116 1747 
z
" transform="scale(0.015625)"/>
      <path id="DejaVuSans-63" d="M 3122 3366 
L 3122 2828 
Q 2878 2963 2633 3030 
Q 2388 3097 2138 3097 
Q 1578 3097 1268 2742 
Q 959 2388 959 1747 
Q 959 1106 1268 751 
Q 1578 397 2138 397 
Q 2388 397 2633 464 
Q 2878 531 3122 666 
L 3122 134 
Q 2881 22 2623 -34 
Q 2366 -91 2075 -91 
Q 1284 -91 818 406 
Q 353 903 353 1747 
Q 353 2603 823 3093 
Q 1294 3584 2113 3584 
Q 2378 3584 2631 3529 
Q 2884 3475 3122 3366 
z
" transform="scale(0.015625)"/>
      <path id="DejaVuSans-6a" d="M 603 3500 
L 1178 3500 
L 1178 -63 
Q 1178 -731 923 -1031 
Q 669 -1331 103 -1331 
L -116 -1331 
L -116 -844 
L 38 -844 
Q 366 -844 484 -692 
Q 603 -541 603 -63 
L 603 3500 
z
M 603 4863 
L 1178 4863 
L 1178 4134 
L 603 4134 
L 603 4863 
z
" transform="scale(0.015625)"/>
      <path id="DejaVuSans-64" d="M 2906 2969 
L 2906 4863 
L 3481 4863 
L 3481 0 
L 2906 0 
L 2906 525 
Q 2725 213 2448 61 
Q 2172 -91 1784 -91 
Q 1150 -91 751 415 
Q 353 922 353 1747 
Q 353 2572 751 3078 
Q 1150 3584 1784 3584 
Q 2172 3584 2448 3432 
Q 2725 3281 2906 2969 
z
M 947 1747 
Q 947 1113 1208 752 
Q 1469 391 1925 391 
Q 2381 391 2643 752 
Q 2906 1113 2906 1747 
Q 2906 2381 2643 2742 
Q 2381 3103 1925 3103 
Q 1469 3103 1208 2742 
Q 947 2381 947 1747 
z
" transform="scale(0.015625)"/>
      <path id="DejaVuSans-66" d="M 2375 4863 
L 2375 4384 
L 1825 4384 
Q 1516 4384 1395 4259 
Q 1275 4134 1275 3809 
L 1275 3500 
L 2222 3500 
L 2222 3053 
L 1275 3053 
L 1275 0 
L 697 0 
L 697 3053 
L 147 3053 
L 147 3500 
L 697 3500 
L 697 3744 
Q 697 4328 969 4595 
Q 1241 4863 1831 4863 
L 2375 4863 
z
" transform="scale(0.015625)"/>
      <path id="DejaVuSans-75" d="M 544 1381 
L 544 3500 
L 1119 3500 
L 1119 1403 
Q 1119 906 1312 657 
Q 1506 409 1894 409 
Q 2359 409 2629 706 
Q 2900 1003 2900 1516 
L 2900 3500 
L 3475 3500 
L 3475 0 
L 2900 0 
L 2900 538 
Q 2691 219 2414 64 
Q 2138 -91 1772 -91 
Q 1169 -91 856 284 
Q 544 659 544 1381 
z
M 1991 3584 
L 1991 3584 
z
" transform="scale(0.015625)"/>
      <path id="DejaVuSans-6b" d="M 581 4863 
L 1159 4863 
L 1159 1991 
L 2875 3500 
L 3609 3500 
L 1753 1863 
L 3688 0 
L 2938 0 
L 1159 1709 
L 1159 0 
L 581 0 
L 581 4863 
z
" transform="scale(0.015625)"/>
     </defs>
     <use xlink:href="#DejaVuSans-57"/>
     <use xlink:href="#DejaVuSans-69" x="96.626953"/>
     <use xlink:href="#DejaVuSans-65" x="124.410156"/>
     <use xlink:href="#DejaVuSans-6c" x="185.933594"/>
     <use xlink:href="#DejaVuSans-6f" x="213.716797"/>
     <use xlink:href="#DejaVuSans-6d" x="274.898438"/>
     <use xlink:href="#DejaVuSans-69" x="372.310547"/>
     <use xlink:href="#DejaVuSans-61" x="400.09375"/>
     <use xlink:href="#DejaVuSans-6e" x="461.373047"/>
     <use xlink:href="#DejaVuSans-79" x="524.751953"/>
     <use xlink:href="#DejaVuSans-20" x="583.931641"/>
     <use xlink:href="#DejaVuSans-69" x="615.71875"/>
     <use xlink:href="#DejaVuSans-6e" x="643.501953"/>
     <use xlink:href="#DejaVuSans-74" x="706.880859"/>
     <use xlink:href="#DejaVuSans-65" x="746.089844"/>
     <use xlink:href="#DejaVuSans-72" x="807.613281"/>
     <use xlink:href="#DejaVuSans-70" x="848.726562"/>
     <use xlink:href="#DejaVuSans-6f" x="912.203125"/>
     <use xlink:href="#DejaVuSans-6c" x="973.384766"/>
     <use xlink:href="#DejaVuSans-61" x="1001.167969"/>
     <use xlink:href="#DejaVuSans-63" x="1062.447266"/>
     <use xlink:href="#DejaVuSans-79" x="1117.427734"/>
     <use xlink:href="#DejaVuSans-6a" x="1176.607422"/>
     <use xlink:href="#DejaVuSans-6e" x="1204.390625"/>
     <use xlink:href="#DejaVuSans-65" x="1267.769531"/>
     <use xlink:href="#DejaVuSans-20" x="1329.292969"/>
     <use xlink:href="#DejaVuSans-64" x="1361.080078"/>
     <use xlink:href="#DejaVuSans-6c" x="1424.556641"/>
     <use xlink:href="#DejaVuSans-61" x="1452.339844"/>
     <use xlink:href="#DejaVuSans-20" x="1513.619141"/>
     <use xlink:href="#DejaVuSans-66" x="1545.40625"/>
     <use xlink:href="#DejaVuSans-75" x="1580.611328"/>
     <use xlink:href="#DejaVuSans-6e" x="1643.990234"/>
     <use xlink:href="#DejaVuSans-6b" x="1707.369141"/>
     <use xlink:href="#DejaVuSans-63" x="1765.279297"/>
     <use xlink:href="#DejaVuSans-6a" x="1820.259766"/>
     <use xlink:href="#DejaVuSans-69" x="1848.042969"/>
    </g>
    <!-- $f(x)=\frac{1}{1+25x^2}$ i siatki $x_i=-1+2\frac{i}{n}$ -->
    <g transform="translate(197.52 62.88)scale(0.12 -0.12)">
     <defs>
      <path id="DejaVuSans-Oblique-66" d="M 3059 4863 
L 2969 4384 
L 2419 4384 
Q 2106 4384 1964 4261 
Q 1822 4138 1753 3809 
L 1691 3500 
L 2638 3500 
L 2553 3053 
L 1606 3053 
L 1013 0 
L 434 0 
L 1031 3053 
L 481 3053 
L 563 3500 
L 1113 3500 
L 1159 3744 
Q 1278 4363 1576 4613 
Q 1875 4863 2516 4863 
L 3059 4863 
z
" transform="scale(0.015625)"/>
      <path id="DejaVuSans-28" d="M 1984 4856 
Q 1566 4138 1362 3434 
Q 1159 2731 1159 2009 
Q 1159 1288 1364 580 
Q 1569 -128 1984 -844 
L 1484 -844 
Q 1016 -109 783 600 
Q 550 1309 550 2009 
Q 550 2706 781 3412 
Q 1013 4119 1484 4856 
L 1984 4856 
z
" transform="scale(0.015625)"/>
      <path id="DejaVuSans-Oblique-78" d="M 3841 3500 
L 2234 1784 
L 3219 0 
L 2559 0 
L 1819 1388 
L 531 0 
L -166 0 
L 1556 1844 
L 641 3500 
L 1300 3500 
L 1972 2234 
L 3144 3500 
L 3841 3500 
z
" transform="scale(0.015625)"/>
      <path id="DejaVuSans-29" d="M 513 4856 
L 1013 4856 
Q 1481 4119 1714 3412 
Q 1947 2706 1947 2009 
Q 1947 1309 1714 600 
Q 1481 -109 1013 -844 
L 513 -844 
Q 928 -128 1133 580 
Q 1338 1288 1338 2009 
Q 1338 2731 1133 3434 
Q 928 4138 513 4856 
z
" transform="scale(0.015625)"/>
      <path id="DejaVuSans-3d" d="M 678 2906 
L 4684 2906 
L 4684 2381 
L 678 2381 
L 678 2906 
z
M 678 1631 
L 4684 1631 
L 4684 1100 
L 678 1100 
L 678 1631 
z
" transform="scale(0.015625)"/>
      <path id="DejaVuSans-2b" d="M 2944 4013 
L 2944 2272 
L 4684 2272 
L 4684 1741 
L 2944 1741 
L 2944 0 
L 2419 0 
L 2419 1741 
L 678 1741 
L 678 2272 
L 2419 2272 
L 2419 4013 
L 2944 4013 
z
" transform="scale(0.015625)"/>
      <path id="DejaVuSans-73" d="M 2834 3397 
L 2834 2853 
Q 2591 2978 2328 3040 
Q 2066 3103 1784 3103 
Q 1356 3103 1142 2972 
Q 928 2841 928 2578 
Q 928 2378 1081 2264 
Q 1234 2150 1697 2047 
L 1894 2003 
Q 2506 1872 2764 1633 
Q 3022 1394 3022 966 
Q 3022 478 2636 193 
Q 2250 -91 1575 -91 
Q 1294 -91 989 -36 
Q 684 19 347 128 
L 347 722 
Q 666 556 975 473 
Q 1284 391 1588 391 
Q 1994 391 2212 530 
Q 2431 669 2431 922 
Q 2431 1156 2273 1281 
Q 2116 1406 1581 1522 
L 1381 1569 
Q 847 1681 609 1914 
Q 372 2147 372 2553 
Q 372 3047 722 3315 
Q 1072 3584 1716 3584 
Q 2034 3584 2315 3537 
Q 2597 3491 2834 3397 
z
" transform="scale(0.015625)"/>
      <path id="DejaVuSans-Oblique-69" d="M 1172 4863 
L 1747 4863 
L 1606 4134 
L 1031 4134 
L 1172 4863 
z
M 909 3500 
L 1484 3500 
L 800 0 
L 225 0 
L 909 3500 
z
" transform="scale(0.015625)"/>
      <path id="DejaVuSans-Oblique-6e" d="M 3566 2113 
L 3156 0 
L 2578 0 
L 2988 2091 
Q 3016 2238 3031 2350 
Q 3047 2463 3047 2528 
Q 3047 2791 2881 2937 
Q 2716 3084 2419 3084 
Q 1956 3084 1622 2776 
Q 1288 2469 1184 1941 
L 800 0 
L 225 0 
L 903 3500 
L 1478 3500 
L 1363 2950 
Q 1603 3253 1940 3418 
Q 2278 3584 2650 3584 
Q 3113 3584 3367 3334 
Q 3622 3084 3622 2631 
Q 3622 2519 3608 2391 
Q 3594 2263 3566 2113 
z
" transform="scale(0.015625)"/>
     </defs>
     <use xlink:href="#DejaVuSans-Oblique-66" transform="translate(0 0.014062)"/>
     <use xlink:href="#DejaVuSans-28" transform="translate(35.205078 0.014062)"/>
     <use xlink:href="#DejaVuSans-Oblique-78" transform="translate(74.21875 0.014062)"/>
     <use xlink:href="#DejaVuSans-29" transform="translate(133.398438 0.014062)"/>
     <use xlink:href="#DejaVuSans-3d" transform="translate(191.894531 0.014062)"/>
     <use xlink:href="#DejaVuSans-31" transform="translate(421.166016 43.810938)scale(0.7)"/>
     <use xlink:href="#DejaVuSans-31" transform="translate(295.166016 -50.603125)scale(0.7)"/>
     <use xlink:href="#DejaVuSans-2b" transform="translate(353.339844 -50.603125)scale(0.7)"/>
     <use xlink:href="#DejaVuSans-32" transform="translate(425.629883 -50.603125)scale(0.7)"/>
     <use xlink:href="#DejaVuSans-35" transform="translate(470.166016 -50.603125)scale(0.7)"/>
     <use xlink:href="#DejaVuSans-Oblique-78" transform="translate(514.702148 -50.603125)scale(0.7)"/>
     <use xlink:href="#DejaVuSans-32" transform="translate(559.254232 -23.80625)scale(0.49)"/>
     <use xlink:href="#DejaVuSans-20" transform="translate(604.843587 0.014062)"/>
     <use xlink:href="#DejaVuSans-69" transform="translate(636.630697 0.014062)"/>
     <use xlink:href="#DejaVuSans-20" transform="translate(664.4139 0.014062)"/>
     <use xlink:href="#DejaVuSans-73" transform="translate(696.201009 0.014062)"/>
     <use xlink:href="#DejaVuSans-69" transform="translate(748.300618 0.014062)"/>
     <use xlink:href="#DejaVuSans-61" transform="translate(776.083822 0.014062)"/>
     <use xlink:href="#DejaVuSans-74" transform="translate(837.363118 0.014062)"/>
     <use xlink:href="#DejaVuSans-6b" transform="translate(876.572103 0.014062)"/>
     <use xlink:href="#DejaVuSans-69" transform="translate(934.482259 0.014062)"/>
     <use xlink:href="#DejaVuSans-20" transform="translate(962.265462 0.014062)"/>
     <use xlink:href="#DejaVuSans-Oblique-78" transform="translate(994.052572 0.014062)"/>
     <use xlink:href="#DejaVuSans-Oblique-69" transform="translate(1053.232259 -16.392188)scale(0.7)"/>
     <use xlink:href="#DejaVuSans-3d" transform="translate(1094.897298 0.014062)"/>
     <use xlink:href="#DejaVuSans-2212" transform="translate(1217.651204 0.014062)"/>
     <use xlink:href="#DejaVuSans-31" transform="translate(1320.922689 0.014062)"/>
     <use xlink:href="#DejaVuSans-2b" transform="translate(1404.028158 0.014062)"/>
     <use xlink:href="#DejaVuSans-32" transform="translate(1507.299642 0.014062)"/>
     <use xlink:href="#DejaVuSans-Oblique-69" transform="translate(1582.922689 43.810938)scale(0.7)"/>
     <use xlink:href="#DejaVuSans-Oblique-6e" transform="translate(1570.922689 -26.639062)scale(0.7)"/>
     <path d="M 295.166016 18.810938 
L 295.166016 25.060938 
L 592.343587 25.060938 
L 592.343587 18.810938 
L 295.166016 18.810938 
z
"/>
     <path d="M 1570.922689 18.810937 
L 1570.922689 25.060937 
L 1615.287923 25.060937 
L 1615.287923 18.810937 
L 1570.922689 18.810937 
z
"/>
    </g>
   </g>
   <g id="legend_1">
    <g id="patch_7">
     <path d="M 262.8 507.64 
L 327.6 507.64 
Q 329.6 507.64 329.6 505.64 
L 329.6 418.57125 
Q 329.6 416.57125 327.6 416.57125 
L 262.8 416.57125 
Q 260.8 416.57125 260.8 418.57125 
L 260.8 505.64 
Q 260.8 507.64 262.8 507.64 
z
" style="fill: #ffffff; opacity: 0.8; stroke: #cccccc; stroke-linejoin: miter"/>
    </g>
    <g id="line2d_37">
     <path d="M 264.8 424.669688 
L 274.8 424.669688 
L 284.8 424.669688 
" style="fill: none; stroke: #ff0000; stroke-width: 2.5; stroke-linecap: square"/>
    </g>
    <g id="text_19">
     <!-- f(x) -->
     <g transform="translate(292.8 428.169688)scale(0.1 -0.1)">
      <use xlink:href="#DejaVuSans-66"/>
      <use xlink:href="#DejaVuSans-28" x="35.205078"/>
      <use xlink:href="#DejaVuSans-78" x="74.21875"/>
      <use xlink:href="#DejaVuSans-29" x="133.398438"/>
     </g>
    </g>
    <g id="line2d_38">
     <path d="M 264.8 439.347813 
L 274.8 439.347813 
L 284.8 439.347813 
" style="fill: none; stroke: #1f77b4; stroke-width: 1.5; stroke-linecap: square"/>
    </g>
    <g id="text_20">
     <!-- $W_{2}(x)$ -->
     <g transform="translate(292.8 442.847813)scale(0.1 -0.1)">
      <defs>
       <path id="DejaVuSans-Oblique-57" d="M 616 4666 
L 1228 4666 
L 1453 697 
L 3213 4666 
L 3916 4666 
L 4147 697 
L 5888 4666 
L 6528 4666 
L 4453 0 
L 3659 0 
L 3444 3891 
L 1697 0 
L 903 0 
L 616 4666 
z
" transform="scale(0.015625)"/>
      </defs>
      <use xlink:href="#DejaVuSans-Oblique-57" transform="translate(0 0.125)"/>
      <use xlink:href="#DejaVuSans-32" transform="translate(98.876953 -16.28125)scale(0.7)"/>
      <use xlink:href="#DejaVuSans-28" transform="translate(146.147461 0.125)"/>
      <use xlink:href="#DejaVuSans-Oblique-78" transform="translate(185.161133 0.125)"/>
      <use xlink:href="#DejaVuSans-29" transform="translate(244.34082 0.125)"/>
     </g>
    </g>
    <g id="line2d_39">
     <path d="M 264.8 454.025937 
L 274.8 454.025937 
L 284.8 454.025937 
" style="fill: none; stroke: #ff7f0e; stroke-width: 1.5; stroke-linecap: square"/>
    </g>
    <g id="text_21">
     <!-- $W_{5}(x)$ -->
     <g transform="translate(292.8 457.525937)scale(0.1 -0.1)">
      <use xlink:href="#DejaVuSans-Oblique-57" transform="translate(0 0.125)"/>
      <use xlink:href="#DejaVuSans-35" transform="translate(98.876953 -16.28125)scale(0.7)"/>
      <use xlink:href="#DejaVuSans-28" transform="translate(146.147461 0.125)"/>
      <use xlink:href="#DejaVuSans-Oblique-78" transform="translate(185.161133 0.125)"/>
      <use xlink:href="#DejaVuSans-29" transform="translate(244.34082 0.125)"/>
     </g>
    </g>
    <g id="line2d_40">
     <path d="M 264.8 468.704063 
L 274.8 468.704063 
L 284.8 468.704063 
" style="fill: none; stroke: #2ca02c; stroke-width: 1.5; stroke-linecap: square"/>
    </g>
    <g id="text_22">
     <!-- $W_{9}(x)$ -->
     <g transform="translate(292.8 472.204063)scale(0.1 -0.1)">
      <defs>
       <path id="DejaVuSans-39" d="M 703 97 
L 703 672 
Q 941 559 1184 500 
Q 1428 441 1663 441 
Q 2288 441 2617 861 
Q 2947 1281 2994 2138 
Q 2813 1869 2534 1725 
Q 2256 1581 1919 1581 
Q 1219 1581 811 2004 
Q 403 2428 403 3163 
Q 403 3881 828 4315 
Q 1253 4750 1959 4750 
Q 2769 4750 3195 4129 
Q 3622 3509 3622 2328 
Q 3622 1225 3098 567 
Q 2575 -91 1691 -91 
Q 1453 -91 1209 -44 
Q 966 3 703 97 
z
M 1959 2075 
Q 2384 2075 2632 2365 
Q 2881 2656 2881 3163 
Q 2881 3666 2632 3958 
Q 2384 4250 1959 4250 
Q 1534 4250 1286 3958 
Q 1038 3666 1038 3163 
Q 1038 2656 1286 2365 
Q 1534 2075 1959 2075 
z
" transform="scale(0.015625)"/>
      </defs>
      <use xlink:href="#DejaVuSans-Oblique-57" transform="translate(0 0.125)"/>
      <use xlink:href="#DejaVuSans-39" transform="translate(98.876953 -16.28125)scale(0.7)"/>
      <use xlink:href="#DejaVuSans-28" transform="translate(146.147461 0.125)"/>
      <use xlink:href="#DejaVuSans-Oblique-78" transform="translate(185.161133 0.125)"/>
      <use xlink:href="#DejaVuSans-29" transform="translate(244.34082 0.125)"/>
     </g>
    </g>
    <g id="line2d_41">
     <path d="M 264.8 483.382187 
L 274.8 483.382187 
L 284.8 483.382187 
" style="fill: none; stroke: #d62728; stroke-width: 1.5; stroke-linecap: square"/>
    </g>
    <g id="text_23">
     <!-- $W_{12}(x)$ -->
     <g transform="translate(292.8 486.882187)scale(0.1 -0.1)">
      <use xlink:href="#DejaVuSans-Oblique-57" transform="translate(0 0.125)"/>
      <use xlink:href="#DejaVuSans-31" transform="translate(98.876953 -16.28125)scale(0.7)"/>
      <use xlink:href="#DejaVuSans-32" transform="translate(143.413086 -16.28125)scale(0.7)"/>
      <use xlink:href="#DejaVuSans-28" transform="translate(190.683594 0.125)"/>
      <use xlink:href="#DejaVuSans-Oblique-78" transform="translate(229.697266 0.125)"/>
      <use xlink:href="#DejaVuSans-29" transform="translate(288.876953 0.125)"/>
     </g>
    </g>
    <g id="line2d_42">
     <path d="M 264.8 498.060313 
L 274.8 498.060313 
L 284.8 498.060313 
" style="fill: none; stroke: #9467bd; stroke-width: 1.5; stroke-linecap: square"/>
    </g>
    <g id="text_24">
     <!-- $W_{15}(x)$ -->
     <g transform="translate(292.8 501.560313)scale(0.1 -0.1)">
      <use xlink:href="#DejaVuSans-Oblique-57" transform="translate(0 0.125)"/>
      <use xlink:href="#DejaVuSans-31" transform="translate(98.876953 -16.28125)scale(0.7)"/>
      <use xlink:href="#DejaVuSans-35" transform="translate(143.413086 -16.28125)scale(0.7)"/>
      <use xlink:href="#DejaVuSans-28" transform="translate(190.683594 0.125)"/>
      <use xlink:href="#DejaVuSans-Oblique-78" transform="translate(229.697266 0.125)"/>
      <use xlink:href="#DejaVuSans-29" transform="translate(288.876953 0.125)"/>
     </g>
    </g>
   </g>
  </g>
 </g>
 <defs>
  <clipPath id="p8d36a6baed">
   <rect x="72" y="69.12" width="446.4" height="443.52"/>
  </clipPath>
 </defs>
</svg>
