<?xml version="1.0" encoding="utf-8" standalone="no"?>
<!DOCTYPE svg PUBLIC "-//W3C//DTD SVG 1.1//EN"
  "http://www.w3.org/Graphics/SVG/1.1/DTD/svg11.dtd">
<svg xmlns:xlink="http://www.w3.org/1999/xlink" width="576pt" height="576pt" viewBox="0 0 576 576" xmlns="http://www.w3.org/2000/svg" version="1.1">
 <metadata>
  <rdf:RDF xmlns:dc="http://purl.org/dc/elements/1.1/" xmlns:cc="http://creativecommons.org/ns#" xmlns:rdf="http://www.w3.org/1999/02/22-rdf-syntax-ns#">
   <cc:Work>
    <dc:type rdf:resource="http://purl.org/dc/dcmitype/StillImage"/>
    <dc:date>2022-12-11T01:07:15.605357</dc:date>
    <dc:format>image/svg+xml</dc:format>
    <dc:creator>
     <cc:Agent>
      <dc:title>Matplotlib v3.5.1, https://matplotlib.org/</dc:title>
     </cc:Agent>
    </dc:creator>
   </cc:Work>
  </rdf:RDF>
 </metadata>
 <defs>
  <style type="text/css">*{stroke-linejoin: round; stroke-linecap: butt}</style>
 </defs>
 <g id="figure_1">
  <g id="patch_1">
   <path d="M 0 576 
L 576 576 
L 576 0 
L 0 0 
z
" style="fill: #ffffff"/>
  </g>
  <g id="axes_1">
   <g id="patch_2">
    <path d="M 72 512.64 
L 518.4 512.64 
L 518.4 69.12 
L 72 69.12 
z
" style="fill: #ffffff"/>
   </g>
   <g id="matplotlib.axis_1">
    <g id="xtick_1">
     <g id="line2d_1">
      <path d="M 92.290909 512.64 
L 92.290909 69.12 
" clip-path="url(#p2f7229526f)" style="fill: none; stroke: #b0b0b0; stroke-width: 0.8; stroke-linecap: square"/>
     </g>
     <g id="line2d_2">
      <defs>
       <path id="m4f8b51aa2b" d="M 0 0 
L 0 3.5 
" style="stroke: #000000; stroke-width: 0.8"/>
      </defs>
      <g>
       <use xlink:href="#m4f8b51aa2b" x="92.290909" y="512.64" style="stroke: #000000; stroke-width: 0.8"/>
      </g>
     </g>
     <g id="text_1">
      <!-- −1.00 -->
      <g transform="translate(76.968253 527.238438)scale(0.1 -0.1)">
       <defs>
        <path id="DejaVuSans-2212" d="M 678 2272 
L 4684 2272 
L 4684 1741 
L 678 1741 
L 678 2272 
z
" transform="scale(0.015625)"/>
        <path id="DejaVuSans-31" d="M 794 531 
L 1825 531 
L 1825 4091 
L 703 3866 
L 703 4441 
L 1819 4666 
L 2450 4666 
L 2450 531 
L 3481 531 
L 3481 0 
L 794 0 
L 794 531 
z
" transform="scale(0.015625)"/>
        <path id="DejaVuSans-2e" d="M 684 794 
L 1344 794 
L 1344 0 
L 684 0 
L 684 794 
z
" transform="scale(0.015625)"/>
        <path id="DejaVuSans-30" d="M 2034 4250 
Q 1547 4250 1301 3770 
Q 1056 3291 1056 2328 
Q 1056 1369 1301 889 
Q 1547 409 2034 409 
Q 2525 409 2770 889 
Q 3016 1369 3016 2328 
Q 3016 3291 2770 3770 
Q 2525 4250 2034 4250 
z
M 2034 4750 
Q 2819 4750 3233 4129 
Q 3647 3509 3647 2328 
Q 3647 1150 3233 529 
Q 2819 -91 2034 -91 
Q 1250 -91 836 529 
Q 422 1150 422 2328 
Q 422 3509 836 4129 
Q 1250 4750 2034 4750 
z
" transform="scale(0.015625)"/>
       </defs>
       <use xlink:href="#DejaVuSans-2212"/>
       <use xlink:href="#DejaVuSans-31" x="83.789062"/>
       <use xlink:href="#DejaVuSans-2e" x="147.412109"/>
       <use xlink:href="#DejaVuSans-30" x="179.199219"/>
       <use xlink:href="#DejaVuSans-30" x="242.822266"/>
      </g>
     </g>
    </g>
    <g id="xtick_2">
     <g id="line2d_3">
      <path d="M 143.018182 512.64 
L 143.018182 69.12 
" clip-path="url(#p2f7229526f)" style="fill: none; stroke: #b0b0b0; stroke-width: 0.8; stroke-linecap: square"/>
     </g>
     <g id="line2d_4">
      <g>
       <use xlink:href="#m4f8b51aa2b" x="143.018182" y="512.64" style="stroke: #000000; stroke-width: 0.8"/>
      </g>
     </g>
     <g id="text_2">
      <!-- −0.75 -->
      <g transform="translate(127.695526 527.238438)scale(0.1 -0.1)">
       <defs>
        <path id="DejaVuSans-37" d="M 525 4666 
L 3525 4666 
L 3525 4397 
L 1831 0 
L 1172 0 
L 2766 4134 
L 525 4134 
L 525 4666 
z
" transform="scale(0.015625)"/>
        <path id="DejaVuSans-35" d="M 691 4666 
L 3169 4666 
L 3169 4134 
L 1269 4134 
L 1269 2991 
Q 1406 3038 1543 3061 
Q 1681 3084 1819 3084 
Q 2600 3084 3056 2656 
Q 3513 2228 3513 1497 
Q 3513 744 3044 326 
Q 2575 -91 1722 -91 
Q 1428 -91 1123 -41 
Q 819 9 494 109 
L 494 744 
Q 775 591 1075 516 
Q 1375 441 1709 441 
Q 2250 441 2565 725 
Q 2881 1009 2881 1497 
Q 2881 1984 2565 2268 
Q 2250 2553 1709 2553 
Q 1456 2553 1204 2497 
Q 953 2441 691 2322 
L 691 4666 
z
" transform="scale(0.015625)"/>
       </defs>
       <use xlink:href="#DejaVuSans-2212"/>
       <use xlink:href="#DejaVuSans-30" x="83.789062"/>
       <use xlink:href="#DejaVuSans-2e" x="147.412109"/>
       <use xlink:href="#DejaVuSans-37" x="179.199219"/>
       <use xlink:href="#DejaVuSans-35" x="242.822266"/>
      </g>
     </g>
    </g>
    <g id="xtick_3">
     <g id="line2d_5">
      <path d="M 193.745455 512.64 
L 193.745455 69.12 
" clip-path="url(#p2f7229526f)" style="fill: none; stroke: #b0b0b0; stroke-width: 0.8; stroke-linecap: square"/>
     </g>
     <g id="line2d_6">
      <g>
       <use xlink:href="#m4f8b51aa2b" x="193.745455" y="512.64" style="stroke: #000000; stroke-width: 0.8"/>
      </g>
     </g>
     <g id="text_3">
      <!-- −0.50 -->
      <g transform="translate(178.422798 527.238438)scale(0.1 -0.1)">
       <use xlink:href="#DejaVuSans-2212"/>
       <use xlink:href="#DejaVuSans-30" x="83.789062"/>
       <use xlink:href="#DejaVuSans-2e" x="147.412109"/>
       <use xlink:href="#DejaVuSans-35" x="179.199219"/>
       <use xlink:href="#DejaVuSans-30" x="242.822266"/>
      </g>
     </g>
    </g>
    <g id="xtick_4">
     <g id="line2d_7">
      <path d="M 244.472727 512.64 
L 244.472727 69.12 
" clip-path="url(#p2f7229526f)" style="fill: none; stroke: #b0b0b0; stroke-width: 0.8; stroke-linecap: square"/>
     </g>
     <g id="line2d_8">
      <g>
       <use xlink:href="#m4f8b51aa2b" x="244.472727" y="512.64" style="stroke: #000000; stroke-width: 0.8"/>
      </g>
     </g>
     <g id="text_4">
      <!-- −0.25 -->
      <g transform="translate(229.150071 527.238438)scale(0.1 -0.1)">
       <defs>
        <path id="DejaVuSans-32" d="M 1228 531 
L 3431 531 
L 3431 0 
L 469 0 
L 469 531 
Q 828 903 1448 1529 
Q 2069 2156 2228 2338 
Q 2531 2678 2651 2914 
Q 2772 3150 2772 3378 
Q 2772 3750 2511 3984 
Q 2250 4219 1831 4219 
Q 1534 4219 1204 4116 
Q 875 4013 500 3803 
L 500 4441 
Q 881 4594 1212 4672 
Q 1544 4750 1819 4750 
Q 2544 4750 2975 4387 
Q 3406 4025 3406 3419 
Q 3406 3131 3298 2873 
Q 3191 2616 2906 2266 
Q 2828 2175 2409 1742 
Q 1991 1309 1228 531 
z
" transform="scale(0.015625)"/>
       </defs>
       <use xlink:href="#DejaVuSans-2212"/>
       <use xlink:href="#DejaVuSans-30" x="83.789062"/>
       <use xlink:href="#DejaVuSans-2e" x="147.412109"/>
       <use xlink:href="#DejaVuSans-32" x="179.199219"/>
       <use xlink:href="#DejaVuSans-35" x="242.822266"/>
      </g>
     </g>
    </g>
    <g id="xtick_5">
     <g id="line2d_9">
      <path d="M 295.2 512.64 
L 295.2 69.12 
" clip-path="url(#p2f7229526f)" style="fill: none; stroke: #b0b0b0; stroke-width: 0.8; stroke-linecap: square"/>
     </g>
     <g id="line2d_10">
      <g>
       <use xlink:href="#m4f8b51aa2b" x="295.2" y="512.64" style="stroke: #000000; stroke-width: 0.8"/>
      </g>
     </g>
     <g id="text_5">
      <!-- 0.00 -->
      <g transform="translate(284.067187 527.238438)scale(0.1 -0.1)">
       <use xlink:href="#DejaVuSans-30"/>
       <use xlink:href="#DejaVuSans-2e" x="63.623047"/>
       <use xlink:href="#DejaVuSans-30" x="95.410156"/>
       <use xlink:href="#DejaVuSans-30" x="159.033203"/>
      </g>
     </g>
    </g>
    <g id="xtick_6">
     <g id="line2d_11">
      <path d="M 345.927273 512.64 
L 345.927273 69.12 
" clip-path="url(#p2f7229526f)" style="fill: none; stroke: #b0b0b0; stroke-width: 0.8; stroke-linecap: square"/>
     </g>
     <g id="line2d_12">
      <g>
       <use xlink:href="#m4f8b51aa2b" x="345.927273" y="512.64" style="stroke: #000000; stroke-width: 0.8"/>
      </g>
     </g>
     <g id="text_6">
      <!-- 0.25 -->
      <g transform="translate(334.79446 527.238438)scale(0.1 -0.1)">
       <use xlink:href="#DejaVuSans-30"/>
       <use xlink:href="#DejaVuSans-2e" x="63.623047"/>
       <use xlink:href="#DejaVuSans-32" x="95.410156"/>
       <use xlink:href="#DejaVuSans-35" x="159.033203"/>
      </g>
     </g>
    </g>
    <g id="xtick_7">
     <g id="line2d_13">
      <path d="M 396.654545 512.64 
L 396.654545 69.12 
" clip-path="url(#p2f7229526f)" style="fill: none; stroke: #b0b0b0; stroke-width: 0.8; stroke-linecap: square"/>
     </g>
     <g id="line2d_14">
      <g>
       <use xlink:href="#m4f8b51aa2b" x="396.654545" y="512.64" style="stroke: #000000; stroke-width: 0.8"/>
      </g>
     </g>
     <g id="text_7">
      <!-- 0.50 -->
      <g transform="translate(385.521733 527.238438)scale(0.1 -0.1)">
       <use xlink:href="#DejaVuSans-30"/>
       <use xlink:href="#DejaVuSans-2e" x="63.623047"/>
       <use xlink:href="#DejaVuSans-35" x="95.410156"/>
       <use xlink:href="#DejaVuSans-30" x="159.033203"/>
      </g>
     </g>
    </g>
    <g id="xtick_8">
     <g id="line2d_15">
      <path d="M 447.381818 512.64 
L 447.381818 69.12 
" clip-path="url(#p2f7229526f)" style="fill: none; stroke: #b0b0b0; stroke-width: 0.8; stroke-linecap: square"/>
     </g>
     <g id="line2d_16">
      <g>
       <use xlink:href="#m4f8b51aa2b" x="447.381818" y="512.64" style="stroke: #000000; stroke-width: 0.8"/>
      </g>
     </g>
     <g id="text_8">
      <!-- 0.75 -->
      <g transform="translate(436.249006 527.238438)scale(0.1 -0.1)">
       <use xlink:href="#DejaVuSans-30"/>
       <use xlink:href="#DejaVuSans-2e" x="63.623047"/>
       <use xlink:href="#DejaVuSans-37" x="95.410156"/>
       <use xlink:href="#DejaVuSans-35" x="159.033203"/>
      </g>
     </g>
    </g>
    <g id="xtick_9">
     <g id="line2d_17">
      <path d="M 498.109091 512.64 
L 498.109091 69.12 
" clip-path="url(#p2f7229526f)" style="fill: none; stroke: #b0b0b0; stroke-width: 0.8; stroke-linecap: square"/>
     </g>
     <g id="line2d_18">
      <g>
       <use xlink:href="#m4f8b51aa2b" x="498.109091" y="512.64" style="stroke: #000000; stroke-width: 0.8"/>
      </g>
     </g>
     <g id="text_9">
      <!-- 1.00 -->
      <g transform="translate(486.976278 527.238438)scale(0.1 -0.1)">
       <use xlink:href="#DejaVuSans-31"/>
       <use xlink:href="#DejaVuSans-2e" x="63.623047"/>
       <use xlink:href="#DejaVuSans-30" x="95.410156"/>
       <use xlink:href="#DejaVuSans-30" x="159.033203"/>
      </g>
     </g>
    </g>
    <g id="text_10">
     <!-- x -->
     <g transform="translate(292.240625 540.916563)scale(0.1 -0.1)">
      <defs>
       <path id="DejaVuSans-78" d="M 3513 3500 
L 2247 1797 
L 3578 0 
L 2900 0 
L 1881 1375 
L 863 0 
L 184 0 
L 1544 1831 
L 300 3500 
L 978 3500 
L 1906 2253 
L 2834 3500 
L 3513 3500 
z
" transform="scale(0.015625)"/>
      </defs>
      <use xlink:href="#DejaVuSans-78"/>
     </g>
    </g>
   </g>
   <g id="matplotlib.axis_2">
    <g id="ytick_1">
     <g id="line2d_19">
      <path d="M 72 471.5136 
L 518.4 471.5136 
" clip-path="url(#p2f7229526f)" style="fill: none; stroke: #b0b0b0; stroke-width: 0.8; stroke-linecap: square"/>
     </g>
     <g id="line2d_20">
      <defs>
       <path id="m6cb2e92da6" d="M 0 0 
L -3.5 0 
" style="stroke: #000000; stroke-width: 0.8"/>
      </defs>
      <g>
       <use xlink:href="#m6cb2e92da6" x="72" y="471.5136" style="stroke: #000000; stroke-width: 0.8"/>
      </g>
     </g>
     <g id="text_11">
      <!-- −0.2 -->
      <g transform="translate(40.717187 475.312819)scale(0.1 -0.1)">
       <use xlink:href="#DejaVuSans-2212"/>
       <use xlink:href="#DejaVuSans-30" x="83.789062"/>
       <use xlink:href="#DejaVuSans-2e" x="147.412109"/>
       <use xlink:href="#DejaVuSans-32" x="179.199219"/>
      </g>
     </g>
    </g>
    <g id="ytick_2">
     <g id="line2d_21">
      <path d="M 72 407.808 
L 518.4 407.808 
" clip-path="url(#p2f7229526f)" style="fill: none; stroke: #b0b0b0; stroke-width: 0.8; stroke-linecap: square"/>
     </g>
     <g id="line2d_22">
      <g>
       <use xlink:href="#m6cb2e92da6" x="72" y="407.808" style="stroke: #000000; stroke-width: 0.8"/>
      </g>
     </g>
     <g id="text_12">
      <!-- 0.0 -->
      <g transform="translate(49.096875 411.607219)scale(0.1 -0.1)">
       <use xlink:href="#DejaVuSans-30"/>
       <use xlink:href="#DejaVuSans-2e" x="63.623047"/>
       <use xlink:href="#DejaVuSans-30" x="95.410156"/>
      </g>
     </g>
    </g>
    <g id="ytick_3">
     <g id="line2d_23">
      <path d="M 72 344.1024 
L 518.4 344.1024 
" clip-path="url(#p2f7229526f)" style="fill: none; stroke: #b0b0b0; stroke-width: 0.8; stroke-linecap: square"/>
     </g>
     <g id="line2d_24">
      <g>
       <use xlink:href="#m6cb2e92da6" x="72" y="344.1024" style="stroke: #000000; stroke-width: 0.8"/>
      </g>
     </g>
     <g id="text_13">
      <!-- 0.2 -->
      <g transform="translate(49.096875 347.901619)scale(0.1 -0.1)">
       <use xlink:href="#DejaVuSans-30"/>
       <use xlink:href="#DejaVuSans-2e" x="63.623047"/>
       <use xlink:href="#DejaVuSans-32" x="95.410156"/>
      </g>
     </g>
    </g>
    <g id="ytick_4">
     <g id="line2d_25">
      <path d="M 72 280.3968 
L 518.4 280.3968 
" clip-path="url(#p2f7229526f)" style="fill: none; stroke: #b0b0b0; stroke-width: 0.8; stroke-linecap: square"/>
     </g>
     <g id="line2d_26">
      <g>
       <use xlink:href="#m6cb2e92da6" x="72" y="280.3968" style="stroke: #000000; stroke-width: 0.8"/>
      </g>
     </g>
     <g id="text_14">
      <!-- 0.4 -->
      <g transform="translate(49.096875 284.196019)scale(0.1 -0.1)">
       <defs>
        <path id="DejaVuSans-34" d="M 2419 4116 
L 825 1625 
L 2419 1625 
L 2419 4116 
z
M 2253 4666 
L 3047 4666 
L 3047 1625 
L 3713 1625 
L 3713 1100 
L 3047 1100 
L 3047 0 
L 2419 0 
L 2419 1100 
L 313 1100 
L 313 1709 
L 2253 4666 
z
" transform="scale(0.015625)"/>
       </defs>
       <use xlink:href="#DejaVuSans-30"/>
       <use xlink:href="#DejaVuSans-2e" x="63.623047"/>
       <use xlink:href="#DejaVuSans-34" x="95.410156"/>
      </g>
     </g>
    </g>
    <g id="ytick_5">
     <g id="line2d_27">
      <path d="M 72 216.6912 
L 518.4 216.6912 
" clip-path="url(#p2f7229526f)" style="fill: none; stroke: #b0b0b0; stroke-width: 0.8; stroke-linecap: square"/>
     </g>
     <g id="line2d_28">
      <g>
       <use xlink:href="#m6cb2e92da6" x="72" y="216.6912" style="stroke: #000000; stroke-width: 0.8"/>
      </g>
     </g>
     <g id="text_15">
      <!-- 0.6 -->
      <g transform="translate(49.096875 220.490419)scale(0.1 -0.1)">
       <defs>
        <path id="DejaVuSans-36" d="M 2113 2584 
Q 1688 2584 1439 2293 
Q 1191 2003 1191 1497 
Q 1191 994 1439 701 
Q 1688 409 2113 409 
Q 2538 409 2786 701 
Q 3034 994 3034 1497 
Q 3034 2003 2786 2293 
Q 2538 2584 2113 2584 
z
M 3366 4563 
L 3366 3988 
Q 3128 4100 2886 4159 
Q 2644 4219 2406 4219 
Q 1781 4219 1451 3797 
Q 1122 3375 1075 2522 
Q 1259 2794 1537 2939 
Q 1816 3084 2150 3084 
Q 2853 3084 3261 2657 
Q 3669 2231 3669 1497 
Q 3669 778 3244 343 
Q 2819 -91 2113 -91 
Q 1303 -91 875 529 
Q 447 1150 447 2328 
Q 447 3434 972 4092 
Q 1497 4750 2381 4750 
Q 2619 4750 2861 4703 
Q 3103 4656 3366 4563 
z
" transform="scale(0.015625)"/>
       </defs>
       <use xlink:href="#DejaVuSans-30"/>
       <use xlink:href="#DejaVuSans-2e" x="63.623047"/>
       <use xlink:href="#DejaVuSans-36" x="95.410156"/>
      </g>
     </g>
    </g>
    <g id="ytick_6">
     <g id="line2d_29">
      <path d="M 72 152.9856 
L 518.4 152.9856 
" clip-path="url(#p2f7229526f)" style="fill: none; stroke: #b0b0b0; stroke-width: 0.8; stroke-linecap: square"/>
     </g>
     <g id="line2d_30">
      <g>
       <use xlink:href="#m6cb2e92da6" x="72" y="152.9856" style="stroke: #000000; stroke-width: 0.8"/>
      </g>
     </g>
     <g id="text_16">
      <!-- 0.8 -->
      <g transform="translate(49.096875 156.784819)scale(0.1 -0.1)">
       <defs>
        <path id="DejaVuSans-38" d="M 2034 2216 
Q 1584 2216 1326 1975 
Q 1069 1734 1069 1313 
Q 1069 891 1326 650 
Q 1584 409 2034 409 
Q 2484 409 2743 651 
Q 3003 894 3003 1313 
Q 3003 1734 2745 1975 
Q 2488 2216 2034 2216 
z
M 1403 2484 
Q 997 2584 770 2862 
Q 544 3141 544 3541 
Q 544 4100 942 4425 
Q 1341 4750 2034 4750 
Q 2731 4750 3128 4425 
Q 3525 4100 3525 3541 
Q 3525 3141 3298 2862 
Q 3072 2584 2669 2484 
Q 3125 2378 3379 2068 
Q 3634 1759 3634 1313 
Q 3634 634 3220 271 
Q 2806 -91 2034 -91 
Q 1263 -91 848 271 
Q 434 634 434 1313 
Q 434 1759 690 2068 
Q 947 2378 1403 2484 
z
M 1172 3481 
Q 1172 3119 1398 2916 
Q 1625 2713 2034 2713 
Q 2441 2713 2670 2916 
Q 2900 3119 2900 3481 
Q 2900 3844 2670 4047 
Q 2441 4250 2034 4250 
Q 1625 4250 1398 4047 
Q 1172 3844 1172 3481 
z
" transform="scale(0.015625)"/>
       </defs>
       <use xlink:href="#DejaVuSans-30"/>
       <use xlink:href="#DejaVuSans-2e" x="63.623047"/>
       <use xlink:href="#DejaVuSans-38" x="95.410156"/>
      </g>
     </g>
    </g>
    <g id="ytick_7">
     <g id="line2d_31">
      <path d="M 72 89.28 
L 518.4 89.28 
" clip-path="url(#p2f7229526f)" style="fill: none; stroke: #b0b0b0; stroke-width: 0.8; stroke-linecap: square"/>
     </g>
     <g id="line2d_32">
      <g>
       <use xlink:href="#m6cb2e92da6" x="72" y="89.28" style="stroke: #000000; stroke-width: 0.8"/>
      </g>
     </g>
     <g id="text_17">
      <!-- 1.0 -->
      <g transform="translate(49.096875 93.079219)scale(0.1 -0.1)">
       <use xlink:href="#DejaVuSans-31"/>
       <use xlink:href="#DejaVuSans-2e" x="63.623047"/>
       <use xlink:href="#DejaVuSans-30" x="95.410156"/>
      </g>
     </g>
    </g>
    <g id="text_18">
     <!-- y -->
     <g transform="translate(34.6375 293.839375)rotate(-90)scale(0.1 -0.1)">
      <defs>
       <path id="DejaVuSans-79" d="M 2059 -325 
Q 1816 -950 1584 -1140 
Q 1353 -1331 966 -1331 
L 506 -1331 
L 506 -850 
L 844 -850 
Q 1081 -850 1212 -737 
Q 1344 -625 1503 -206 
L 1606 56 
L 191 3500 
L 800 3500 
L 1894 763 
L 2988 3500 
L 3597 3500 
L 2059 -325 
z
" transform="scale(0.015625)"/>
      </defs>
      <use xlink:href="#DejaVuSans-79"/>
     </g>
    </g>
   </g>
   <g id="line2d_33">
    <path d="M 92.290909 395.556923 
L 104.465455 394.012937 
L 114.610909 392.495994 
L 124.756364 390.719588 
L 132.872727 389.071059 
L 140.989091 387.177948 
L 147.076364 385.568307 
L 153.163636 383.768151 
L 159.250909 381.74721 
L 165.338182 379.46921 
L 171.425455 376.890456 
L 175.483636 374.978523 
L 179.541818 372.891256 
L 183.6 370.60765 
L 187.658182 368.103668 
L 191.716364 365.351752 
L 195.774545 362.320246 
L 199.832727 358.972737 
L 203.890909 355.267299 
L 207.949091 351.155621 
L 212.007273 346.582051 
L 216.065455 341.482545 
L 220.123636 335.783579 
L 224.181818 329.401108 
L 228.24 322.239699 
L 232.298182 314.192129 
L 234.327273 309.799385 
L 236.356364 305.139829 
L 238.385455 300.197189 
L 240.414545 294.954856 
L 242.443636 289.396104 
L 244.472727 283.50439 
L 246.501818 277.263738 
L 250.56 263.677683 
L 254.618182 248.544 
L 258.676364 231.82568 
L 262.734545 213.58361 
L 266.792727 194.030819 
L 278.967273 133.214897 
L 280.996364 124.041408 
L 283.025455 115.580477 
L 285.054545 108.016941 
L 287.083636 101.531077 
L 289.112727 96.289174 
L 291.141818 92.433743 
L 293.170909 90.074334 
L 295.2 89.28 
L 297.229091 90.074334 
L 299.258182 92.433743 
L 301.287273 96.289174 
L 303.316364 101.531077 
L 305.345455 108.016941 
L 307.374545 115.580477 
L 309.403636 124.041408 
L 311.432727 133.214897 
L 315.490909 152.9856 
L 325.636364 203.95008 
L 329.694545 222.886084 
L 333.752727 240.381982 
L 337.810909 256.308357 
L 341.869091 270.659238 
L 345.927273 283.50439 
L 349.985455 294.954856 
L 354.043636 305.139829 
L 358.101818 314.192129 
L 362.16 322.239699 
L 366.218182 329.401108 
L 370.276364 335.783579 
L 374.334545 341.482545 
L 378.392727 346.582051 
L 382.450909 351.155621 
L 386.509091 355.267299 
L 390.567273 358.972737 
L 394.625455 362.320246 
L 398.683636 365.351752 
L 402.741818 368.103668 
L 406.8 370.60765 
L 410.858182 372.891256 
L 414.916364 374.978523 
L 421.003636 377.786511 
L 427.090909 380.259632 
L 433.178182 382.44749 
L 439.265455 384.391128 
L 445.352727 386.124678 
L 453.469091 388.157907 
L 461.585455 389.923216 
L 469.701818 391.46485 
L 479.847273 393.130981 
L 489.992727 394.558083 
L 498.109091 395.556923 
L 498.109091 395.556923 
" clip-path="url(#p2f7229526f)" style="fill: none; stroke: #ff0000; stroke-width: 2.5; stroke-linecap: square"/>
   </g>
   <g id="line2d_34">
    <path d="M 92.290909 492.48 
L 98.378182 468.65088 
L 104.465455 445.54752 
L 110.552727 423.16992 
L 116.64 401.51808 
L 122.727273 380.592 
L 128.814545 360.39168 
L 134.901818 340.91712 
L 140.989091 322.16832 
L 147.076364 304.14528 
L 153.163636 286.848 
L 159.250909 270.27648 
L 165.338182 254.43072 
L 171.425455 239.31072 
L 177.512727 224.91648 
L 183.6 211.248 
L 189.687273 198.30528 
L 195.774545 186.08832 
L 199.832727 178.34688 
L 203.890909 170.928 
L 207.949091 163.83168 
L 212.007273 157.05792 
L 216.065455 150.60672 
L 220.123636 144.47808 
L 224.181818 138.672 
L 228.24 133.18848 
L 232.298182 128.02752 
L 236.356364 123.18912 
L 240.414545 118.67328 
L 244.472727 114.48 
L 248.530909 110.60928 
L 252.589091 107.06112 
L 256.647273 103.83552 
L 260.705455 100.93248 
L 264.763636 98.352 
L 268.821818 96.09408 
L 272.88 94.15872 
L 276.938182 92.54592 
L 280.996364 91.25568 
L 285.054545 90.288 
L 289.112727 89.64288 
L 293.170909 89.32032 
L 297.229091 89.32032 
L 301.287273 89.64288 
L 305.345455 90.288 
L 309.403636 91.25568 
L 313.461818 92.54592 
L 317.52 94.15872 
L 321.578182 96.09408 
L 325.636364 98.352 
L 329.694545 100.93248 
L 333.752727 103.83552 
L 337.810909 107.06112 
L 341.869091 110.60928 
L 345.927273 114.48 
L 349.985455 118.67328 
L 354.043636 123.18912 
L 358.101818 128.02752 
L 362.16 133.18848 
L 366.218182 138.672 
L 370.276364 144.47808 
L 374.334545 150.60672 
L 378.392727 157.05792 
L 382.450909 163.83168 
L 386.509091 170.928 
L 390.567273 178.34688 
L 394.625455 186.08832 
L 400.712727 198.30528 
L 406.8 211.248 
L 412.887273 224.91648 
L 418.974545 239.31072 
L 425.061818 254.43072 
L 431.149091 270.27648 
L 437.236364 286.848 
L 443.323636 304.14528 
L 449.410909 322.16832 
L 455.498182 340.91712 
L 461.585455 360.39168 
L 467.672727 380.592 
L 473.76 401.51808 
L 479.847273 423.16992 
L 485.934545 445.54752 
L 492.021818 468.65088 
L 498.109091 492.48 
L 498.109091 492.48 
" clip-path="url(#p2f7229526f)" style="fill: none; stroke: #1f77b4; stroke-width: 1.5; stroke-linecap: square"/>
   </g>
   <g id="line2d_35">
    <path d="M 92.290909 388.746411 
L 94.32 390.731443 
L 96.349091 392.519708 
L 98.378182 394.116563 
L 100.407273 395.527314 
L 102.436364 396.757208 
L 104.465455 397.811441 
L 106.494545 398.695153 
L 108.523636 399.41343 
L 110.552727 399.971305 
L 112.581818 400.373753 
L 114.610909 400.6257 
L 116.64 400.732012 
L 118.669091 400.697504 
L 120.698182 400.526935 
L 122.727273 400.225012 
L 124.756364 399.796384 
L 126.785455 399.24565 
L 130.843636 397.795972 
L 134.901818 395.911662 
L 138.96 393.627535 
L 143.018182 390.977534 
L 147.076364 387.994733 
L 151.134545 384.711335 
L 155.192727 381.158672 
L 159.250909 377.367206 
L 165.338182 371.296747 
L 171.425455 364.851561 
L 179.541818 355.833095 
L 189.687273 344.16356 
L 205.92 325.433611 
L 214.036364 316.398499 
L 220.123636 309.889995 
L 226.210909 303.674296 
L 232.298182 297.803542 
L 238.385455 292.325466 
L 242.443636 288.913146 
L 246.501818 285.706448 
L 250.56 282.716249 
L 254.618182 279.952558 
L 258.676364 277.424516 
L 262.734545 275.140389 
L 266.792727 273.107576 
L 270.850909 271.332604 
L 274.909091 269.821131 
L 278.967273 268.577944 
L 283.025455 267.606958 
L 287.083636 266.911222 
L 291.141818 266.492909 
L 295.2 266.353327 
L 299.258182 266.492909 
L 303.316364 266.911222 
L 307.374545 267.606958 
L 311.432727 268.577944 
L 315.490909 269.821131 
L 319.549091 271.332604 
L 323.607273 273.107576 
L 327.665455 275.140389 
L 331.723636 277.424516 
L 335.781818 279.952558 
L 339.84 282.716249 
L 343.898182 285.706448 
L 347.956364 288.913146 
L 352.014545 292.325466 
L 358.101818 297.803542 
L 364.189091 303.674296 
L 370.276364 309.889995 
L 376.363636 316.398499 
L 384.48 325.433611 
L 394.625455 337.093354 
L 410.858182 355.833095 
L 418.974545 364.851561 
L 425.061818 371.296747 
L 431.149091 377.367206 
L 435.207273 381.158672 
L 439.265455 384.711335 
L 443.323636 387.994733 
L 447.381818 390.977534 
L 451.44 393.627535 
L 455.498182 395.911662 
L 459.556364 397.795972 
L 463.614545 399.24565 
L 465.643636 399.796384 
L 467.672727 400.225012 
L 469.701818 400.526935 
L 471.730909 400.697504 
L 473.76 400.732012 
L 475.789091 400.6257 
L 477.818182 400.373753 
L 479.847273 399.971305 
L 481.876364 399.41343 
L 483.905455 398.695153 
L 485.934545 397.811441 
L 487.963636 396.757208 
L 489.992727 395.527314 
L 492.021818 394.116563 
L 494.050909 392.519708 
L 496.08 390.731443 
L 498.109091 388.746411 
L 498.109091 388.746411 
" clip-path="url(#p2f7229526f)" style="fill: none; stroke: #ff7f0e; stroke-width: 1.5; stroke-linecap: square"/>
   </g>
   <g id="line2d_36">
    <path d="M 92.290909 374.47613 
L 94.32 389.092321 
L 96.349091 400.014591 
L 98.378182 407.75393 
L 100.407273 412.776381 
L 102.436364 415.505634 
L 104.465455 416.325526 
L 106.494545 415.582438 
L 108.523636 413.587605 
L 110.552727 410.619337 
L 112.581818 406.925146 
L 114.610909 402.72379 
L 118.669091 393.54251 
L 122.727273 384.322852 
L 124.756364 379.993172 
L 126.785455 375.969055 
L 128.814545 372.318341 
L 130.843636 369.093592 
L 132.872727 366.333442 
L 134.901818 364.063887 
L 136.930909 362.299505 
L 138.96 361.044621 
L 140.989091 360.294399 
L 143.018182 360.035888 
L 145.047273 360.248996 
L 147.076364 360.907419 
L 149.105455 361.979512 
L 151.134545 363.429103 
L 153.163636 365.216264 
L 155.192727 367.298025 
L 157.221818 369.629044 
L 161.28 374.849338 
L 173.454545 391.480811 
L 175.483636 393.898204 
L 177.512727 396.097285 
L 179.541818 398.038701 
L 181.570909 399.685595 
L 183.6 401.003787 
L 185.629091 401.961933 
L 187.658182 402.531659 
L 189.687273 402.687663 
L 191.716364 402.407801 
L 193.745455 401.673146 
L 195.774545 400.468027 
L 197.803636 398.780048 
L 199.832727 396.600087 
L 201.861818 393.922278 
L 203.890909 390.743975 
L 205.92 387.065703 
L 207.949091 382.891091 
L 209.978182 378.226793 
L 212.007273 373.082397 
L 214.036364 367.47032 
L 216.065455 361.405695 
L 218.094545 354.906246 
L 222.152727 340.685921 
L 226.210909 324.997724 
L 230.269091 308.062237 
L 234.327273 290.127076 
L 240.414545 261.943452 
L 254.618182 195.323525 
L 258.676364 177.41035 
L 262.734545 160.524803 
L 266.792727 144.93377 
L 268.821818 137.701658 
L 270.850909 130.883828 
L 272.88 124.507266 
L 274.909091 118.597213 
L 276.938182 113.177057 
L 278.967273 108.268247 
L 280.996364 103.890205 
L 283.025455 100.060249 
L 285.054545 96.793529 
L 287.083636 94.102961 
L 289.112727 91.999186 
L 291.141818 90.490521 
L 293.170909 89.58293 
L 295.2 89.28 
L 297.229091 89.58293 
L 299.258182 90.490521 
L 301.287273 91.999186 
L 303.316364 94.102961 
L 305.345455 96.793529 
L 307.374545 100.060249 
L 309.403636 103.890205 
L 311.432727 108.268247 
L 313.461818 113.177057 
L 315.490909 118.597213 
L 317.52 124.507266 
L 319.549091 130.883828 
L 321.578182 137.701658 
L 325.636364 152.551536 
L 329.694545 168.822016 
L 333.752727 186.255839 
L 337.810909 204.577599 
L 343.898182 233.090589 
L 354.043636 280.868063 
L 358.101818 299.20323 
L 362.16 316.670987 
L 366.218182 333.012216 
L 370.276364 347.992154 
L 372.305455 354.906246 
L 374.334545 361.405695 
L 376.363636 367.47032 
L 378.392727 373.082397 
L 380.421818 378.226793 
L 382.450909 382.891091 
L 384.48 387.065703 
L 386.509091 390.743975 
L 388.538182 393.922278 
L 390.567273 396.600087 
L 392.596364 398.780048 
L 394.625455 400.468027 
L 396.654545 401.673146 
L 398.683636 402.407801 
L 400.712727 402.687663 
L 402.741818 402.531659 
L 404.770909 401.961933 
L 406.8 401.003787 
L 408.829091 399.685595 
L 410.858182 398.038701 
L 412.887273 396.097285 
L 414.916364 393.898204 
L 416.945455 391.480811 
L 421.003636 386.159646 
L 431.149091 372.162235 
L 433.178182 369.629044 
L 435.207273 367.298025 
L 437.236364 365.216264 
L 439.265455 363.429103 
L 441.294545 361.979512 
L 443.323636 360.907419 
L 445.352727 360.248996 
L 447.381818 360.035888 
L 449.410909 360.294399 
L 451.44 361.044621 
L 453.469091 362.299505 
L 455.498182 364.063887 
L 457.527273 366.333442 
L 459.556364 369.093592 
L 461.585455 372.318341 
L 463.614545 375.969055 
L 465.643636 379.993172 
L 469.701818 388.873547 
L 475.789091 402.72379 
L 477.818182 406.925146 
L 479.847273 410.619337 
L 481.876364 413.587605 
L 483.905455 415.582438 
L 485.934545 416.325526 
L 487.963636 415.505634 
L 489.992727 412.776381 
L 492.021818 407.75393 
L 494.050909 400.014591 
L 496.08 389.092321 
L 498.109091 374.47613 
L 498.109091 374.47613 
" clip-path="url(#p2f7229526f)" style="fill: none; stroke: #2ca02c; stroke-width: 1.5; stroke-linecap: square"/>
   </g>
   <g id="line2d_37">
    <path d="M 92.290909 393.668118 
L 94.32 397.197081 
L 96.349091 396.003567 
L 98.378182 393.983509 
L 100.407273 392.698725 
L 102.436364 392.454954 
L 104.465455 392.980782 
L 108.523636 394.590325 
L 110.552727 394.987815 
L 112.581818 394.896079 
L 114.610909 394.32172 
L 116.64 393.365136 
L 122.727273 389.763619 
L 124.756364 388.80191 
L 126.785455 388.113424 
L 128.814545 387.722079 
L 130.843636 387.609103 
L 132.872727 387.721437 
L 140.989091 388.771829 
L 143.018182 388.770026 
L 145.047273 388.541175 
L 147.076364 388.060278 
L 149.105455 387.32478 
L 151.134545 386.352811 
L 153.163636 385.179931 
L 157.221818 382.434335 
L 163.309091 378.187948 
L 165.338182 376.948067 
L 167.367273 375.856372 
L 169.396364 374.929363 
L 171.425455 374.169053 
L 173.454545 373.563332 
L 177.512727 372.704672 
L 183.6 371.64986 
L 185.629091 371.157106 
L 187.658182 370.510339 
L 189.687273 369.666797 
L 191.716364 368.591723 
L 193.745455 367.259926 
L 195.774545 365.656764 
L 197.803636 363.778502 
L 199.832727 361.632063 
L 201.861818 359.234211 
L 203.890909 356.610213 
L 207.949091 350.816451 
L 212.007273 344.548464 
L 224.181818 325.419474 
L 230.269091 315.999764 
L 234.327273 309.2776 
L 236.356364 305.618292 
L 238.385455 301.673953 
L 240.414545 297.377919 
L 242.443636 292.665163 
L 244.472727 287.475106 
L 246.501818 281.754378 
L 248.530909 275.45947 
L 250.56 268.559153 
L 252.589091 261.036599 
L 254.618182 252.891122 
L 256.647273 244.139466 
L 260.705455 224.976036 
L 264.763636 204.045971 
L 274.909091 149.601292 
L 276.938182 139.43297 
L 278.967273 129.848918 
L 280.996364 120.994111 
L 283.025455 113.00612 
L 285.054545 106.011816 
L 287.083636 100.124309 
L 289.112727 95.440195 
L 291.141818 92.037189 
L 293.170909 89.972215 
L 295.2 89.28 
L 297.229091 89.972215 
L 299.258182 92.037189 
L 301.287273 95.440195 
L 303.316364 100.124309 
L 305.345455 106.011816 
L 307.374545 113.00612 
L 309.403636 120.994111 
L 311.432727 129.848918 
L 313.461818 139.43297 
L 317.52 160.204927 
L 329.694545 224.976036 
L 333.752727 244.139466 
L 335.781818 252.891122 
L 337.810909 261.036599 
L 339.84 268.559153 
L 341.869091 275.45947 
L 343.898182 281.754378 
L 345.927273 287.475106 
L 347.956364 292.665163 
L 349.985455 297.377919 
L 352.014545 301.673953 
L 354.043636 305.618292 
L 358.101818 312.717452 
L 362.16 319.180473 
L 374.334545 338.102151 
L 382.450909 350.816451 
L 386.509091 356.610213 
L 388.538182 359.234211 
L 390.567273 361.632063 
L 392.596364 363.778502 
L 394.625455 365.656764 
L 396.654545 367.259926 
L 398.683636 368.591723 
L 400.712727 369.666797 
L 402.741818 370.510339 
L 404.770909 371.157106 
L 408.829091 372.037269 
L 414.916364 373.087192 
L 416.945455 373.563332 
L 418.974545 374.169053 
L 421.003636 374.929363 
L 423.032727 375.856372 
L 425.061818 376.948067 
L 429.12 379.545638 
L 437.236364 385.179931 
L 439.265455 386.352811 
L 441.294545 387.32478 
L 443.323636 388.060278 
L 445.352727 388.541175 
L 447.381818 388.770026 
L 449.410909 388.771829 
L 451.44 388.593868 
L 457.527273 387.721437 
L 459.556364 387.609103 
L 461.585455 387.722079 
L 463.614545 388.113424 
L 465.643636 388.80191 
L 467.672727 389.763619 
L 475.789091 394.32172 
L 477.818182 394.896079 
L 479.847273 394.987815 
L 481.876364 394.590325 
L 485.934545 392.980782 
L 487.963636 392.454954 
L 489.992727 392.698725 
L 492.021818 393.983509 
L 494.050909 396.003567 
L 496.08 397.197081 
L 498.109091 393.668118 
L 498.109091 393.668118 
" clip-path="url(#p2f7229526f)" style="fill: none; stroke: #d62728; stroke-width: 1.5; stroke-linecap: square"/>
   </g>
   <g id="line2d_38">
    <path d="M 92.290909 395.521419 
L 106.494545 393.764369 
L 118.669091 391.846196 
L 124.756364 390.72158 
L 138.96 387.721385 
L 145.047273 386.106499 
L 155.192727 383.130251 
L 159.250909 381.796145 
L 163.309091 380.294495 
L 169.396364 377.745776 
L 175.483636 374.940645 
L 179.541818 372.906418 
L 183.6 370.664027 
L 187.658182 368.151871 
L 191.716364 365.348705 
L 195.774545 362.266049 
L 199.832727 358.91047 
L 203.890909 355.247848 
L 207.949091 351.196948 
L 212.007273 346.654736 
L 216.065455 341.531858 
L 220.123636 335.77062 
L 224.181818 329.332219 
L 228.24 322.16279 
L 232.298182 314.162774 
L 234.327273 309.805682 
L 236.356364 305.181429 
L 238.385455 300.267231 
L 240.414545 295.041155 
L 242.443636 289.483336 
L 244.472727 283.576859 
L 246.501818 277.308239 
L 250.56 263.647872 
L 254.618182 248.459036 
L 258.676364 231.742371 
L 262.734545 213.556554 
L 266.792727 194.074237 
L 278.967273 133.223901 
L 280.996364 124.026095 
L 283.025455 115.548521 
L 285.054545 107.978411 
L 287.083636 101.495658 
L 289.112727 96.263645 
L 291.141818 92.420377 
L 293.170909 90.070664 
L 295.2 89.28 
L 297.229091 90.070664 
L 299.258182 92.420377 
L 301.287273 96.263645 
L 303.316364 101.495658 
L 305.345455 107.978411 
L 307.374545 115.548521 
L 309.403636 124.026095 
L 311.432727 133.223901 
L 315.490909 153.046319 
L 325.636364 203.959798 
L 329.694545 222.825953 
L 333.752727 240.289803 
L 337.810909 256.245494 
L 341.869091 270.667491 
L 345.927273 283.576859 
L 347.956364 289.483336 
L 349.985455 295.041155 
L 352.014545 300.267231 
L 356.072727 309.805682 
L 360.130909 318.274985 
L 364.189091 325.843813 
L 368.247273 332.638637 
L 372.305455 338.733555 
L 376.363636 344.170229 
L 380.421818 348.993514 
L 384.48 353.277302 
L 388.538182 357.121688 
L 392.596364 360.623298 
L 396.654545 363.841272 
L 400.712727 366.78635 
L 404.770909 369.444062 
L 408.829091 371.815831 
L 412.887273 373.944797 
L 418.974545 376.836834 
L 425.061818 379.479657 
L 429.12 381.067508 
L 433.178182 382.481836 
L 439.265455 384.351837 
L 449.410909 387.211733 
L 455.498182 388.637762 
L 469.701818 391.505558 
L 481.876364 393.4606 
L 485.934545 394.018093 
L 489.992727 394.536069 
L 494.050909 395.084708 
L 498.109091 395.521419 
L 498.109091 395.521419 
" clip-path="url(#p2f7229526f)" style="fill: none; stroke: #9467bd; stroke-width: 1.5; stroke-linecap: square"/>
   </g>
   <g id="patch_3">
    <path d="M 72 512.64 
L 72 69.12 
" style="fill: none; stroke: #000000; stroke-width: 0.8; stroke-linejoin: miter; stroke-linecap: square"/>
   </g>
   <g id="patch_4">
    <path d="M 518.4 512.64 
L 518.4 69.12 
" style="fill: none; stroke: #000000; stroke-width: 0.8; stroke-linejoin: miter; stroke-linecap: square"/>
   </g>
   <g id="patch_5">
    <path d="M 72 512.64 
L 518.4 512.64 
" style="fill: none; stroke: #000000; stroke-width: 0.8; stroke-linejoin: miter; stroke-linecap: square"/>
   </g>
   <g id="patch_6">
    <path d="M 72 69.12 
L 518.4 69.12 
" style="fill: none; stroke: #000000; stroke-width: 0.8; stroke-linejoin: miter; stroke-linecap: square"/>
   </g>
   <g id="text_19">
    <!-- Wielomiany interpolacyjne dla funkcji -->
    <g transform="translate(182.650312 46.416375)scale(0.12 -0.12)">
     <defs>
      <path id="DejaVuSans-57" d="M 213 4666 
L 850 4666 
L 1831 722 
L 2809 4666 
L 3519 4666 
L 4500 722 
L 5478 4666 
L 6119 4666 
L 4947 0 
L 4153 0 
L 3169 4050 
L 2175 0 
L 1381 0 
L 213 4666 
z
" transform="scale(0.015625)"/>
      <path id="DejaVuSans-69" d="M 603 3500 
L 1178 3500 
L 1178 0 
L 603 0 
L 603 3500 
z
M 603 4863 
L 1178 4863 
L 1178 4134 
L 603 4134 
L 603 4863 
z
" transform="scale(0.015625)"/>
      <path id="DejaVuSans-65" d="M 3597 1894 
L 3597 1613 
L 953 1613 
Q 991 1019 1311 708 
Q 1631 397 2203 397 
Q 2534 397 2845 478 
Q 3156 559 3463 722 
L 3463 178 
Q 3153 47 2828 -22 
Q 2503 -91 2169 -91 
Q 1331 -91 842 396 
Q 353 884 353 1716 
Q 353 2575 817 3079 
Q 1281 3584 2069 3584 
Q 2775 3584 3186 3129 
Q 3597 2675 3597 1894 
z
M 3022 2063 
Q 3016 2534 2758 2815 
Q 2500 3097 2075 3097 
Q 1594 3097 1305 2825 
Q 1016 2553 972 2059 
L 3022 2063 
z
" transform="scale(0.015625)"/>
      <path id="DejaVuSans-6c" d="M 603 4863 
L 1178 4863 
L 1178 0 
L 603 0 
L 603 4863 
z
" transform="scale(0.015625)"/>
      <path id="DejaVuSans-6f" d="M 1959 3097 
Q 1497 3097 1228 2736 
Q 959 2375 959 1747 
Q 959 1119 1226 758 
Q 1494 397 1959 397 
Q 2419 397 2687 759 
Q 2956 1122 2956 1747 
Q 2956 2369 2687 2733 
Q 2419 3097 1959 3097 
z
M 1959 3584 
Q 2709 3584 3137 3096 
Q 3566 2609 3566 1747 
Q 3566 888 3137 398 
Q 2709 -91 1959 -91 
Q 1206 -91 779 398 
Q 353 888 353 1747 
Q 353 2609 779 3096 
Q 1206 3584 1959 3584 
z
" transform="scale(0.015625)"/>
      <path id="DejaVuSans-6d" d="M 3328 2828 
Q 3544 3216 3844 3400 
Q 4144 3584 4550 3584 
Q 5097 3584 5394 3201 
Q 5691 2819 5691 2113 
L 5691 0 
L 5113 0 
L 5113 2094 
Q 5113 2597 4934 2840 
Q 4756 3084 4391 3084 
Q 3944 3084 3684 2787 
Q 3425 2491 3425 1978 
L 3425 0 
L 2847 0 
L 2847 2094 
Q 2847 2600 2669 2842 
Q 2491 3084 2119 3084 
Q 1678 3084 1418 2786 
Q 1159 2488 1159 1978 
L 1159 0 
L 581 0 
L 581 3500 
L 1159 3500 
L 1159 2956 
Q 1356 3278 1631 3431 
Q 1906 3584 2284 3584 
Q 2666 3584 2933 3390 
Q 3200 3197 3328 2828 
z
" transform="scale(0.015625)"/>
      <path id="DejaVuSans-61" d="M 2194 1759 
Q 1497 1759 1228 1600 
Q 959 1441 959 1056 
Q 959 750 1161 570 
Q 1363 391 1709 391 
Q 2188 391 2477 730 
Q 2766 1069 2766 1631 
L 2766 1759 
L 2194 1759 
z
M 3341 1997 
L 3341 0 
L 2766 0 
L 2766 531 
Q 2569 213 2275 61 
Q 1981 -91 1556 -91 
Q 1019 -91 701 211 
Q 384 513 384 1019 
Q 384 1609 779 1909 
Q 1175 2209 1959 2209 
L 2766 2209 
L 2766 2266 
Q 2766 2663 2505 2880 
Q 2244 3097 1772 3097 
Q 1472 3097 1187 3025 
Q 903 2953 641 2809 
L 641 3341 
Q 956 3463 1253 3523 
Q 1550 3584 1831 3584 
Q 2591 3584 2966 3190 
Q 3341 2797 3341 1997 
z
" transform="scale(0.015625)"/>
      <path id="DejaVuSans-6e" d="M 3513 2113 
L 3513 0 
L 2938 0 
L 2938 2094 
Q 2938 2591 2744 2837 
Q 2550 3084 2163 3084 
Q 1697 3084 1428 2787 
Q 1159 2491 1159 1978 
L 1159 0 
L 581 0 
L 581 3500 
L 1159 3500 
L 1159 2956 
Q 1366 3272 1645 3428 
Q 1925 3584 2291 3584 
Q 2894 3584 3203 3211 
Q 3513 2838 3513 2113 
z
" transform="scale(0.015625)"/>
      <path id="DejaVuSans-20" transform="scale(0.015625)"/>
      <path id="DejaVuSans-74" d="M 1172 4494 
L 1172 3500 
L 2356 3500 
L 2356 3053 
L 1172 3053 
L 1172 1153 
Q 1172 725 1289 603 
Q 1406 481 1766 481 
L 2356 481 
L 2356 0 
L 1766 0 
Q 1100 0 847 248 
Q 594 497 594 1153 
L 594 3053 
L 172 3053 
L 172 3500 
L 594 3500 
L 594 4494 
L 1172 4494 
z
" transform="scale(0.015625)"/>
      <path id="DejaVuSans-72" d="M 2631 2963 
Q 2534 3019 2420 3045 
Q 2306 3072 2169 3072 
Q 1681 3072 1420 2755 
Q 1159 2438 1159 1844 
L 1159 0 
L 581 0 
L 581 3500 
L 1159 3500 
L 1159 2956 
Q 1341 3275 1631 3429 
Q 1922 3584 2338 3584 
Q 2397 3584 2469 3576 
Q 2541 3569 2628 3553 
L 2631 2963 
z
" transform="scale(0.015625)"/>
      <path id="DejaVuSans-70" d="M 1159 525 
L 1159 -1331 
L 581 -1331 
L 581 3500 
L 1159 3500 
L 1159 2969 
Q 1341 3281 1617 3432 
Q 1894 3584 2278 3584 
Q 2916 3584 3314 3078 
Q 3713 2572 3713 1747 
Q 3713 922 3314 415 
Q 2916 -91 2278 -91 
Q 1894 -91 1617 61 
Q 1341 213 1159 525 
z
M 3116 1747 
Q 3116 2381 2855 2742 
Q 2594 3103 2138 3103 
Q 1681 3103 1420 2742 
Q 1159 2381 1159 1747 
Q 1159 1113 1420 752 
Q 1681 391 2138 391 
Q 2594 391 2855 752 
Q 3116 1113 3116 1747 
z
" transform="scale(0.015625)"/>
      <path id="DejaVuSans-63" d="M 3122 3366 
L 3122 2828 
Q 2878 2963 2633 3030 
Q 2388 3097 2138 3097 
Q 1578 3097 1268 2742 
Q 959 2388 959 1747 
Q 959 1106 1268 751 
Q 1578 397 2138 397 
Q 2388 397 2633 464 
Q 2878 531 3122 666 
L 3122 134 
Q 2881 22 2623 -34 
Q 2366 -91 2075 -91 
Q 1284 -91 818 406 
Q 353 903 353 1747 
Q 353 2603 823 3093 
Q 1294 3584 2113 3584 
Q 2378 3584 2631 3529 
Q 2884 3475 3122 3366 
z
" transform="scale(0.015625)"/>
      <path id="DejaVuSans-6a" d="M 603 3500 
L 1178 3500 
L 1178 -63 
Q 1178 -731 923 -1031 
Q 669 -1331 103 -1331 
L -116 -1331 
L -116 -844 
L 38 -844 
Q 366 -844 484 -692 
Q 603 -541 603 -63 
L 603 3500 
z
M 603 4863 
L 1178 4863 
L 1178 4134 
L 603 4134 
L 603 4863 
z
" transform="scale(0.015625)"/>
      <path id="DejaVuSans-64" d="M 2906 2969 
L 2906 4863 
L 3481 4863 
L 3481 0 
L 2906 0 
L 2906 525 
Q 2725 213 2448 61 
Q 2172 -91 1784 -91 
Q 1150 -91 751 415 
Q 353 922 353 1747 
Q 353 2572 751 3078 
Q 1150 3584 1784 3584 
Q 2172 3584 2448 3432 
Q 2725 3281 2906 2969 
z
M 947 1747 
Q 947 1113 1208 752 
Q 1469 391 1925 391 
Q 2381 391 2643 752 
Q 2906 1113 2906 1747 
Q 2906 2381 2643 2742 
Q 2381 3103 1925 3103 
Q 1469 3103 1208 2742 
Q 947 2381 947 1747 
z
" transform="scale(0.015625)"/>
      <path id="DejaVuSans-66" d="M 2375 4863 
L 2375 4384 
L 1825 4384 
Q 1516 4384 1395 4259 
Q 1275 4134 1275 3809 
L 1275 3500 
L 2222 3500 
L 2222 3053 
L 1275 3053 
L 1275 0 
L 697 0 
L 697 3053 
L 147 3053 
L 147 3500 
L 697 3500 
L 697 3744 
Q 697 4328 969 4595 
Q 1241 4863 1831 4863 
L 2375 4863 
z
" transform="scale(0.015625)"/>
      <path id="DejaVuSans-75" d="M 544 1381 
L 544 3500 
L 1119 3500 
L 1119 1403 
Q 1119 906 1312 657 
Q 1506 409 1894 409 
Q 2359 409 2629 706 
Q 2900 1003 2900 1516 
L 2900 3500 
L 3475 3500 
L 3475 0 
L 2900 0 
L 2900 538 
Q 2691 219 2414 64 
Q 2138 -91 1772 -91 
Q 1169 -91 856 284 
Q 544 659 544 1381 
z
M 1991 3584 
L 1991 3584 
z
" transform="scale(0.015625)"/>
      <path id="DejaVuSans-6b" d="M 581 4863 
L 1159 4863 
L 1159 1991 
L 2875 3500 
L 3609 3500 
L 1753 1863 
L 3688 0 
L 2938 0 
L 1159 1709 
L 1159 0 
L 581 0 
L 581 4863 
z
" transform="scale(0.015625)"/>
     </defs>
     <use xlink:href="#DejaVuSans-57"/>
     <use xlink:href="#DejaVuSans-69" x="96.626953"/>
     <use xlink:href="#DejaVuSans-65" x="124.410156"/>
     <use xlink:href="#DejaVuSans-6c" x="185.933594"/>
     <use xlink:href="#DejaVuSans-6f" x="213.716797"/>
     <use xlink:href="#DejaVuSans-6d" x="274.898438"/>
     <use xlink:href="#DejaVuSans-69" x="372.310547"/>
     <use xlink:href="#DejaVuSans-61" x="400.09375"/>
     <use xlink:href="#DejaVuSans-6e" x="461.373047"/>
     <use xlink:href="#DejaVuSans-79" x="524.751953"/>
     <use xlink:href="#DejaVuSans-20" x="583.931641"/>
     <use xlink:href="#DejaVuSans-69" x="615.71875"/>
     <use xlink:href="#DejaVuSans-6e" x="643.501953"/>
     <use xlink:href="#DejaVuSans-74" x="706.880859"/>
     <use xlink:href="#DejaVuSans-65" x="746.089844"/>
     <use xlink:href="#DejaVuSans-72" x="807.613281"/>
     <use xlink:href="#DejaVuSans-70" x="848.726562"/>
     <use xlink:href="#DejaVuSans-6f" x="912.203125"/>
     <use xlink:href="#DejaVuSans-6c" x="973.384766"/>
     <use xlink:href="#DejaVuSans-61" x="1001.167969"/>
     <use xlink:href="#DejaVuSans-63" x="1062.447266"/>
     <use xlink:href="#DejaVuSans-79" x="1117.427734"/>
     <use xlink:href="#DejaVuSans-6a" x="1176.607422"/>
     <use xlink:href="#DejaVuSans-6e" x="1204.390625"/>
     <use xlink:href="#DejaVuSans-65" x="1267.769531"/>
     <use xlink:href="#DejaVuSans-20" x="1329.292969"/>
     <use xlink:href="#DejaVuSans-64" x="1361.080078"/>
     <use xlink:href="#DejaVuSans-6c" x="1424.556641"/>
     <use xlink:href="#DejaVuSans-61" x="1452.339844"/>
     <use xlink:href="#DejaVuSans-20" x="1513.619141"/>
     <use xlink:href="#DejaVuSans-66" x="1545.40625"/>
     <use xlink:href="#DejaVuSans-75" x="1580.611328"/>
     <use xlink:href="#DejaVuSans-6e" x="1643.990234"/>
     <use xlink:href="#DejaVuSans-6b" x="1707.369141"/>
     <use xlink:href="#DejaVuSans-63" x="1765.279297"/>
     <use xlink:href="#DejaVuSans-6a" x="1820.259766"/>
     <use xlink:href="#DejaVuSans-69" x="1848.042969"/>
    </g>
    <!-- $f(x)=\frac{1}{1+25x^2}$ i siatki $x_i=\cos(\pi\frac{2i+1}{2(n+1)})$ -->
    <g transform="translate(187.68 62.88)scale(0.12 -0.12)">
     <defs>
      <path id="DejaVuSans-Oblique-66" d="M 3059 4863 
L 2969 4384 
L 2419 4384 
Q 2106 4384 1964 4261 
Q 1822 4138 1753 3809 
L 1691 3500 
L 2638 3500 
L 2553 3053 
L 1606 3053 
L 1013 0 
L 434 0 
L 1031 3053 
L 481 3053 
L 563 3500 
L 1113 3500 
L 1159 3744 
Q 1278 4363 1576 4613 
Q 1875 4863 2516 4863 
L 3059 4863 
z
" transform="scale(0.015625)"/>
      <path id="DejaVuSans-28" d="M 1984 4856 
Q 1566 4138 1362 3434 
Q 1159 2731 1159 2009 
Q 1159 1288 1364 580 
Q 1569 -128 1984 -844 
L 1484 -844 
Q 1016 -109 783 600 
Q 550 1309 550 2009 
Q 550 2706 781 3412 
Q 1013 4119 1484 4856 
L 1984 4856 
z
" transform="scale(0.015625)"/>
      <path id="DejaVuSans-Oblique-78" d="M 3841 3500 
L 2234 1784 
L 3219 0 
L 2559 0 
L 1819 1388 
L 531 0 
L -166 0 
L 1556 1844 
L 641 3500 
L 1300 3500 
L 1972 2234 
L 3144 3500 
L 3841 3500 
z
" transform="scale(0.015625)"/>
      <path id="DejaVuSans-29" d="M 513 4856 
L 1013 4856 
Q 1481 4119 1714 3412 
Q 1947 2706 1947 2009 
Q 1947 1309 1714 600 
Q 1481 -109 1013 -844 
L 513 -844 
Q 928 -128 1133 580 
Q 1338 1288 1338 2009 
Q 1338 2731 1133 3434 
Q 928 4138 513 4856 
z
" transform="scale(0.015625)"/>
      <path id="DejaVuSans-3d" d="M 678 2906 
L 4684 2906 
L 4684 2381 
L 678 2381 
L 678 2906 
z
M 678 1631 
L 4684 1631 
L 4684 1100 
L 678 1100 
L 678 1631 
z
" transform="scale(0.015625)"/>
      <path id="DejaVuSans-2b" d="M 2944 4013 
L 2944 2272 
L 4684 2272 
L 4684 1741 
L 2944 1741 
L 2944 0 
L 2419 0 
L 2419 1741 
L 678 1741 
L 678 2272 
L 2419 2272 
L 2419 4013 
L 2944 4013 
z
" transform="scale(0.015625)"/>
      <path id="DejaVuSans-73" d="M 2834 3397 
L 2834 2853 
Q 2591 2978 2328 3040 
Q 2066 3103 1784 3103 
Q 1356 3103 1142 2972 
Q 928 2841 928 2578 
Q 928 2378 1081 2264 
Q 1234 2150 1697 2047 
L 1894 2003 
Q 2506 1872 2764 1633 
Q 3022 1394 3022 966 
Q 3022 478 2636 193 
Q 2250 -91 1575 -91 
Q 1294 -91 989 -36 
Q 684 19 347 128 
L 347 722 
Q 666 556 975 473 
Q 1284 391 1588 391 
Q 1994 391 2212 530 
Q 2431 669 2431 922 
Q 2431 1156 2273 1281 
Q 2116 1406 1581 1522 
L 1381 1569 
Q 847 1681 609 1914 
Q 372 2147 372 2553 
Q 372 3047 722 3315 
Q 1072 3584 1716 3584 
Q 2034 3584 2315 3537 
Q 2597 3491 2834 3397 
z
" transform="scale(0.015625)"/>
      <path id="DejaVuSans-Oblique-69" d="M 1172 4863 
L 1747 4863 
L 1606 4134 
L 1031 4134 
L 1172 4863 
z
M 909 3500 
L 1484 3500 
L 800 0 
L 225 0 
L 909 3500 
z
" transform="scale(0.015625)"/>
      <path id="DejaVuSans-Oblique-3c0" d="M 584 3500 
L 3938 3500 
L 3825 2925 
L 3384 2925 
L 2966 775 
Q 2922 550 2981 450 
Q 3038 353 3209 353 
Q 3256 353 3325 363 
Q 3397 369 3419 372 
L 3338 -44 
Q 3222 -84 3103 -103 
Q 2981 -122 2866 -122 
Q 2491 -122 2388 81 
Q 2284 288 2391 838 
L 2797 2925 
L 1506 2925 
L 938 0 
L 350 0 
L 919 2925 
L 472 2925 
L 584 3500 
z
" transform="scale(0.015625)"/>
      <path id="DejaVuSans-Oblique-6e" d="M 3566 2113 
L 3156 0 
L 2578 0 
L 2988 2091 
Q 3016 2238 3031 2350 
Q 3047 2463 3047 2528 
Q 3047 2791 2881 2937 
Q 2716 3084 2419 3084 
Q 1956 3084 1622 2776 
Q 1288 2469 1184 1941 
L 800 0 
L 225 0 
L 903 3500 
L 1478 3500 
L 1363 2950 
Q 1603 3253 1940 3418 
Q 2278 3584 2650 3584 
Q 3113 3584 3367 3334 
Q 3622 3084 3622 2631 
Q 3622 2519 3608 2391 
Q 3594 2263 3566 2113 
z
" transform="scale(0.015625)"/>
     </defs>
     <use xlink:href="#DejaVuSans-Oblique-66" transform="translate(0 0.014063)"/>
     <use xlink:href="#DejaVuSans-28" transform="translate(35.205078 0.014063)"/>
     <use xlink:href="#DejaVuSans-Oblique-78" transform="translate(74.21875 0.014063)"/>
     <use xlink:href="#DejaVuSans-29" transform="translate(133.398438 0.014063)"/>
     <use xlink:href="#DejaVuSans-3d" transform="translate(191.894531 0.014063)"/>
     <use xlink:href="#DejaVuSans-31" transform="translate(421.166016 43.810938)scale(0.7)"/>
     <use xlink:href="#DejaVuSans-31" transform="translate(295.166016 -50.603125)scale(0.7)"/>
     <use xlink:href="#DejaVuSans-2b" transform="translate(353.339844 -50.603125)scale(0.7)"/>
     <use xlink:href="#DejaVuSans-32" transform="translate(425.629883 -50.603125)scale(0.7)"/>
     <use xlink:href="#DejaVuSans-35" transform="translate(470.166016 -50.603125)scale(0.7)"/>
     <use xlink:href="#DejaVuSans-Oblique-78" transform="translate(514.702148 -50.603125)scale(0.7)"/>
     <use xlink:href="#DejaVuSans-32" transform="translate(559.254232 -23.80625)scale(0.49)"/>
     <use xlink:href="#DejaVuSans-20" transform="translate(604.843587 0.014063)"/>
     <use xlink:href="#DejaVuSans-69" transform="translate(636.630697 0.014063)"/>
     <use xlink:href="#DejaVuSans-20" transform="translate(664.4139 0.014063)"/>
     <use xlink:href="#DejaVuSans-73" transform="translate(696.201009 0.014063)"/>
     <use xlink:href="#DejaVuSans-69" transform="translate(748.300618 0.014063)"/>
     <use xlink:href="#DejaVuSans-61" transform="translate(776.083822 0.014063)"/>
     <use xlink:href="#DejaVuSans-74" transform="translate(837.363118 0.014063)"/>
     <use xlink:href="#DejaVuSans-6b" transform="translate(876.572103 0.014063)"/>
     <use xlink:href="#DejaVuSans-69" transform="translate(934.482259 0.014063)"/>
     <use xlink:href="#DejaVuSans-20" transform="translate(962.265462 0.014063)"/>
     <use xlink:href="#DejaVuSans-Oblique-78" transform="translate(994.052572 0.014063)"/>
     <use xlink:href="#DejaVuSans-Oblique-69" transform="translate(1053.232259 -16.392187)scale(0.7)"/>
     <use xlink:href="#DejaVuSans-3d" transform="translate(1094.897298 0.014063)"/>
     <use xlink:href="#DejaVuSans-63" transform="translate(1198.168783 0.014063)"/>
     <use xlink:href="#DejaVuSans-6f" transform="translate(1253.149251 0.014063)"/>
     <use xlink:href="#DejaVuSans-73" transform="translate(1314.330892 0.014063)"/>
     <use xlink:href="#DejaVuSans-28" transform="translate(1366.430501 0.014063)"/>
     <use xlink:href="#DejaVuSans-Oblique-3c0" transform="translate(1405.444173 0.014063)"/>
     <use xlink:href="#DejaVuSans-32" transform="translate(1505.649251 43.810938)scale(0.7)"/>
     <use xlink:href="#DejaVuSans-Oblique-69" transform="translate(1550.185384 43.810938)scale(0.7)"/>
     <use xlink:href="#DejaVuSans-2b" transform="translate(1583.271322 43.810938)scale(0.7)"/>
     <use xlink:href="#DejaVuSans-31" transform="translate(1655.561361 43.810938)scale(0.7)"/>
     <use xlink:href="#DejaVuSans-32" transform="translate(1465.649251 -40.551562)scale(0.7)"/>
     <use xlink:href="#DejaVuSans-28" transform="translate(1510.185384 -40.551562)scale(0.7)"/>
     <use xlink:href="#DejaVuSans-Oblique-6e" transform="translate(1537.494954 -40.551562)scale(0.7)"/>
     <use xlink:href="#DejaVuSans-2b" transform="translate(1595.497884 -40.551562)scale(0.7)"/>
     <use xlink:href="#DejaVuSans-31" transform="translate(1667.787923 -40.551562)scale(0.7)"/>
     <use xlink:href="#DejaVuSans-29" transform="translate(1712.324056 -40.551562)scale(0.7)"/>
     <use xlink:href="#DejaVuSans-29" transform="translate(1752.133626 0.014063)"/>
     <path d="M 295.166016 18.810938 
L 295.166016 25.060938 
L 592.343587 25.060938 
L 592.343587 18.810938 
L 295.166016 18.810938 
z
"/>
     <path d="M 1465.649251 18.810937 
L 1465.649251 25.060937 
L 1739.633626 25.060937 
L 1739.633626 18.810937 
L 1465.649251 18.810937 
z
"/>
    </g>
   </g>
   <g id="legend_1">
    <g id="patch_7">
     <path d="M 446.6 165.18875 
L 511.4 165.18875 
Q 513.4 165.18875 513.4 163.18875 
L 513.4 76.12 
Q 513.4 74.12 511.4 74.12 
L 446.6 74.12 
Q 444.6 74.12 444.6 76.12 
L 444.6 163.18875 
Q 444.6 165.18875 446.6 165.18875 
z
" style="fill: #ffffff; opacity: 0.8; stroke: #cccccc; stroke-linejoin: miter"/>
    </g>
    <g id="line2d_39">
     <path d="M 448.6 82.218438 
L 458.6 82.218438 
L 468.6 82.218438 
" style="fill: none; stroke: #ff0000; stroke-width: 2.5; stroke-linecap: square"/>
    </g>
    <g id="text_20">
     <!-- f(x) -->
     <g transform="translate(476.6 85.718438)scale(0.1 -0.1)">
      <use xlink:href="#DejaVuSans-66"/>
      <use xlink:href="#DejaVuSans-28" x="35.205078"/>
      <use xlink:href="#DejaVuSans-78" x="74.21875"/>
      <use xlink:href="#DejaVuSans-29" x="133.398438"/>
     </g>
    </g>
    <g id="line2d_40">
     <path d="M 448.6 96.896563 
L 458.6 96.896563 
L 468.6 96.896563 
" style="fill: none; stroke: #1f77b4; stroke-width: 1.5; stroke-linecap: square"/>
    </g>
    <g id="text_21">
     <!-- $W_{2}(x)$ -->
     <g transform="translate(476.6 100.396563)scale(0.1 -0.1)">
      <defs>
       <path id="DejaVuSans-Oblique-57" d="M 616 4666 
L 1228 4666 
L 1453 697 
L 3213 4666 
L 3916 4666 
L 4147 697 
L 5888 4666 
L 6528 4666 
L 4453 0 
L 3659 0 
L 3444 3891 
L 1697 0 
L 903 0 
L 616 4666 
z
" transform="scale(0.015625)"/>
      </defs>
      <use xlink:href="#DejaVuSans-Oblique-57" transform="translate(0 0.125)"/>
      <use xlink:href="#DejaVuSans-32" transform="translate(98.876953 -16.28125)scale(0.7)"/>
      <use xlink:href="#DejaVuSans-28" transform="translate(146.147461 0.125)"/>
      <use xlink:href="#DejaVuSans-Oblique-78" transform="translate(185.161133 0.125)"/>
      <use xlink:href="#DejaVuSans-29" transform="translate(244.34082 0.125)"/>
     </g>
    </g>
    <g id="line2d_41">
     <path d="M 448.6 111.574688 
L 458.6 111.574688 
L 468.6 111.574688 
" style="fill: none; stroke: #ff7f0e; stroke-width: 1.5; stroke-linecap: square"/>
    </g>
    <g id="text_22">
     <!-- $W_{5}(x)$ -->
     <g transform="translate(476.6 115.074688)scale(0.1 -0.1)">
      <use xlink:href="#DejaVuSans-Oblique-57" transform="translate(0 0.125)"/>
      <use xlink:href="#DejaVuSans-35" transform="translate(98.876953 -16.28125)scale(0.7)"/>
      <use xlink:href="#DejaVuSans-28" transform="translate(146.147461 0.125)"/>
      <use xlink:href="#DejaVuSans-Oblique-78" transform="translate(185.161133 0.125)"/>
      <use xlink:href="#DejaVuSans-29" transform="translate(244.34082 0.125)"/>
     </g>
    </g>
    <g id="line2d_42">
     <path d="M 448.6 126.252813 
L 458.6 126.252813 
L 468.6 126.252813 
" style="fill: none; stroke: #2ca02c; stroke-width: 1.5; stroke-linecap: square"/>
    </g>
    <g id="text_23">
     <!-- $W_{8}(x)$ -->
     <g transform="translate(476.6 129.752813)scale(0.1 -0.1)">
      <use xlink:href="#DejaVuSans-Oblique-57" transform="translate(0 0.125)"/>
      <use xlink:href="#DejaVuSans-38" transform="translate(98.876953 -16.28125)scale(0.7)"/>
      <use xlink:href="#DejaVuSans-28" transform="translate(146.147461 0.125)"/>
      <use xlink:href="#DejaVuSans-Oblique-78" transform="translate(185.161133 0.125)"/>
      <use xlink:href="#DejaVuSans-29" transform="translate(244.34082 0.125)"/>
     </g>
    </g>
    <g id="line2d_43">
     <path d="M 448.6 140.930938 
L 458.6 140.930938 
L 468.6 140.930938 
" style="fill: none; stroke: #d62728; stroke-width: 1.5; stroke-linecap: square"/>
    </g>
    <g id="text_24">
     <!-- $W_{20}(x)$ -->
     <g transform="translate(476.6 144.430938)scale(0.1 -0.1)">
      <use xlink:href="#DejaVuSans-Oblique-57" transform="translate(0 0.125)"/>
      <use xlink:href="#DejaVuSans-32" transform="translate(98.876953 -16.28125)scale(0.7)"/>
      <use xlink:href="#DejaVuSans-30" transform="translate(143.413086 -16.28125)scale(0.7)"/>
      <use xlink:href="#DejaVuSans-28" transform="translate(190.683594 0.125)"/>
      <use xlink:href="#DejaVuSans-Oblique-78" transform="translate(229.697266 0.125)"/>
      <use xlink:href="#DejaVuSans-29" transform="translate(288.876953 0.125)"/>
     </g>
    </g>
    <g id="line2d_44">
     <path d="M 448.6 155.609063 
L 458.6 155.609063 
L 468.6 155.609063 
" style="fill: none; stroke: #9467bd; stroke-width: 1.5; stroke-linecap: square"/>
    </g>
    <g id="text_25">
     <!-- $W_{40}(x)$ -->
     <g transform="translate(476.6 159.109063)scale(0.1 -0.1)">
      <use xlink:href="#DejaVuSans-Oblique-57" transform="translate(0 0.125)"/>
      <use xlink:href="#DejaVuSans-34" transform="translate(98.876953 -16.28125)scale(0.7)"/>
      <use xlink:href="#DejaVuSans-30" transform="translate(143.413086 -16.28125)scale(0.7)"/>
      <use xlink:href="#DejaVuSans-28" transform="translate(190.683594 0.125)"/>
      <use xlink:href="#DejaVuSans-Oblique-78" transform="translate(229.697266 0.125)"/>
      <use xlink:href="#DejaVuSans-29" transform="translate(288.876953 0.125)"/>
     </g>
    </g>
   </g>
  </g>
 </g>
 <defs>
  <clipPath id="p2f7229526f">
   <rect x="72" y="69.12" width="446.4" height="443.52"/>
  </clipPath>
 </defs>
</svg>
