<?xml version="1.0" encoding="utf-8" standalone="no"?>
<!DOCTYPE svg PUBLIC "-//W3C//DTD SVG 1.1//EN"
  "http://www.w3.org/Graphics/SVG/1.1/DTD/svg11.dtd">
<svg xmlns:xlink="http://www.w3.org/1999/xlink" width="720pt" height="504pt" viewBox="0 0 720 504" xmlns="http://www.w3.org/2000/svg" version="1.1">
 <metadata>
  <rdf:RDF xmlns:dc="http://purl.org/dc/elements/1.1/" xmlns:cc="http://creativecommons.org/ns#" xmlns:rdf="http://www.w3.org/1999/02/22-rdf-syntax-ns#">
   <cc:Work>
    <dc:type rdf:resource="http://purl.org/dc/dcmitype/StillImage"/>
    <dc:date>2023-01-04T21:34:54.585358</dc:date>
    <dc:format>image/svg+xml</dc:format>
    <dc:creator>
     <cc:Agent>
      <dc:title>Matplotlib v3.6.2, https://matplotlib.org/</dc:title>
     </cc:Agent>
    </dc:creator>
   </cc:Work>
  </rdf:RDF>
 </metadata>
 <defs>
  <style type="text/css">*{stroke-linejoin: round; stroke-linecap: butt}</style>
 </defs>
 <g id="figure_1">
  <g id="patch_1">
   <path d="M 0 504 
L 720 504 
L 720 0 
L 0 0 
z
" style="fill: #ffffff"/>
  </g>
  <g id="axes_1">
   <g id="patch_2">
    <path d="M 90 448.56 
L 648 448.56 
L 648 60.48 
L 90 60.48 
z
" style="fill: #ffffff"/>
   </g>
   <g id="matplotlib.axis_1">
    <g id="xtick_1">
     <g id="line2d_1">
      <path d="M 114.855856 448.56 
L 114.855856 60.48 
" clip-path="url(#p1c01345efc)" style="fill: none; stroke: #b0b0b0; stroke-width: 0.8; stroke-linecap: square"/>
     </g>
     <g id="line2d_2">
      <defs>
       <path id="mff992e3b11" d="M 0 0 
L 0 3.5 
" style="stroke: #000000; stroke-width: 0.8"/>
      </defs>
      <g>
       <use xlink:href="#mff992e3b11" x="114.855856" y="448.56" style="stroke: #000000; stroke-width: 0.8"/>
      </g>
     </g>
     <g id="text_1">
      <!-- 0 -->
      <g transform="translate(111.674606 463.158437) scale(0.1 -0.1)">
       <defs>
        <path id="DejaVuSans-30" d="M 2034 4250 
Q 1547 4250 1301 3770 
Q 1056 3291 1056 2328 
Q 1056 1369 1301 889 
Q 1547 409 2034 409 
Q 2525 409 2770 889 
Q 3016 1369 3016 2328 
Q 3016 3291 2770 3770 
Q 2525 4250 2034 4250 
z
M 2034 4750 
Q 2819 4750 3233 4129 
Q 3647 3509 3647 2328 
Q 3647 1150 3233 529 
Q 2819 -91 2034 -91 
Q 1250 -91 836 529 
Q 422 1150 422 2328 
Q 422 3509 836 4129 
Q 1250 4750 2034 4750 
z
" transform="scale(0.015625)"/>
       </defs>
       <use xlink:href="#DejaVuSans-30"/>
      </g>
     </g>
    </g>
    <g id="xtick_2">
     <g id="line2d_3">
      <path d="M 216.411957 448.56 
L 216.411957 60.48 
" clip-path="url(#p1c01345efc)" style="fill: none; stroke: #b0b0b0; stroke-width: 0.8; stroke-linecap: square"/>
     </g>
     <g id="line2d_4">
      <g>
       <use xlink:href="#mff992e3b11" x="216.411957" y="448.56" style="stroke: #000000; stroke-width: 0.8"/>
      </g>
     </g>
     <g id="text_2">
      <!-- 2 -->
      <g transform="translate(213.230707 463.158437) scale(0.1 -0.1)">
       <defs>
        <path id="DejaVuSans-32" d="M 1228 531 
L 3431 531 
L 3431 0 
L 469 0 
L 469 531 
Q 828 903 1448 1529 
Q 2069 2156 2228 2338 
Q 2531 2678 2651 2914 
Q 2772 3150 2772 3378 
Q 2772 3750 2511 3984 
Q 2250 4219 1831 4219 
Q 1534 4219 1204 4116 
Q 875 4013 500 3803 
L 500 4441 
Q 881 4594 1212 4672 
Q 1544 4750 1819 4750 
Q 2544 4750 2975 4387 
Q 3406 4025 3406 3419 
Q 3406 3131 3298 2873 
Q 3191 2616 2906 2266 
Q 2828 2175 2409 1742 
Q 1991 1309 1228 531 
z
" transform="scale(0.015625)"/>
       </defs>
       <use xlink:href="#DejaVuSans-32"/>
      </g>
     </g>
    </g>
    <g id="xtick_3">
     <g id="line2d_5">
      <path d="M 317.968059 448.56 
L 317.968059 60.48 
" clip-path="url(#p1c01345efc)" style="fill: none; stroke: #b0b0b0; stroke-width: 0.8; stroke-linecap: square"/>
     </g>
     <g id="line2d_6">
      <g>
       <use xlink:href="#mff992e3b11" x="317.968059" y="448.56" style="stroke: #000000; stroke-width: 0.8"/>
      </g>
     </g>
     <g id="text_3">
      <!-- 4 -->
      <g transform="translate(314.786809 463.158437) scale(0.1 -0.1)">
       <defs>
        <path id="DejaVuSans-34" d="M 2419 4116 
L 825 1625 
L 2419 1625 
L 2419 4116 
z
M 2253 4666 
L 3047 4666 
L 3047 1625 
L 3713 1625 
L 3713 1100 
L 3047 1100 
L 3047 0 
L 2419 0 
L 2419 1100 
L 313 1100 
L 313 1709 
L 2253 4666 
z
" transform="scale(0.015625)"/>
       </defs>
       <use xlink:href="#DejaVuSans-34"/>
      </g>
     </g>
    </g>
    <g id="xtick_4">
     <g id="line2d_7">
      <path d="M 419.524161 448.56 
L 419.524161 60.48 
" clip-path="url(#p1c01345efc)" style="fill: none; stroke: #b0b0b0; stroke-width: 0.8; stroke-linecap: square"/>
     </g>
     <g id="line2d_8">
      <g>
       <use xlink:href="#mff992e3b11" x="419.524161" y="448.56" style="stroke: #000000; stroke-width: 0.8"/>
      </g>
     </g>
     <g id="text_4">
      <!-- 6 -->
      <g transform="translate(416.342911 463.158437) scale(0.1 -0.1)">
       <defs>
        <path id="DejaVuSans-36" d="M 2113 2584 
Q 1688 2584 1439 2293 
Q 1191 2003 1191 1497 
Q 1191 994 1439 701 
Q 1688 409 2113 409 
Q 2538 409 2786 701 
Q 3034 994 3034 1497 
Q 3034 2003 2786 2293 
Q 2538 2584 2113 2584 
z
M 3366 4563 
L 3366 3988 
Q 3128 4100 2886 4159 
Q 2644 4219 2406 4219 
Q 1781 4219 1451 3797 
Q 1122 3375 1075 2522 
Q 1259 2794 1537 2939 
Q 1816 3084 2150 3084 
Q 2853 3084 3261 2657 
Q 3669 2231 3669 1497 
Q 3669 778 3244 343 
Q 2819 -91 2113 -91 
Q 1303 -91 875 529 
Q 447 1150 447 2328 
Q 447 3434 972 4092 
Q 1497 4750 2381 4750 
Q 2619 4750 2861 4703 
Q 3103 4656 3366 4563 
z
" transform="scale(0.015625)"/>
       </defs>
       <use xlink:href="#DejaVuSans-36"/>
      </g>
     </g>
    </g>
    <g id="xtick_5">
     <g id="line2d_9">
      <path d="M 521.080262 448.56 
L 521.080262 60.48 
" clip-path="url(#p1c01345efc)" style="fill: none; stroke: #b0b0b0; stroke-width: 0.8; stroke-linecap: square"/>
     </g>
     <g id="line2d_10">
      <g>
       <use xlink:href="#mff992e3b11" x="521.080262" y="448.56" style="stroke: #000000; stroke-width: 0.8"/>
      </g>
     </g>
     <g id="text_5">
      <!-- 8 -->
      <g transform="translate(517.899012 463.158437) scale(0.1 -0.1)">
       <defs>
        <path id="DejaVuSans-38" d="M 2034 2216 
Q 1584 2216 1326 1975 
Q 1069 1734 1069 1313 
Q 1069 891 1326 650 
Q 1584 409 2034 409 
Q 2484 409 2743 651 
Q 3003 894 3003 1313 
Q 3003 1734 2745 1975 
Q 2488 2216 2034 2216 
z
M 1403 2484 
Q 997 2584 770 2862 
Q 544 3141 544 3541 
Q 544 4100 942 4425 
Q 1341 4750 2034 4750 
Q 2731 4750 3128 4425 
Q 3525 4100 3525 3541 
Q 3525 3141 3298 2862 
Q 3072 2584 2669 2484 
Q 3125 2378 3379 2068 
Q 3634 1759 3634 1313 
Q 3634 634 3220 271 
Q 2806 -91 2034 -91 
Q 1263 -91 848 271 
Q 434 634 434 1313 
Q 434 1759 690 2068 
Q 947 2378 1403 2484 
z
M 1172 3481 
Q 1172 3119 1398 2916 
Q 1625 2713 2034 2713 
Q 2441 2713 2670 2916 
Q 2900 3119 2900 3481 
Q 2900 3844 2670 4047 
Q 2441 4250 2034 4250 
Q 1625 4250 1398 4047 
Q 1172 3844 1172 3481 
z
" transform="scale(0.015625)"/>
       </defs>
       <use xlink:href="#DejaVuSans-38"/>
      </g>
     </g>
    </g>
    <g id="xtick_6">
     <g id="line2d_11">
      <path d="M 622.636364 448.56 
L 622.636364 60.48 
" clip-path="url(#p1c01345efc)" style="fill: none; stroke: #b0b0b0; stroke-width: 0.8; stroke-linecap: square"/>
     </g>
     <g id="line2d_12">
      <g>
       <use xlink:href="#mff992e3b11" x="622.636364" y="448.56" style="stroke: #000000; stroke-width: 0.8"/>
      </g>
     </g>
     <g id="text_6">
      <!-- 10 -->
      <g transform="translate(616.273864 463.158437) scale(0.1 -0.1)">
       <defs>
        <path id="DejaVuSans-31" d="M 794 531 
L 1825 531 
L 1825 4091 
L 703 3866 
L 703 4441 
L 1819 4666 
L 2450 4666 
L 2450 531 
L 3481 531 
L 3481 0 
L 794 0 
L 794 531 
z
" transform="scale(0.015625)"/>
       </defs>
       <use xlink:href="#DejaVuSans-31"/>
       <use xlink:href="#DejaVuSans-30" x="63.623047"/>
      </g>
     </g>
    </g>
    <g id="text_7">
     <!-- x -->
     <g transform="translate(366.040625 476.836563) scale(0.1 -0.1)">
      <defs>
       <path id="DejaVuSans-78" d="M 3513 3500 
L 2247 1797 
L 3578 0 
L 2900 0 
L 1881 1375 
L 863 0 
L 184 0 
L 1544 1831 
L 300 3500 
L 978 3500 
L 1906 2253 
L 2834 3500 
L 3513 3500 
z
" transform="scale(0.015625)"/>
      </defs>
      <use xlink:href="#DejaVuSans-78"/>
     </g>
    </g>
   </g>
   <g id="matplotlib.axis_2">
    <g id="ytick_1">
     <g id="line2d_13">
      <path d="M 90 429.602945 
L 648 429.602945 
" clip-path="url(#p1c01345efc)" style="fill: none; stroke: #b0b0b0; stroke-width: 0.8; stroke-linecap: square"/>
     </g>
     <g id="line2d_14">
      <defs>
       <path id="mbf6a2626d0" d="M 0 0 
L -3.5 0 
" style="stroke: #000000; stroke-width: 0.8"/>
      </defs>
      <g>
       <use xlink:href="#mbf6a2626d0" x="90" y="429.602945" style="stroke: #000000; stroke-width: 0.8"/>
      </g>
     </g>
     <g id="text_8">
      <!-- −15 -->
      <g transform="translate(61.895313 433.402164) scale(0.1 -0.1)">
       <defs>
        <path id="DejaVuSans-2212" d="M 678 2272 
L 4684 2272 
L 4684 1741 
L 678 1741 
L 678 2272 
z
" transform="scale(0.015625)"/>
        <path id="DejaVuSans-35" d="M 691 4666 
L 3169 4666 
L 3169 4134 
L 1269 4134 
L 1269 2991 
Q 1406 3038 1543 3061 
Q 1681 3084 1819 3084 
Q 2600 3084 3056 2656 
Q 3513 2228 3513 1497 
Q 3513 744 3044 326 
Q 2575 -91 1722 -91 
Q 1428 -91 1123 -41 
Q 819 9 494 109 
L 494 744 
Q 775 591 1075 516 
Q 1375 441 1709 441 
Q 2250 441 2565 725 
Q 2881 1009 2881 1497 
Q 2881 1984 2565 2268 
Q 2250 2553 1709 2553 
Q 1456 2553 1204 2497 
Q 953 2441 691 2322 
L 691 4666 
z
" transform="scale(0.015625)"/>
       </defs>
       <use xlink:href="#DejaVuSans-2212"/>
       <use xlink:href="#DejaVuSans-31" x="83.789062"/>
       <use xlink:href="#DejaVuSans-35" x="147.412109"/>
      </g>
     </g>
    </g>
    <g id="ytick_2">
     <g id="line2d_15">
      <path d="M 90 367.121261 
L 648 367.121261 
" clip-path="url(#p1c01345efc)" style="fill: none; stroke: #b0b0b0; stroke-width: 0.8; stroke-linecap: square"/>
     </g>
     <g id="line2d_16">
      <g>
       <use xlink:href="#mbf6a2626d0" x="90" y="367.121261" style="stroke: #000000; stroke-width: 0.8"/>
      </g>
     </g>
     <g id="text_9">
      <!-- −10 -->
      <g transform="translate(61.895313 370.92048) scale(0.1 -0.1)">
       <use xlink:href="#DejaVuSans-2212"/>
       <use xlink:href="#DejaVuSans-31" x="83.789062"/>
       <use xlink:href="#DejaVuSans-30" x="147.412109"/>
      </g>
     </g>
    </g>
    <g id="ytick_3">
     <g id="line2d_17">
      <path d="M 90 304.639578 
L 648 304.639578 
" clip-path="url(#p1c01345efc)" style="fill: none; stroke: #b0b0b0; stroke-width: 0.8; stroke-linecap: square"/>
     </g>
     <g id="line2d_18">
      <g>
       <use xlink:href="#mbf6a2626d0" x="90" y="304.639578" style="stroke: #000000; stroke-width: 0.8"/>
      </g>
     </g>
     <g id="text_10">
      <!-- −5 -->
      <g transform="translate(68.257812 308.438797) scale(0.1 -0.1)">
       <use xlink:href="#DejaVuSans-2212"/>
       <use xlink:href="#DejaVuSans-35" x="83.789062"/>
      </g>
     </g>
    </g>
    <g id="ytick_4">
     <g id="line2d_19">
      <path d="M 90 242.157894 
L 648 242.157894 
" clip-path="url(#p1c01345efc)" style="fill: none; stroke: #b0b0b0; stroke-width: 0.8; stroke-linecap: square"/>
     </g>
     <g id="line2d_20">
      <g>
       <use xlink:href="#mbf6a2626d0" x="90" y="242.157894" style="stroke: #000000; stroke-width: 0.8"/>
      </g>
     </g>
     <g id="text_11">
      <!-- 0 -->
      <g transform="translate(76.6375 245.957113) scale(0.1 -0.1)">
       <use xlink:href="#DejaVuSans-30"/>
      </g>
     </g>
    </g>
    <g id="ytick_5">
     <g id="line2d_21">
      <path d="M 90 179.676211 
L 648 179.676211 
" clip-path="url(#p1c01345efc)" style="fill: none; stroke: #b0b0b0; stroke-width: 0.8; stroke-linecap: square"/>
     </g>
     <g id="line2d_22">
      <g>
       <use xlink:href="#mbf6a2626d0" x="90" y="179.676211" style="stroke: #000000; stroke-width: 0.8"/>
      </g>
     </g>
     <g id="text_12">
      <!-- 5 -->
      <g transform="translate(76.6375 183.47543) scale(0.1 -0.1)">
       <use xlink:href="#DejaVuSans-35"/>
      </g>
     </g>
    </g>
    <g id="ytick_6">
     <g id="line2d_23">
      <path d="M 90 117.194527 
L 648 117.194527 
" clip-path="url(#p1c01345efc)" style="fill: none; stroke: #b0b0b0; stroke-width: 0.8; stroke-linecap: square"/>
     </g>
     <g id="line2d_24">
      <g>
       <use xlink:href="#mbf6a2626d0" x="90" y="117.194527" style="stroke: #000000; stroke-width: 0.8"/>
      </g>
     </g>
     <g id="text_13">
      <!-- 10 -->
      <g transform="translate(70.275 120.993746) scale(0.1 -0.1)">
       <use xlink:href="#DejaVuSans-31"/>
       <use xlink:href="#DejaVuSans-30" x="63.623047"/>
      </g>
     </g>
    </g>
    <g id="text_14">
     <!-- y -->
     <g transform="translate(55.815625 257.479375) rotate(-90) scale(0.1 -0.1)">
      <defs>
       <path id="DejaVuSans-79" d="M 2059 -325 
Q 1816 -950 1584 -1140 
Q 1353 -1331 966 -1331 
L 506 -1331 
L 506 -850 
L 844 -850 
Q 1081 -850 1212 -737 
Q 1344 -625 1503 -206 
L 1606 56 
L 191 3500 
L 800 3500 
L 1894 763 
L 2988 3500 
L 3597 3500 
L 2059 -325 
z
" transform="scale(0.015625)"/>
      </defs>
      <use xlink:href="#DejaVuSans-79"/>
     </g>
    </g>
   </g>
   <g id="line2d_25">
    <path d="M 115.363636 417.85455 
L 115.871417 398.641346 
L 116.379197 386.613702 
L 117.394758 370.064276 
L 118.410319 357.910282 
L 119.42588 347.958427 
L 120.949222 335.476161 
L 122.472563 324.960918 
L 123.995905 315.919769 
L 125.519247 308.123729 
L 127.042588 301.456732 
L 128.56593 295.853579 
L 130.089271 291.270329 
L 131.104832 288.762588 
L 132.120393 286.679309 
L 133.135954 285.007237 
L 134.151515 283.731269 
L 135.167076 282.834148 
L 136.182637 282.296278 
L 137.198198 282.095648 
L 138.213759 282.207837 
L 139.22932 282.60608 
L 140.244881 283.261397 
L 141.260442 284.142775 
L 142.783784 285.816444 
L 144.814906 288.520405 
L 150.400491 296.452743 
L 151.923833 298.160329 
L 152.939394 299.073688 
L 153.954955 299.770324 
L 154.970516 300.221252 
L 155.986077 300.399999 
L 157.001638 300.282867 
L 158.017199 299.849169 
L 159.03276 299.081438 
L 160.048321 297.965602 
L 161.063882 296.491132 
L 162.079443 294.651144 
L 163.095004 292.442479 
L 164.618346 288.440556 
L 166.141687 283.629192 
L 167.665029 278.044883 
L 169.696151 269.493187 
L 171.727273 259.840365 
L 174.266175 246.565327 
L 178.328419 223.765123 
L 182.390663 201.128713 
L 184.929566 188.131342 
L 186.960688 178.809085 
L 188.484029 172.599621 
L 190.007371 167.152553 
L 191.530713 162.533652 
L 193.054054 158.791485 
L 194.069615 156.799524 
L 195.085176 155.215415 
L 196.100737 154.039704 
L 197.116298 153.269156 
L 198.131859 152.896788 
L 199.14742 152.911942 
L 200.162981 153.300396 
L 201.178542 154.044505 
L 202.194103 155.12338 
L 203.209664 156.513101 
L 204.733006 159.12138 
L 206.256347 162.267853 
L 208.287469 167.107272 
L 211.334152 175.163111 
L 214.888616 184.5661 
L 216.919738 189.372137 
L 218.443079 192.50037 
L 219.966421 195.110068 
L 220.981982 196.519097 
L 221.997543 197.637837 
L 223.013104 198.447826 
L 224.028665 198.933951 
L 225.044226 199.084598 
L 226.059787 198.891757 
L 227.075348 198.351102 
L 228.090909 197.462024 
L 229.10647 196.227631 
L 230.122031 194.654714 
L 231.137592 192.753669 
L 232.660934 189.318176 
L 234.184275 185.237279 
L 235.707617 180.587325 
L 237.738739 173.659621 
L 240.277641 164.18001 
L 246.878788 139.023219 
L 248.90991 132.247127 
L 250.433251 127.752281 
L 251.956593 123.865344 
L 253.479934 120.666236 
L 254.495495 118.948309 
L 255.511057 117.580405 
L 256.526618 116.574249 
L 257.542179 115.938003 
L 258.55774 115.676177 
L 259.573301 115.789586 
L 260.588862 116.275326 
L 261.604423 117.126812 
L 262.619984 118.333827 
L 263.635545 119.882628 
L 264.651106 121.756078 
L 266.174447 125.129586 
L 267.697789 129.105767 
L 269.728911 135.179397 
L 272.267813 143.648407 
L 278.86896 166.361615 
L 280.900082 172.414265 
L 282.423423 176.370444 
L 283.946765 179.720843 
L 284.962326 181.577479 
L 285.977887 183.108614 
L 286.993448 184.297388 
L 288.009009 185.130378 
L 289.02457 185.597736 
L 290.040131 185.693291 
L 291.055692 185.414614 
L 292.071253 184.763048 
L 293.086814 183.743697 
L 294.102375 182.365381 
L 295.117936 180.640551 
L 296.641278 177.439438 
L 298.164619 173.563229 
L 299.687961 169.095262 
L 301.719083 162.386806 
L 304.257985 153.165973 
L 310.351351 130.533582 
L 312.382473 123.882047 
L 313.905815 119.478033 
L 315.429156 115.688738 
L 316.952498 112.602556 
L 317.968059 110.972694 
L 318.98362 109.706124 
L 319.999181 108.817195 
L 321.014742 108.316685 
L 322.030303 108.211705 
L 323.045864 108.505633 
L 324.061425 109.198081 
L 325.076986 110.284913 
L 326.092547 111.758283 
L 327.108108 113.606725 
L 328.123669 115.815269 
L 329.647011 119.762335 
L 331.170352 124.402744 
L 333.201474 131.512543 
L 335.232596 139.450843 
L 338.279279 152.309746 
L 343.357084 173.836602 
L 345.895987 183.47569 
L 347.927109 190.199773 
L 349.45045 194.534594 
L 350.973792 198.188289 
L 352.497133 201.112176 
L 353.512695 202.639956 
L 354.528256 203.824618 
L 355.543817 204.665215 
L 356.559378 205.164495 
L 357.574939 205.328864 
L 358.5905 205.168318 
L 359.606061 204.696337 
L 360.621622 203.929746 
L 361.637183 202.888535 
L 362.652744 201.595657 
L 364.176085 199.241312 
L 365.699427 196.475798 
L 367.730549 192.334818 
L 373.823915 179.4617 
L 375.347256 176.77282 
L 376.870598 174.523586 
L 377.886159 173.318219 
L 378.90172 172.379779 
L 379.917281 171.732461 
L 380.932842 171.397579 
L 381.948403 171.393349 
L 382.963964 171.734688 
L 383.979525 172.433057 
L 384.995086 173.496328 
L 386.010647 174.928695 
L 387.026208 176.730619 
L 388.041769 178.898811 
L 389.565111 182.821478 
L 391.088452 187.512471 
L 392.611794 192.914886 
L 394.642916 201.095478 
L 396.674038 210.193276 
L 399.720721 224.994747 
L 405.814087 255.09643 
L 408.352989 266.285267 
L 410.384111 274.106987 
L 411.907453 279.158349 
L 413.430794 283.418471 
L 414.446355 285.785485 
L 415.461916 287.755514 
L 416.477477 289.316668 
L 417.493038 290.460735 
L 418.5086 291.18325 
L 419.524161 291.483538 
L 420.539722 291.364708 
L 421.555283 290.833617 
L 422.570844 289.900795 
L 423.586405 288.580334 
L 424.601966 286.889742 
L 425.617527 284.849759 
L 427.140868 281.187433 
L 428.66421 276.884759 
L 430.695332 270.3323 
L 433.234234 261.216401 
L 440.343161 234.895631 
L 442.374283 228.383184 
L 443.897625 224.076162 
L 445.420966 220.353349 
L 446.944308 217.278543 
L 447.959869 215.612578 
L 448.97543 214.265365 
L 449.990991 213.242796 
L 451.006552 212.547088 
L 452.022113 212.17676 
L 453.037674 212.126662 
L 454.053235 212.38803 
L 455.068796 212.948586 
L 456.084357 213.792665 
L 457.099918 214.901384 
L 458.62326 217.011977 
L 460.146601 219.582639 
L 462.177723 223.555799 
L 465.224406 230.153196 
L 468.271089 236.672379 
L 470.302211 240.50019 
L 471.825553 242.905253 
L 473.348894 244.794159 
L 474.364455 245.719806 
L 475.380016 246.349322 
L 476.395577 246.66077 
L 477.411138 246.635247 
L 478.426699 246.257082 
L 479.44226 245.514008 
L 480.457821 244.397301 
L 481.473382 242.901876 
L 482.488943 241.026353 
L 483.504505 238.773088 
L 485.027846 234.699221 
L 486.551188 229.825891 
L 488.074529 224.206884 
L 490.105651 215.679081 
L 492.136773 206.161371 
L 495.183456 190.581575 
L 502.292383 153.272702 
L 504.831286 141.481072 
L 506.862408 133.216989 
L 508.385749 127.845299 
L 509.909091 123.264828 
L 511.432432 119.532271 
L 512.447993 117.5349 
L 513.463554 115.938934 
L 514.479115 114.747521 
L 515.494676 113.960018 
L 516.510238 113.572005 
L 517.525799 113.575331 
L 518.54136 113.958199 
L 519.556921 114.70529 
L 520.572482 115.797917 
L 521.588043 117.214213 
L 523.111384 119.89049 
L 524.634726 123.143627 
L 526.665848 128.193133 
L 529.20475 135.256616 
L 534.282555 149.688697 
L 536.313677 154.765303 
L 537.837019 158.062795 
L 539.36036 160.816123 
L 540.375921 162.308327 
L 541.391482 163.501454 
L 542.407043 164.378206 
L 543.422604 164.924689 
L 544.438165 165.130547 
L 545.453726 164.989057 
L 546.469287 164.497194 
L 547.484848 163.655654 
L 548.50041 162.468843 
L 549.515971 160.944823 
L 550.531532 159.095233 
L 552.054873 155.744305 
L 553.578215 151.760162 
L 555.609337 145.602741 
L 557.640459 138.687685 
L 560.687142 127.464206 
L 565.257166 110.618128 
L 567.288288 103.865316 
L 569.31941 97.941863 
L 570.842752 94.182287 
L 572.366093 91.099927 
L 573.381654 89.454792 
L 574.397215 88.156289 
L 575.412776 87.216718 
L 576.428337 86.644834 
L 577.443898 86.445751 
L 578.459459 86.62089 
L 579.47502 87.167959 
L 580.490581 88.080969 
L 581.506143 89.350294 
L 582.521704 90.96276 
L 583.537265 92.901776 
L 585.060606 96.378319 
L 586.583948 100.46456 
L 588.61507 106.698226 
L 591.153972 115.392169 
L 598.262899 140.484176 
L 600.294021 146.601369 
L 601.817363 150.577222 
L 603.340704 153.925906 
L 604.356265 155.77118 
L 605.371826 157.284052 
L 606.387387 158.448826 
L 607.402948 159.253293 
L 608.418509 159.688859 
L 609.43407 159.750631 
L 610.449631 159.437473 
L 611.465192 158.752023 
L 612.480753 157.700665 
L 613.496314 156.293478 
L 614.511876 154.544134 
L 616.035217 151.316967 
L 617.558559 147.430817 
L 619.0819 142.972325 
L 621.113022 136.311543 
L 622.636364 130.9245 
L 622.636364 130.9245 
" clip-path="url(#p1c01345efc)" style="fill: none; stroke: #000000; stroke-width: 4; stroke-linecap: square"/>
   </g>
   <g id="line2d_26">
    <path d="M 115.363636 430.92 
L 115.871417 409.582999 
L 116.379197 396.262596 
L 117.394758 377.999204 
L 118.410319 364.644496 
L 119.42588 353.750465 
L 120.949222 340.14185 
L 122.472563 328.728177 
L 123.995905 318.954698 
L 125.519247 310.561601 
L 127.042588 303.415648 
L 128.56593 297.44105 
L 130.089271 292.586496 
L 131.104832 289.950578 
L 132.120393 287.77939 
L 133.135954 286.058081 
L 134.151515 284.769899 
L 135.167076 283.895853 
L 136.182637 283.414503 
L 137.198198 283.301864 
L 138.213759 283.531405 
L 139.22932 284.074117 
L 140.244881 284.898645 
L 141.260442 285.971473 
L 142.783784 287.968277 
L 144.814906 291.155785 
L 150.908272 301.291126 
L 152.431613 303.253516 
L 153.447174 304.303499 
L 154.462735 305.108604 
L 155.478296 305.638859 
L 156.493857 305.867117 
L 157.509419 305.769333 
L 158.52498 305.324792 
L 159.540541 304.516321 
L 160.556102 303.330458 
L 161.571663 301.75759 
L 162.587224 299.792047 
L 163.602785 297.432166 
L 165.126126 293.159221 
L 166.649468 288.03007 
L 168.172809 282.08923 
L 170.203931 273.017381 
L 172.235053 262.814257 
L 174.773956 248.845458 
L 179.34398 222.031087 
L 182.898444 201.646417 
L 185.437346 188.375341 
L 187.468468 178.957842 
L 188.99181 172.752034 
L 190.515152 167.372886 
L 192.038493 162.884373 
L 193.054054 160.40997 
L 194.069615 158.360474 
L 195.085176 156.740458 
L 196.100737 155.550467 
L 197.116298 154.787015 
L 198.131859 154.442625 
L 199.14742 154.505905 
L 200.162981 154.961665 
L 201.178542 155.791069 
L 202.194103 156.971829 
L 203.209664 158.478427 
L 204.733006 161.2862 
L 206.256347 164.655202 
L 208.287469 169.814415 
L 211.334152 178.361124 
L 214.888616 188.275328 
L 216.919738 193.307061 
L 218.443079 196.559788 
L 219.966421 199.24871 
L 220.981982 200.682793 
L 221.997543 201.802842 
L 223.013104 202.589327 
L 224.028665 203.026301 
L 225.044226 203.10156 
L 226.059787 202.806752 
L 227.075348 202.137465 
L 228.090909 201.093259 
L 229.10647 199.677671 
L 230.122031 197.898173 
L 231.137592 195.76609 
L 232.660934 191.940802 
L 234.184275 187.422669 
L 236.215397 180.465157 
L 238.246519 172.658647 
L 241.293202 159.958114 
L 246.371007 138.684345 
L 248.402129 131.035577 
L 250.433251 124.306527 
L 251.956593 120.010461 
L 253.479934 116.45475 
L 254.495495 114.53079 
L 255.511057 112.98365 
L 256.526618 111.826014 
L 257.542179 111.066755 
L 258.55774 110.71084 
L 259.573301 110.759277 
L 260.588862 111.209102 
L 261.604423 112.053401 
L 262.619984 113.281382 
L 263.635545 114.878476 
L 264.651106 116.826478 
L 266.174447 120.35816 
L 267.697789 124.543376 
L 269.728911 130.963961 
L 272.267813 139.952121 
L 279.37674 165.898295 
L 281.407862 172.184264 
L 282.931204 176.246004 
L 284.454545 179.640043 
L 285.470106 181.491075 
L 286.485667 182.989098 
L 287.501229 184.117813 
L 288.51679 184.864663 
L 289.532351 185.220962 
L 290.547912 185.181981 
L 291.563473 184.747001 
L 292.579034 183.919325 
L 293.594595 182.706246 
L 294.610156 181.118978 
L 295.625717 179.172549 
L 297.149058 175.621337 
L 298.6724 171.382472 
L 300.195741 166.549427 
L 302.226863 159.368256 
L 305.273546 147.606318 
L 309.843571 129.846438 
L 311.874693 122.730755 
L 313.398034 117.971186 
L 314.921376 113.83129 
L 316.444717 110.409552 
L 317.460278 108.569173 
L 318.475839 107.105861 
L 319.4914 106.036566 
L 320.506962 105.374501 
L 321.522523 105.12901 
L 322.538084 105.305482 
L 323.553645 105.9053 
L 324.569206 106.925833 
L 325.584767 108.360468 
L 326.600328 110.198673 
L 327.615889 112.426116 
L 329.13923 116.456785 
L 330.662572 121.246781 
L 332.185913 126.7051 
L 334.217035 134.839669 
L 336.755938 145.987712 
L 343.864865 178.05821 
L 345.895987 186.130184 
L 347.927109 193.219317 
L 349.45045 197.763033 
L 350.973792 201.56488 
L 351.989353 203.660837 
L 353.004914 205.392813 
L 354.020475 206.753924 
L 355.036036 207.741215 
L 356.051597 208.355689 
L 357.067158 208.60229 
L 358.082719 208.489848 
L 359.09828 208.030985 
L 360.113841 207.241986 
L 361.129402 206.142625 
L 362.144963 204.755963 
L 363.668305 202.195173 
L 365.191646 199.146912 
L 367.222768 194.518042 
L 374.839476 176.280577 
L 376.362817 173.405355 
L 377.886159 171.06478 
L 378.90172 169.851111 
L 379.917281 168.945649 
L 380.932842 168.371407 
L 381.948403 168.148088 
L 382.963964 168.291879 
L 383.979525 168.815277 
L 384.995086 169.726953 
L 386.010647 171.031652 
L 387.026208 172.730134 
L 388.041769 174.819157 
L 389.565111 178.668066 
L 391.088452 183.337663 
L 392.611794 188.768106 
L 394.642916 197.055774 
L 396.674038 206.328751 
L 399.720721 221.487054 
L 405.814087 252.418667 
L 407.845209 261.724383 
L 409.876331 270.022273 
L 411.399672 275.427813 
L 412.923014 280.028326 
L 414.446355 283.74775 
L 415.461916 285.708401 
L 416.477477 287.238723 
L 417.493038 288.330121 
L 418.5086 288.977997 
L 419.524161 289.181787 
L 420.539722 288.944964 
L 421.555283 288.274992 
L 422.570844 287.183252 
L 423.586405 285.684915 
L 424.601966 283.798795 
L 425.617527 281.547147 
L 427.140868 277.540856 
L 428.66421 272.868308 
L 430.695332 265.795032 
L 433.234234 256.010393 
L 439.835381 229.870181 
L 441.866503 222.813117 
L 443.389844 218.119936 
L 444.913186 214.041447 
L 446.436527 210.651123 
L 447.452088 208.80157 
L 448.467649 207.295023 
L 449.48321 206.139581 
L 450.498771 205.339427 
L 451.514333 204.894791 
L 452.529894 204.801957 
L 453.545455 205.053306 
L 454.561016 205.637397 
L 455.576577 206.539093 
L 456.592138 207.739717 
L 457.607699 209.21725 
L 459.13104 211.89698 
L 460.654382 215.045957 
L 462.685504 219.785113 
L 469.794431 237.183932 
L 471.317772 240.229544 
L 472.841114 242.764224 
L 473.856675 244.117666 
L 474.872236 245.168882 
L 475.887797 245.892637 
L 476.903358 246.26681 
L 477.918919 246.272633 
L 478.93448 245.89489 
L 479.950041 245.122077 
L 480.965602 243.946533 
L 481.981163 242.364526 
L 482.996724 240.376306 
L 484.012285 237.986111 
L 485.535627 233.666112 
L 487.058968 228.504984 
L 488.58231 222.565434 
L 490.613432 213.575968 
L 492.644554 203.579404 
L 495.691237 187.302197 
L 502.292383 151.411155 
L 504.831286 139.17539 
L 506.862408 130.610217 
L 508.385749 125.053567 
L 509.909091 120.328443 
L 511.432432 116.495132 
L 512.447993 114.456228 
L 513.463554 112.839762 
L 514.479115 111.649052 
L 515.494676 110.883384 
L 516.510238 110.538012 
L 517.525799 110.60422 
L 518.54136 111.069406 
L 519.556921 111.917218 
L 520.572482 113.127714 
L 521.588043 114.677569 
L 523.111384 117.579939 
L 524.634726 121.084423 
L 526.665848 126.496107 
L 529.20475 134.029995 
L 534.282555 149.318451 
L 536.313677 154.653853 
L 537.837019 158.098227 
L 539.36036 160.951317 
L 540.375921 162.481358 
L 541.391482 163.687941 
L 542.407043 164.552785 
L 543.422604 165.061249 
L 544.438165 165.202473 
L 545.453726 164.969485 
L 546.469287 164.359265 
L 547.484848 163.372771 
L 548.50041 162.014928 
L 549.515971 160.294569 
L 550.531532 158.224345 
L 552.054873 154.499723 
L 553.578215 150.095266 
L 555.609337 143.315763 
L 557.640459 135.724022 
L 561.194922 121.330517 
L 565.257166 104.975502 
L 567.288288 97.567324 
L 569.31941 91.052054 
L 570.842752 86.900713 
L 572.366093 83.478193 
L 573.381654 81.637537 
L 574.397215 80.169995 
L 575.412776 79.088869 
L 576.428337 78.403666 
L 577.443898 78.12 
L 578.459459 78.23953 
L 579.47502 78.759943 
L 580.490581 79.674971 
L 581.506143 80.97445 
L 582.521704 82.644421 
L 583.537265 84.667266 
L 585.060606 88.316101 
L 586.583948 92.625838 
L 588.61507 99.22645 
L 591.153972 108.465934 
L 598.262899 135.28958 
L 600.294021 141.870978 
L 601.817363 146.164912 
L 603.340704 149.798659 
L 604.356265 151.812856 
L 605.371826 153.476103 
L 606.387387 154.771534 
L 607.402948 155.685996 
L 608.418509 156.21019 
L 609.43407 156.338764 
L 610.449631 156.070369 
L 611.465192 155.407678 
L 612.480753 154.357362 
L 613.496314 152.930027 
L 614.511876 151.140112 
L 616.035217 147.816037 
L 617.558559 143.793592 
L 619.0819 139.164685 
L 621.113022 132.234329 
L 622.636364 126.622368 
L 622.636364 126.622368 
" clip-path="url(#p1c01345efc)" style="fill: none; stroke: #ff0000; stroke-width: 1.5; stroke-linecap: square"/>
   </g>
   <g id="patch_3">
    <path d="M 90 448.56 
L 90 60.48 
" style="fill: none; stroke: #000000; stroke-width: 0.8; stroke-linejoin: miter; stroke-linecap: square"/>
   </g>
   <g id="patch_4">
    <path d="M 648 448.56 
L 648 60.48 
" style="fill: none; stroke: #000000; stroke-width: 0.8; stroke-linejoin: miter; stroke-linecap: square"/>
   </g>
   <g id="patch_5">
    <path d="M 90 448.56 
L 648 448.56 
" style="fill: none; stroke: #000000; stroke-width: 0.8; stroke-linejoin: miter; stroke-linecap: square"/>
   </g>
   <g id="patch_6">
    <path d="M 90 60.48 
L 648 60.48 
" style="fill: none; stroke: #000000; stroke-width: 0.8; stroke-linejoin: miter; stroke-linecap: square"/>
   </g>
   <g id="text_15">
    <!-- Function approximation using least squares method -->
    <g transform="translate(213.150937 25.355625) scale(0.12 -0.12)">
     <defs>
      <path id="DejaVuSans-46" d="M 628 4666 
L 3309 4666 
L 3309 4134 
L 1259 4134 
L 1259 2759 
L 3109 2759 
L 3109 2228 
L 1259 2228 
L 1259 0 
L 628 0 
L 628 4666 
z
" transform="scale(0.015625)"/>
      <path id="DejaVuSans-75" d="M 544 1381 
L 544 3500 
L 1119 3500 
L 1119 1403 
Q 1119 906 1312 657 
Q 1506 409 1894 409 
Q 2359 409 2629 706 
Q 2900 1003 2900 1516 
L 2900 3500 
L 3475 3500 
L 3475 0 
L 2900 0 
L 2900 538 
Q 2691 219 2414 64 
Q 2138 -91 1772 -91 
Q 1169 -91 856 284 
Q 544 659 544 1381 
z
M 1991 3584 
L 1991 3584 
z
" transform="scale(0.015625)"/>
      <path id="DejaVuSans-6e" d="M 3513 2113 
L 3513 0 
L 2938 0 
L 2938 2094 
Q 2938 2591 2744 2837 
Q 2550 3084 2163 3084 
Q 1697 3084 1428 2787 
Q 1159 2491 1159 1978 
L 1159 0 
L 581 0 
L 581 3500 
L 1159 3500 
L 1159 2956 
Q 1366 3272 1645 3428 
Q 1925 3584 2291 3584 
Q 2894 3584 3203 3211 
Q 3513 2838 3513 2113 
z
" transform="scale(0.015625)"/>
      <path id="DejaVuSans-63" d="M 3122 3366 
L 3122 2828 
Q 2878 2963 2633 3030 
Q 2388 3097 2138 3097 
Q 1578 3097 1268 2742 
Q 959 2388 959 1747 
Q 959 1106 1268 751 
Q 1578 397 2138 397 
Q 2388 397 2633 464 
Q 2878 531 3122 666 
L 3122 134 
Q 2881 22 2623 -34 
Q 2366 -91 2075 -91 
Q 1284 -91 818 406 
Q 353 903 353 1747 
Q 353 2603 823 3093 
Q 1294 3584 2113 3584 
Q 2378 3584 2631 3529 
Q 2884 3475 3122 3366 
z
" transform="scale(0.015625)"/>
      <path id="DejaVuSans-74" d="M 1172 4494 
L 1172 3500 
L 2356 3500 
L 2356 3053 
L 1172 3053 
L 1172 1153 
Q 1172 725 1289 603 
Q 1406 481 1766 481 
L 2356 481 
L 2356 0 
L 1766 0 
Q 1100 0 847 248 
Q 594 497 594 1153 
L 594 3053 
L 172 3053 
L 172 3500 
L 594 3500 
L 594 4494 
L 1172 4494 
z
" transform="scale(0.015625)"/>
      <path id="DejaVuSans-69" d="M 603 3500 
L 1178 3500 
L 1178 0 
L 603 0 
L 603 3500 
z
M 603 4863 
L 1178 4863 
L 1178 4134 
L 603 4134 
L 603 4863 
z
" transform="scale(0.015625)"/>
      <path id="DejaVuSans-6f" d="M 1959 3097 
Q 1497 3097 1228 2736 
Q 959 2375 959 1747 
Q 959 1119 1226 758 
Q 1494 397 1959 397 
Q 2419 397 2687 759 
Q 2956 1122 2956 1747 
Q 2956 2369 2687 2733 
Q 2419 3097 1959 3097 
z
M 1959 3584 
Q 2709 3584 3137 3096 
Q 3566 2609 3566 1747 
Q 3566 888 3137 398 
Q 2709 -91 1959 -91 
Q 1206 -91 779 398 
Q 353 888 353 1747 
Q 353 2609 779 3096 
Q 1206 3584 1959 3584 
z
" transform="scale(0.015625)"/>
      <path id="DejaVuSans-20" transform="scale(0.015625)"/>
      <path id="DejaVuSans-61" d="M 2194 1759 
Q 1497 1759 1228 1600 
Q 959 1441 959 1056 
Q 959 750 1161 570 
Q 1363 391 1709 391 
Q 2188 391 2477 730 
Q 2766 1069 2766 1631 
L 2766 1759 
L 2194 1759 
z
M 3341 1997 
L 3341 0 
L 2766 0 
L 2766 531 
Q 2569 213 2275 61 
Q 1981 -91 1556 -91 
Q 1019 -91 701 211 
Q 384 513 384 1019 
Q 384 1609 779 1909 
Q 1175 2209 1959 2209 
L 2766 2209 
L 2766 2266 
Q 2766 2663 2505 2880 
Q 2244 3097 1772 3097 
Q 1472 3097 1187 3025 
Q 903 2953 641 2809 
L 641 3341 
Q 956 3463 1253 3523 
Q 1550 3584 1831 3584 
Q 2591 3584 2966 3190 
Q 3341 2797 3341 1997 
z
" transform="scale(0.015625)"/>
      <path id="DejaVuSans-70" d="M 1159 525 
L 1159 -1331 
L 581 -1331 
L 581 3500 
L 1159 3500 
L 1159 2969 
Q 1341 3281 1617 3432 
Q 1894 3584 2278 3584 
Q 2916 3584 3314 3078 
Q 3713 2572 3713 1747 
Q 3713 922 3314 415 
Q 2916 -91 2278 -91 
Q 1894 -91 1617 61 
Q 1341 213 1159 525 
z
M 3116 1747 
Q 3116 2381 2855 2742 
Q 2594 3103 2138 3103 
Q 1681 3103 1420 2742 
Q 1159 2381 1159 1747 
Q 1159 1113 1420 752 
Q 1681 391 2138 391 
Q 2594 391 2855 752 
Q 3116 1113 3116 1747 
z
" transform="scale(0.015625)"/>
      <path id="DejaVuSans-72" d="M 2631 2963 
Q 2534 3019 2420 3045 
Q 2306 3072 2169 3072 
Q 1681 3072 1420 2755 
Q 1159 2438 1159 1844 
L 1159 0 
L 581 0 
L 581 3500 
L 1159 3500 
L 1159 2956 
Q 1341 3275 1631 3429 
Q 1922 3584 2338 3584 
Q 2397 3584 2469 3576 
Q 2541 3569 2628 3553 
L 2631 2963 
z
" transform="scale(0.015625)"/>
      <path id="DejaVuSans-6d" d="M 3328 2828 
Q 3544 3216 3844 3400 
Q 4144 3584 4550 3584 
Q 5097 3584 5394 3201 
Q 5691 2819 5691 2113 
L 5691 0 
L 5113 0 
L 5113 2094 
Q 5113 2597 4934 2840 
Q 4756 3084 4391 3084 
Q 3944 3084 3684 2787 
Q 3425 2491 3425 1978 
L 3425 0 
L 2847 0 
L 2847 2094 
Q 2847 2600 2669 2842 
Q 2491 3084 2119 3084 
Q 1678 3084 1418 2786 
Q 1159 2488 1159 1978 
L 1159 0 
L 581 0 
L 581 3500 
L 1159 3500 
L 1159 2956 
Q 1356 3278 1631 3431 
Q 1906 3584 2284 3584 
Q 2666 3584 2933 3390 
Q 3200 3197 3328 2828 
z
" transform="scale(0.015625)"/>
      <path id="DejaVuSans-73" d="M 2834 3397 
L 2834 2853 
Q 2591 2978 2328 3040 
Q 2066 3103 1784 3103 
Q 1356 3103 1142 2972 
Q 928 2841 928 2578 
Q 928 2378 1081 2264 
Q 1234 2150 1697 2047 
L 1894 2003 
Q 2506 1872 2764 1633 
Q 3022 1394 3022 966 
Q 3022 478 2636 193 
Q 2250 -91 1575 -91 
Q 1294 -91 989 -36 
Q 684 19 347 128 
L 347 722 
Q 666 556 975 473 
Q 1284 391 1588 391 
Q 1994 391 2212 530 
Q 2431 669 2431 922 
Q 2431 1156 2273 1281 
Q 2116 1406 1581 1522 
L 1381 1569 
Q 847 1681 609 1914 
Q 372 2147 372 2553 
Q 372 3047 722 3315 
Q 1072 3584 1716 3584 
Q 2034 3584 2315 3537 
Q 2597 3491 2834 3397 
z
" transform="scale(0.015625)"/>
      <path id="DejaVuSans-67" d="M 2906 1791 
Q 2906 2416 2648 2759 
Q 2391 3103 1925 3103 
Q 1463 3103 1205 2759 
Q 947 2416 947 1791 
Q 947 1169 1205 825 
Q 1463 481 1925 481 
Q 2391 481 2648 825 
Q 2906 1169 2906 1791 
z
M 3481 434 
Q 3481 -459 3084 -895 
Q 2688 -1331 1869 -1331 
Q 1566 -1331 1297 -1286 
Q 1028 -1241 775 -1147 
L 775 -588 
Q 1028 -725 1275 -790 
Q 1522 -856 1778 -856 
Q 2344 -856 2625 -561 
Q 2906 -266 2906 331 
L 2906 616 
Q 2728 306 2450 153 
Q 2172 0 1784 0 
Q 1141 0 747 490 
Q 353 981 353 1791 
Q 353 2603 747 3093 
Q 1141 3584 1784 3584 
Q 2172 3584 2450 3431 
Q 2728 3278 2906 2969 
L 2906 3500 
L 3481 3500 
L 3481 434 
z
" transform="scale(0.015625)"/>
      <path id="DejaVuSans-6c" d="M 603 4863 
L 1178 4863 
L 1178 0 
L 603 0 
L 603 4863 
z
" transform="scale(0.015625)"/>
      <path id="DejaVuSans-65" d="M 3597 1894 
L 3597 1613 
L 953 1613 
Q 991 1019 1311 708 
Q 1631 397 2203 397 
Q 2534 397 2845 478 
Q 3156 559 3463 722 
L 3463 178 
Q 3153 47 2828 -22 
Q 2503 -91 2169 -91 
Q 1331 -91 842 396 
Q 353 884 353 1716 
Q 353 2575 817 3079 
Q 1281 3584 2069 3584 
Q 2775 3584 3186 3129 
Q 3597 2675 3597 1894 
z
M 3022 2063 
Q 3016 2534 2758 2815 
Q 2500 3097 2075 3097 
Q 1594 3097 1305 2825 
Q 1016 2553 972 2059 
L 3022 2063 
z
" transform="scale(0.015625)"/>
      <path id="DejaVuSans-71" d="M 947 1747 
Q 947 1113 1208 752 
Q 1469 391 1925 391 
Q 2381 391 2643 752 
Q 2906 1113 2906 1747 
Q 2906 2381 2643 2742 
Q 2381 3103 1925 3103 
Q 1469 3103 1208 2742 
Q 947 2381 947 1747 
z
M 2906 525 
Q 2725 213 2448 61 
Q 2172 -91 1784 -91 
Q 1150 -91 751 415 
Q 353 922 353 1747 
Q 353 2572 751 3078 
Q 1150 3584 1784 3584 
Q 2172 3584 2448 3432 
Q 2725 3281 2906 2969 
L 2906 3500 
L 3481 3500 
L 3481 -1331 
L 2906 -1331 
L 2906 525 
z
" transform="scale(0.015625)"/>
      <path id="DejaVuSans-68" d="M 3513 2113 
L 3513 0 
L 2938 0 
L 2938 2094 
Q 2938 2591 2744 2837 
Q 2550 3084 2163 3084 
Q 1697 3084 1428 2787 
Q 1159 2491 1159 1978 
L 1159 0 
L 581 0 
L 581 4863 
L 1159 4863 
L 1159 2956 
Q 1366 3272 1645 3428 
Q 1925 3584 2291 3584 
Q 2894 3584 3203 3211 
Q 3513 2838 3513 2113 
z
" transform="scale(0.015625)"/>
      <path id="DejaVuSans-64" d="M 2906 2969 
L 2906 4863 
L 3481 4863 
L 3481 0 
L 2906 0 
L 2906 525 
Q 2725 213 2448 61 
Q 2172 -91 1784 -91 
Q 1150 -91 751 415 
Q 353 922 353 1747 
Q 353 2572 751 3078 
Q 1150 3584 1784 3584 
Q 2172 3584 2448 3432 
Q 2725 3281 2906 2969 
z
M 947 1747 
Q 947 1113 1208 752 
Q 1469 391 1925 391 
Q 2381 391 2643 752 
Q 2906 1113 2906 1747 
Q 2906 2381 2643 2742 
Q 2381 3103 1925 3103 
Q 1469 3103 1208 2742 
Q 947 2381 947 1747 
z
" transform="scale(0.015625)"/>
     </defs>
     <use xlink:href="#DejaVuSans-46"/>
     <use xlink:href="#DejaVuSans-75" x="52.019531"/>
     <use xlink:href="#DejaVuSans-6e" x="115.398438"/>
     <use xlink:href="#DejaVuSans-63" x="178.777344"/>
     <use xlink:href="#DejaVuSans-74" x="233.757812"/>
     <use xlink:href="#DejaVuSans-69" x="272.966797"/>
     <use xlink:href="#DejaVuSans-6f" x="300.75"/>
     <use xlink:href="#DejaVuSans-6e" x="361.931641"/>
     <use xlink:href="#DejaVuSans-20" x="425.310547"/>
     <use xlink:href="#DejaVuSans-61" x="457.097656"/>
     <use xlink:href="#DejaVuSans-70" x="518.376953"/>
     <use xlink:href="#DejaVuSans-70" x="581.853516"/>
     <use xlink:href="#DejaVuSans-72" x="645.330078"/>
     <use xlink:href="#DejaVuSans-6f" x="684.193359"/>
     <use xlink:href="#DejaVuSans-78" x="742.25"/>
     <use xlink:href="#DejaVuSans-69" x="801.429688"/>
     <use xlink:href="#DejaVuSans-6d" x="829.212891"/>
     <use xlink:href="#DejaVuSans-61" x="926.625"/>
     <use xlink:href="#DejaVuSans-74" x="987.904297"/>
     <use xlink:href="#DejaVuSans-69" x="1027.113281"/>
     <use xlink:href="#DejaVuSans-6f" x="1054.896484"/>
     <use xlink:href="#DejaVuSans-6e" x="1116.078125"/>
     <use xlink:href="#DejaVuSans-20" x="1179.457031"/>
     <use xlink:href="#DejaVuSans-75" x="1211.244141"/>
     <use xlink:href="#DejaVuSans-73" x="1274.623047"/>
     <use xlink:href="#DejaVuSans-69" x="1326.722656"/>
     <use xlink:href="#DejaVuSans-6e" x="1354.505859"/>
     <use xlink:href="#DejaVuSans-67" x="1417.884766"/>
     <use xlink:href="#DejaVuSans-20" x="1481.361328"/>
     <use xlink:href="#DejaVuSans-6c" x="1513.148438"/>
     <use xlink:href="#DejaVuSans-65" x="1540.931641"/>
     <use xlink:href="#DejaVuSans-61" x="1602.455078"/>
     <use xlink:href="#DejaVuSans-73" x="1663.734375"/>
     <use xlink:href="#DejaVuSans-74" x="1715.833984"/>
     <use xlink:href="#DejaVuSans-20" x="1755.042969"/>
     <use xlink:href="#DejaVuSans-73" x="1786.830078"/>
     <use xlink:href="#DejaVuSans-71" x="1838.929688"/>
     <use xlink:href="#DejaVuSans-75" x="1902.40625"/>
     <use xlink:href="#DejaVuSans-61" x="1965.785156"/>
     <use xlink:href="#DejaVuSans-72" x="2027.064453"/>
     <use xlink:href="#DejaVuSans-65" x="2065.927734"/>
     <use xlink:href="#DejaVuSans-73" x="2127.451172"/>
     <use xlink:href="#DejaVuSans-20" x="2179.550781"/>
     <use xlink:href="#DejaVuSans-6d" x="2211.337891"/>
     <use xlink:href="#DejaVuSans-65" x="2308.75"/>
     <use xlink:href="#DejaVuSans-74" x="2370.273438"/>
     <use xlink:href="#DejaVuSans-68" x="2409.482422"/>
     <use xlink:href="#DejaVuSans-6f" x="2472.861328"/>
     <use xlink:href="#DejaVuSans-64" x="2534.042969"/>
    </g>
    <!-- $F(x)=a*log(x)+b*cos(x)+c*sin(x)^2+d*sin(5*x)$ -->
    <g transform="translate(210.48 40.95525) scale(0.12 -0.12)">
     <defs>
      <path id="DejaVuSans-Oblique-46" d="M 1081 4666 
L 3756 4666 
L 3653 4134 
L 1606 4134 
L 1338 2759 
L 3188 2759 
L 3084 2228 
L 1234 2228 
L 800 0 
L 172 0 
L 1081 4666 
z
" transform="scale(0.015625)"/>
      <path id="DejaVuSans-28" d="M 1984 4856 
Q 1566 4138 1362 3434 
Q 1159 2731 1159 2009 
Q 1159 1288 1364 580 
Q 1569 -128 1984 -844 
L 1484 -844 
Q 1016 -109 783 600 
Q 550 1309 550 2009 
Q 550 2706 781 3412 
Q 1013 4119 1484 4856 
L 1984 4856 
z
" transform="scale(0.015625)"/>
      <path id="DejaVuSans-Oblique-78" d="M 3841 3500 
L 2234 1784 
L 3219 0 
L 2559 0 
L 1819 1388 
L 531 0 
L -166 0 
L 1556 1844 
L 641 3500 
L 1300 3500 
L 1972 2234 
L 3144 3500 
L 3841 3500 
z
" transform="scale(0.015625)"/>
      <path id="DejaVuSans-29" d="M 513 4856 
L 1013 4856 
Q 1481 4119 1714 3412 
Q 1947 2706 1947 2009 
Q 1947 1309 1714 600 
Q 1481 -109 1013 -844 
L 513 -844 
Q 928 -128 1133 580 
Q 1338 1288 1338 2009 
Q 1338 2731 1133 3434 
Q 928 4138 513 4856 
z
" transform="scale(0.015625)"/>
      <path id="DejaVuSans-3d" d="M 678 2906 
L 4684 2906 
L 4684 2381 
L 678 2381 
L 678 2906 
z
M 678 1631 
L 4684 1631 
L 4684 1100 
L 678 1100 
L 678 1631 
z
" transform="scale(0.015625)"/>
      <path id="DejaVuSans-Oblique-61" d="M 3438 1997 
L 3047 0 
L 2472 0 
L 2578 531 
Q 2325 219 2001 64 
Q 1678 -91 1281 -91 
Q 834 -91 548 182 
Q 263 456 263 884 
Q 263 1497 752 1853 
Q 1241 2209 2100 2209 
L 2900 2209 
L 2931 2363 
Q 2938 2388 2941 2417 
Q 2944 2447 2944 2509 
Q 2944 2788 2717 2942 
Q 2491 3097 2081 3097 
Q 1800 3097 1504 3025 
Q 1209 2953 897 2809 
L 997 3341 
Q 1322 3463 1633 3523 
Q 1944 3584 2234 3584 
Q 2853 3584 3176 3315 
Q 3500 3047 3500 2534 
Q 3500 2431 3484 2292 
Q 3469 2153 3438 1997 
z
M 2816 1759 
L 2241 1759 
Q 1534 1759 1195 1570 
Q 856 1381 856 984 
Q 856 709 1029 553 
Q 1203 397 1509 397 
Q 1978 397 2328 733 
Q 2678 1069 2791 1631 
L 2816 1759 
z
" transform="scale(0.015625)"/>
      <path id="DejaVuSans-2a" d="M 3009 3897 
L 1888 3291 
L 3009 2681 
L 2828 2375 
L 1778 3009 
L 1778 1831 
L 1422 1831 
L 1422 3009 
L 372 2375 
L 191 2681 
L 1313 3291 
L 191 3897 
L 372 4206 
L 1422 3572 
L 1422 4750 
L 1778 4750 
L 1778 3572 
L 2828 4206 
L 3009 3897 
z
" transform="scale(0.015625)"/>
      <path id="DejaVuSans-Oblique-6c" d="M 1172 4863 
L 1747 4863 
L 800 0 
L 225 0 
L 1172 4863 
z
" transform="scale(0.015625)"/>
      <path id="DejaVuSans-Oblique-6f" d="M 1625 -91 
Q 1009 -91 651 289 
Q 294 669 294 1325 
Q 294 1706 417 2101 
Q 541 2497 738 2766 
Q 1047 3184 1428 3384 
Q 1809 3584 2291 3584 
Q 2888 3584 3255 3212 
Q 3622 2841 3622 2241 
Q 3622 1825 3500 1412 
Q 3378 1000 3181 728 
Q 2875 309 2494 109 
Q 2113 -91 1625 -91 
z
M 891 1344 
Q 891 869 1089 633 
Q 1288 397 1691 397 
Q 2269 397 2648 901 
Q 3028 1406 3028 2181 
Q 3028 2634 2825 2865 
Q 2622 3097 2228 3097 
Q 1903 3097 1650 2945 
Q 1397 2794 1197 2484 
Q 1050 2253 970 1956 
Q 891 1659 891 1344 
z
" transform="scale(0.015625)"/>
      <path id="DejaVuSans-Oblique-67" d="M 3816 3500 
L 3219 434 
Q 3047 -456 2561 -893 
Q 2075 -1331 1253 -1331 
Q 950 -1331 690 -1286 
Q 431 -1241 206 -1147 
L 313 -588 
Q 525 -725 762 -790 
Q 1000 -856 1269 -856 
Q 1816 -856 2167 -557 
Q 2519 -259 2631 300 
L 2681 563 
Q 2441 288 2122 144 
Q 1803 0 1434 0 
Q 903 0 598 351 
Q 294 703 294 1319 
Q 294 1803 478 2267 
Q 663 2731 997 3091 
Q 1219 3328 1514 3456 
Q 1809 3584 2131 3584 
Q 2484 3584 2746 3420 
Q 3009 3256 3138 2956 
L 3238 3500 
L 3816 3500 
z
M 2950 2216 
Q 2950 2641 2750 2872 
Q 2550 3103 2181 3103 
Q 1953 3103 1747 3012 
Q 1541 2922 1394 2759 
Q 1156 2491 1023 2127 
Q 891 1763 891 1375 
Q 891 944 1092 712 
Q 1294 481 1672 481 
Q 2219 481 2584 976 
Q 2950 1472 2950 2216 
z
" transform="scale(0.015625)"/>
      <path id="DejaVuSans-2b" d="M 2944 4013 
L 2944 2272 
L 4684 2272 
L 4684 1741 
L 2944 1741 
L 2944 0 
L 2419 0 
L 2419 1741 
L 678 1741 
L 678 2272 
L 2419 2272 
L 2419 4013 
L 2944 4013 
z
" transform="scale(0.015625)"/>
      <path id="DejaVuSans-Oblique-62" d="M 3169 2138 
Q 3169 2591 2961 2847 
Q 2753 3103 2388 3103 
Q 2122 3103 1889 2973 
Q 1656 2844 1484 2597 
Q 1303 2338 1198 1995 
Q 1094 1653 1094 1313 
Q 1094 881 1298 636 
Q 1503 391 1863 391 
Q 2134 391 2365 517 
Q 2597 644 2772 891 
Q 2950 1147 3059 1487 
Q 3169 1828 3169 2138 
z
M 1381 2969 
Q 1594 3256 1914 3420 
Q 2234 3584 2584 3584 
Q 3122 3584 3439 3221 
Q 3756 2859 3756 2241 
Q 3756 1734 3570 1259 
Q 3384 784 3041 416 
Q 2816 172 2522 40 
Q 2228 -91 1906 -91 
Q 1566 -91 1316 65 
Q 1066 222 909 531 
L 806 0 
L 231 0 
L 1178 4863 
L 1753 4863 
L 1381 2969 
z
" transform="scale(0.015625)"/>
      <path id="DejaVuSans-Oblique-63" d="M 3431 3366 
L 3316 2797 
Q 3109 2947 2876 3022 
Q 2644 3097 2394 3097 
Q 2119 3097 1870 3000 
Q 1622 2903 1453 2725 
Q 1184 2453 1037 2087 
Q 891 1722 891 1331 
Q 891 859 1127 628 
Q 1363 397 1844 397 
Q 2081 397 2348 469 
Q 2616 541 2906 684 
L 2797 116 
Q 2547 13 2283 -39 
Q 2019 -91 1741 -91 
Q 1044 -91 669 257 
Q 294 606 294 1253 
Q 294 1797 489 2255 
Q 684 2713 1069 3078 
Q 1331 3328 1684 3456 
Q 2038 3584 2456 3584 
Q 2700 3584 2940 3529 
Q 3181 3475 3431 3366 
z
" transform="scale(0.015625)"/>
      <path id="DejaVuSans-Oblique-73" d="M 3200 3397 
L 3091 2853 
Q 2863 2978 2609 3040 
Q 2356 3103 2088 3103 
Q 1634 3103 1373 2948 
Q 1113 2794 1113 2528 
Q 1113 2219 1719 2053 
Q 1766 2041 1788 2034 
L 1972 1978 
Q 2547 1819 2739 1644 
Q 2931 1469 2931 1166 
Q 2931 609 2489 259 
Q 2047 -91 1331 -91 
Q 1053 -91 747 -37 
Q 441 16 72 128 
L 184 722 
Q 500 559 806 475 
Q 1113 391 1394 391 
Q 1816 391 2080 572 
Q 2344 753 2344 1031 
Q 2344 1331 1650 1516 
L 1591 1531 
L 1394 1581 
Q 956 1697 753 1886 
Q 550 2075 550 2369 
Q 550 2928 970 3256 
Q 1391 3584 2113 3584 
Q 2397 3584 2667 3537 
Q 2938 3491 3200 3397 
z
" transform="scale(0.015625)"/>
      <path id="DejaVuSans-Oblique-69" d="M 1172 4863 
L 1747 4863 
L 1606 4134 
L 1031 4134 
L 1172 4863 
z
M 909 3500 
L 1484 3500 
L 800 0 
L 225 0 
L 909 3500 
z
" transform="scale(0.015625)"/>
      <path id="DejaVuSans-Oblique-6e" d="M 3566 2113 
L 3156 0 
L 2578 0 
L 2988 2091 
Q 3016 2238 3031 2350 
Q 3047 2463 3047 2528 
Q 3047 2791 2881 2937 
Q 2716 3084 2419 3084 
Q 1956 3084 1622 2776 
Q 1288 2469 1184 1941 
L 800 0 
L 225 0 
L 903 3500 
L 1478 3500 
L 1363 2950 
Q 1603 3253 1940 3418 
Q 2278 3584 2650 3584 
Q 3113 3584 3367 3334 
Q 3622 3084 3622 2631 
Q 3622 2519 3608 2391 
Q 3594 2263 3566 2113 
z
" transform="scale(0.015625)"/>
      <path id="DejaVuSans-Oblique-64" d="M 2675 525 
Q 2444 222 2128 65 
Q 1813 -91 1428 -91 
Q 903 -91 598 267 
Q 294 625 294 1247 
Q 294 1766 478 2236 
Q 663 2706 1013 3078 
Q 1244 3325 1534 3454 
Q 1825 3584 2144 3584 
Q 2481 3584 2739 3421 
Q 2997 3259 3138 2956 
L 3513 4863 
L 4091 4863 
L 3144 0 
L 2566 0 
L 2675 525 
z
M 891 1350 
Q 891 897 1095 644 
Q 1300 391 1663 391 
Q 1931 391 2161 520 
Q 2391 650 2566 903 
Q 2750 1166 2856 1509 
Q 2963 1853 2963 2188 
Q 2963 2622 2758 2865 
Q 2553 3109 2194 3109 
Q 1922 3109 1687 2981 
Q 1453 2853 1288 2613 
Q 1106 2353 998 2009 
Q 891 1666 891 1350 
z
" transform="scale(0.015625)"/>
     </defs>
     <use xlink:href="#DejaVuSans-Oblique-46" transform="translate(0 0.765625)"/>
     <use xlink:href="#DejaVuSans-28" transform="translate(57.519531 0.765625)"/>
     <use xlink:href="#DejaVuSans-Oblique-78" transform="translate(96.533203 0.765625)"/>
     <use xlink:href="#DejaVuSans-29" transform="translate(155.712891 0.765625)"/>
     <use xlink:href="#DejaVuSans-3d" transform="translate(214.208984 0.765625)"/>
     <use xlink:href="#DejaVuSans-Oblique-61" transform="translate(317.480469 0.765625)"/>
     <use xlink:href="#DejaVuSans-2a" transform="translate(398.242188 0.765625)"/>
     <use xlink:href="#DejaVuSans-Oblique-6c" transform="translate(467.724609 0.765625)"/>
     <use xlink:href="#DejaVuSans-Oblique-6f" transform="translate(495.507812 0.765625)"/>
     <use xlink:href="#DejaVuSans-Oblique-67" transform="translate(556.689453 0.765625)"/>
     <use xlink:href="#DejaVuSans-28" transform="translate(620.166016 0.765625)"/>
     <use xlink:href="#DejaVuSans-Oblique-78" transform="translate(659.179688 0.765625)"/>
     <use xlink:href="#DejaVuSans-29" transform="translate(718.359375 0.765625)"/>
     <use xlink:href="#DejaVuSans-2b" transform="translate(776.855469 0.765625)"/>
     <use xlink:href="#DejaVuSans-Oblique-62" transform="translate(880.126953 0.765625)"/>
     <use xlink:href="#DejaVuSans-2a" transform="translate(963.085938 0.765625)"/>
     <use xlink:href="#DejaVuSans-Oblique-63" transform="translate(1032.568359 0.765625)"/>
     <use xlink:href="#DejaVuSans-Oblique-6f" transform="translate(1087.548828 0.765625)"/>
     <use xlink:href="#DejaVuSans-Oblique-73" transform="translate(1148.730469 0.765625)"/>
     <use xlink:href="#DejaVuSans-28" transform="translate(1200.830078 0.765625)"/>
     <use xlink:href="#DejaVuSans-Oblique-78" transform="translate(1239.84375 0.765625)"/>
     <use xlink:href="#DejaVuSans-29" transform="translate(1299.023438 0.765625)"/>
     <use xlink:href="#DejaVuSans-2b" transform="translate(1357.519531 0.765625)"/>
     <use xlink:href="#DejaVuSans-Oblique-63" transform="translate(1460.791016 0.765625)"/>
     <use xlink:href="#DejaVuSans-2a" transform="translate(1535.253906 0.765625)"/>
     <use xlink:href="#DejaVuSans-Oblique-73" transform="translate(1604.736328 0.765625)"/>
     <use xlink:href="#DejaVuSans-Oblique-69" transform="translate(1656.835938 0.765625)"/>
     <use xlink:href="#DejaVuSans-Oblique-6e" transform="translate(1684.619141 0.765625)"/>
     <use xlink:href="#DejaVuSans-28" transform="translate(1747.998047 0.765625)"/>
     <use xlink:href="#DejaVuSans-Oblique-78" transform="translate(1787.011719 0.765625)"/>
     <use xlink:href="#DejaVuSans-29" transform="translate(1846.191406 0.765625)"/>
     <use xlink:href="#DejaVuSans-32" transform="translate(1886.162109 39.046875) scale(0.7)"/>
     <use xlink:href="#DejaVuSans-2b" transform="translate(1952.915039 0.765625)"/>
     <use xlink:href="#DejaVuSans-Oblique-64" transform="translate(2056.186523 0.765625)"/>
     <use xlink:href="#DejaVuSans-2a" transform="translate(2139.145508 0.765625)"/>
     <use xlink:href="#DejaVuSans-Oblique-73" transform="translate(2208.62793 0.765625)"/>
     <use xlink:href="#DejaVuSans-Oblique-69" transform="translate(2260.727539 0.765625)"/>
     <use xlink:href="#DejaVuSans-Oblique-6e" transform="translate(2288.510742 0.765625)"/>
     <use xlink:href="#DejaVuSans-28" transform="translate(2351.889648 0.765625)"/>
     <use xlink:href="#DejaVuSans-35" transform="translate(2390.90332 0.765625)"/>
     <use xlink:href="#DejaVuSans-2a" transform="translate(2474.008789 0.765625)"/>
     <use xlink:href="#DejaVuSans-Oblique-78" transform="translate(2543.491211 0.765625)"/>
     <use xlink:href="#DejaVuSans-29" transform="translate(2602.670898 0.765625)"/>
    </g>
    <!-- Number of points = 100  |  Noise scale = 1 -->
    <g transform="translate(240.25875 54.48) scale(0.12 -0.12)">
     <defs>
      <path id="DejaVuSans-4e" d="M 628 4666 
L 1478 4666 
L 3547 763 
L 3547 4666 
L 4159 4666 
L 4159 0 
L 3309 0 
L 1241 3903 
L 1241 0 
L 628 0 
L 628 4666 
z
" transform="scale(0.015625)"/>
      <path id="DejaVuSans-62" d="M 3116 1747 
Q 3116 2381 2855 2742 
Q 2594 3103 2138 3103 
Q 1681 3103 1420 2742 
Q 1159 2381 1159 1747 
Q 1159 1113 1420 752 
Q 1681 391 2138 391 
Q 2594 391 2855 752 
Q 3116 1113 3116 1747 
z
M 1159 2969 
Q 1341 3281 1617 3432 
Q 1894 3584 2278 3584 
Q 2916 3584 3314 3078 
Q 3713 2572 3713 1747 
Q 3713 922 3314 415 
Q 2916 -91 2278 -91 
Q 1894 -91 1617 61 
Q 1341 213 1159 525 
L 1159 0 
L 581 0 
L 581 4863 
L 1159 4863 
L 1159 2969 
z
" transform="scale(0.015625)"/>
      <path id="DejaVuSans-66" d="M 2375 4863 
L 2375 4384 
L 1825 4384 
Q 1516 4384 1395 4259 
Q 1275 4134 1275 3809 
L 1275 3500 
L 2222 3500 
L 2222 3053 
L 1275 3053 
L 1275 0 
L 697 0 
L 697 3053 
L 147 3053 
L 147 3500 
L 697 3500 
L 697 3744 
Q 697 4328 969 4595 
Q 1241 4863 1831 4863 
L 2375 4863 
z
" transform="scale(0.015625)"/>
      <path id="DejaVuSans-7c" d="M 1344 4891 
L 1344 -1509 
L 813 -1509 
L 813 4891 
L 1344 4891 
z
" transform="scale(0.015625)"/>
     </defs>
     <use xlink:href="#DejaVuSans-4e"/>
     <use xlink:href="#DejaVuSans-75" x="74.804688"/>
     <use xlink:href="#DejaVuSans-6d" x="138.183594"/>
     <use xlink:href="#DejaVuSans-62" x="235.595703"/>
     <use xlink:href="#DejaVuSans-65" x="299.072266"/>
     <use xlink:href="#DejaVuSans-72" x="360.595703"/>
     <use xlink:href="#DejaVuSans-20" x="401.708984"/>
     <use xlink:href="#DejaVuSans-6f" x="433.496094"/>
     <use xlink:href="#DejaVuSans-66" x="494.677734"/>
     <use xlink:href="#DejaVuSans-20" x="529.882812"/>
     <use xlink:href="#DejaVuSans-70" x="561.669922"/>
     <use xlink:href="#DejaVuSans-6f" x="625.146484"/>
     <use xlink:href="#DejaVuSans-69" x="686.328125"/>
     <use xlink:href="#DejaVuSans-6e" x="714.111328"/>
     <use xlink:href="#DejaVuSans-74" x="777.490234"/>
     <use xlink:href="#DejaVuSans-73" x="816.699219"/>
     <use xlink:href="#DejaVuSans-20" x="868.798828"/>
     <use xlink:href="#DejaVuSans-3d" x="900.585938"/>
     <use xlink:href="#DejaVuSans-20" x="984.375"/>
     <use xlink:href="#DejaVuSans-31" x="1016.162109"/>
     <use xlink:href="#DejaVuSans-30" x="1079.785156"/>
     <use xlink:href="#DejaVuSans-30" x="1143.408203"/>
     <use xlink:href="#DejaVuSans-20" x="1207.03125"/>
     <use xlink:href="#DejaVuSans-20" x="1238.818359"/>
     <use xlink:href="#DejaVuSans-7c" x="1270.605469"/>
     <use xlink:href="#DejaVuSans-20" x="1304.296875"/>
     <use xlink:href="#DejaVuSans-20" x="1336.083984"/>
     <use xlink:href="#DejaVuSans-4e" x="1367.871094"/>
     <use xlink:href="#DejaVuSans-6f" x="1442.675781"/>
     <use xlink:href="#DejaVuSans-69" x="1503.857422"/>
     <use xlink:href="#DejaVuSans-73" x="1531.640625"/>
     <use xlink:href="#DejaVuSans-65" x="1583.740234"/>
     <use xlink:href="#DejaVuSans-20" x="1645.263672"/>
     <use xlink:href="#DejaVuSans-73" x="1677.050781"/>
     <use xlink:href="#DejaVuSans-63" x="1729.150391"/>
     <use xlink:href="#DejaVuSans-61" x="1784.130859"/>
     <use xlink:href="#DejaVuSans-6c" x="1845.410156"/>
     <use xlink:href="#DejaVuSans-65" x="1873.193359"/>
     <use xlink:href="#DejaVuSans-20" x="1934.716797"/>
     <use xlink:href="#DejaVuSans-3d" x="1966.503906"/>
     <use xlink:href="#DejaVuSans-20" x="2050.292969"/>
     <use xlink:href="#DejaVuSans-31" x="2082.080078"/>
    </g>
   </g>
   <g id="legend_1">
    <g id="patch_7">
     <path d="M 316.525 443.56 
L 421.475 443.56 
Q 423.475 443.56 423.475 441.56 
L 423.475 413.20375 
Q 423.475 411.20375 421.475 411.20375 
L 316.525 411.20375 
Q 314.525 411.20375 314.525 413.20375 
L 314.525 441.56 
Q 314.525 443.56 316.525 443.56 
z
" style="fill: #ffffff; opacity: 0.8; stroke: #cccccc; stroke-linejoin: miter"/>
    </g>
    <g id="line2d_27">
     <path d="M 318.525 419.302188 
L 328.525 419.302188 
L 338.525 419.302188 
" style="fill: none; stroke: #000000; stroke-width: 4; stroke-linecap: square"/>
    </g>
    <g id="text_16">
     <!-- Exact function -->
     <g transform="translate(346.525 422.802188) scale(0.1 -0.1)">
      <defs>
       <path id="DejaVuSans-45" d="M 628 4666 
L 3578 4666 
L 3578 4134 
L 1259 4134 
L 1259 2753 
L 3481 2753 
L 3481 2222 
L 1259 2222 
L 1259 531 
L 3634 531 
L 3634 0 
L 628 0 
L 628 4666 
z
" transform="scale(0.015625)"/>
      </defs>
      <use xlink:href="#DejaVuSans-45"/>
      <use xlink:href="#DejaVuSans-78" x="63.183594"/>
      <use xlink:href="#DejaVuSans-61" x="122.363281"/>
      <use xlink:href="#DejaVuSans-63" x="183.642578"/>
      <use xlink:href="#DejaVuSans-74" x="238.623047"/>
      <use xlink:href="#DejaVuSans-20" x="277.832031"/>
      <use xlink:href="#DejaVuSans-66" x="309.619141"/>
      <use xlink:href="#DejaVuSans-75" x="344.824219"/>
      <use xlink:href="#DejaVuSans-6e" x="408.203125"/>
      <use xlink:href="#DejaVuSans-63" x="471.582031"/>
      <use xlink:href="#DejaVuSans-74" x="526.5625"/>
      <use xlink:href="#DejaVuSans-69" x="565.771484"/>
      <use xlink:href="#DejaVuSans-6f" x="593.554688"/>
      <use xlink:href="#DejaVuSans-6e" x="654.736328"/>
     </g>
    </g>
    <g id="line2d_28">
     <path d="M 318.525 433.980312 
L 328.525 433.980312 
L 338.525 433.980312 
" style="fill: none; stroke: #ff0000; stroke-width: 1.5; stroke-linecap: square"/>
    </g>
    <g id="text_17">
     <!-- Approximation -->
     <g transform="translate(346.525 437.480312) scale(0.1 -0.1)">
      <defs>
       <path id="DejaVuSans-41" d="M 2188 4044 
L 1331 1722 
L 3047 1722 
L 2188 4044 
z
M 1831 4666 
L 2547 4666 
L 4325 0 
L 3669 0 
L 3244 1197 
L 1141 1197 
L 716 0 
L 50 0 
L 1831 4666 
z
" transform="scale(0.015625)"/>
      </defs>
      <use xlink:href="#DejaVuSans-41"/>
      <use xlink:href="#DejaVuSans-70" x="68.408203"/>
      <use xlink:href="#DejaVuSans-70" x="131.884766"/>
      <use xlink:href="#DejaVuSans-72" x="195.361328"/>
      <use xlink:href="#DejaVuSans-6f" x="234.224609"/>
      <use xlink:href="#DejaVuSans-78" x="292.28125"/>
      <use xlink:href="#DejaVuSans-69" x="351.460938"/>
      <use xlink:href="#DejaVuSans-6d" x="379.244141"/>
      <use xlink:href="#DejaVuSans-61" x="476.65625"/>
      <use xlink:href="#DejaVuSans-74" x="537.935547"/>
      <use xlink:href="#DejaVuSans-69" x="577.144531"/>
      <use xlink:href="#DejaVuSans-6f" x="604.927734"/>
      <use xlink:href="#DejaVuSans-6e" x="666.109375"/>
     </g>
    </g>
   </g>
  </g>
 </g>
 <defs>
  <clipPath id="p1c01345efc">
   <rect x="90" y="60.48" width="558" height="388.08"/>
  </clipPath>
 </defs>
</svg>
