<?xml version="1.0" encoding="utf-8" standalone="no"?>
<!DOCTYPE svg PUBLIC "-//W3C//DTD SVG 1.1//EN"
  "http://www.w3.org/Graphics/SVG/1.1/DTD/svg11.dtd">
<svg xmlns:xlink="http://www.w3.org/1999/xlink" width="720pt" height="504pt" viewBox="0 0 720 504" xmlns="http://www.w3.org/2000/svg" version="1.1">
 <metadata>
  <rdf:RDF xmlns:dc="http://purl.org/dc/elements/1.1/" xmlns:cc="http://creativecommons.org/ns#" xmlns:rdf="http://www.w3.org/1999/02/22-rdf-syntax-ns#">
   <cc:Work>
    <dc:type rdf:resource="http://purl.org/dc/dcmitype/StillImage"/>
    <dc:date>2023-01-04T21:34:31.499971</dc:date>
    <dc:format>image/svg+xml</dc:format>
    <dc:creator>
     <cc:Agent>
      <dc:title>Matplotlib v3.6.2, https://matplotlib.org/</dc:title>
     </cc:Agent>
    </dc:creator>
   </cc:Work>
  </rdf:RDF>
 </metadata>
 <defs>
  <style type="text/css">*{stroke-linejoin: round; stroke-linecap: butt}</style>
 </defs>
 <g id="figure_1">
  <g id="patch_1">
   <path d="M 0 504 
L 720 504 
L 720 0 
L 0 0 
z
" style="fill: #ffffff"/>
  </g>
  <g id="axes_1">
   <g id="patch_2">
    <path d="M 90 448.56 
L 648 448.56 
L 648 60.48 
L 90 60.48 
z
" style="fill: #ffffff"/>
   </g>
   <g id="matplotlib.axis_1">
    <g id="xtick_1">
     <g id="line2d_1">
      <path d="M 115.363636 448.56 
L 115.363636 60.48 
" clip-path="url(#p751e4b6bb5)" style="fill: none; stroke: #b0b0b0; stroke-width: 0.8; stroke-linecap: square"/>
     </g>
     <g id="line2d_2">
      <defs>
       <path id="m3d7a27b3fc" d="M 0 0 
L 0 3.5 
" style="stroke: #000000; stroke-width: 0.8"/>
      </defs>
      <g>
       <use xlink:href="#m3d7a27b3fc" x="115.363636" y="448.56" style="stroke: #000000; stroke-width: 0.8"/>
      </g>
     </g>
     <g id="text_1">
      <!-- 0 -->
      <g transform="translate(112.182386 463.158437) scale(0.1 -0.1)">
       <defs>
        <path id="DejaVuSans-30" d="M 2034 4250 
Q 1547 4250 1301 3770 
Q 1056 3291 1056 2328 
Q 1056 1369 1301 889 
Q 1547 409 2034 409 
Q 2525 409 2770 889 
Q 3016 1369 3016 2328 
Q 3016 3291 2770 3770 
Q 2525 4250 2034 4250 
z
M 2034 4750 
Q 2819 4750 3233 4129 
Q 3647 3509 3647 2328 
Q 3647 1150 3233 529 
Q 2819 -91 2034 -91 
Q 1250 -91 836 529 
Q 422 1150 422 2328 
Q 422 3509 836 4129 
Q 1250 4750 2034 4750 
z
" transform="scale(0.015625)"/>
       </defs>
       <use xlink:href="#DejaVuSans-30"/>
      </g>
     </g>
    </g>
    <g id="xtick_2">
     <g id="line2d_3">
      <path d="M 217.842975 448.56 
L 217.842975 60.48 
" clip-path="url(#p751e4b6bb5)" style="fill: none; stroke: #b0b0b0; stroke-width: 0.8; stroke-linecap: square"/>
     </g>
     <g id="line2d_4">
      <g>
       <use xlink:href="#m3d7a27b3fc" x="217.842975" y="448.56" style="stroke: #000000; stroke-width: 0.8"/>
      </g>
     </g>
     <g id="text_2">
      <!-- 2 -->
      <g transform="translate(214.661725 463.158437) scale(0.1 -0.1)">
       <defs>
        <path id="DejaVuSans-32" d="M 1228 531 
L 3431 531 
L 3431 0 
L 469 0 
L 469 531 
Q 828 903 1448 1529 
Q 2069 2156 2228 2338 
Q 2531 2678 2651 2914 
Q 2772 3150 2772 3378 
Q 2772 3750 2511 3984 
Q 2250 4219 1831 4219 
Q 1534 4219 1204 4116 
Q 875 4013 500 3803 
L 500 4441 
Q 881 4594 1212 4672 
Q 1544 4750 1819 4750 
Q 2544 4750 2975 4387 
Q 3406 4025 3406 3419 
Q 3406 3131 3298 2873 
Q 3191 2616 2906 2266 
Q 2828 2175 2409 1742 
Q 1991 1309 1228 531 
z
" transform="scale(0.015625)"/>
       </defs>
       <use xlink:href="#DejaVuSans-32"/>
      </g>
     </g>
    </g>
    <g id="xtick_3">
     <g id="line2d_5">
      <path d="M 320.322314 448.56 
L 320.322314 60.48 
" clip-path="url(#p751e4b6bb5)" style="fill: none; stroke: #b0b0b0; stroke-width: 0.8; stroke-linecap: square"/>
     </g>
     <g id="line2d_6">
      <g>
       <use xlink:href="#m3d7a27b3fc" x="320.322314" y="448.56" style="stroke: #000000; stroke-width: 0.8"/>
      </g>
     </g>
     <g id="text_3">
      <!-- 4 -->
      <g transform="translate(317.141064 463.158437) scale(0.1 -0.1)">
       <defs>
        <path id="DejaVuSans-34" d="M 2419 4116 
L 825 1625 
L 2419 1625 
L 2419 4116 
z
M 2253 4666 
L 3047 4666 
L 3047 1625 
L 3713 1625 
L 3713 1100 
L 3047 1100 
L 3047 0 
L 2419 0 
L 2419 1100 
L 313 1100 
L 313 1709 
L 2253 4666 
z
" transform="scale(0.015625)"/>
       </defs>
       <use xlink:href="#DejaVuSans-34"/>
      </g>
     </g>
    </g>
    <g id="xtick_4">
     <g id="line2d_7">
      <path d="M 422.801653 448.56 
L 422.801653 60.48 
" clip-path="url(#p751e4b6bb5)" style="fill: none; stroke: #b0b0b0; stroke-width: 0.8; stroke-linecap: square"/>
     </g>
     <g id="line2d_8">
      <g>
       <use xlink:href="#m3d7a27b3fc" x="422.801653" y="448.56" style="stroke: #000000; stroke-width: 0.8"/>
      </g>
     </g>
     <g id="text_4">
      <!-- 6 -->
      <g transform="translate(419.620403 463.158437) scale(0.1 -0.1)">
       <defs>
        <path id="DejaVuSans-36" d="M 2113 2584 
Q 1688 2584 1439 2293 
Q 1191 2003 1191 1497 
Q 1191 994 1439 701 
Q 1688 409 2113 409 
Q 2538 409 2786 701 
Q 3034 994 3034 1497 
Q 3034 2003 2786 2293 
Q 2538 2584 2113 2584 
z
M 3366 4563 
L 3366 3988 
Q 3128 4100 2886 4159 
Q 2644 4219 2406 4219 
Q 1781 4219 1451 3797 
Q 1122 3375 1075 2522 
Q 1259 2794 1537 2939 
Q 1816 3084 2150 3084 
Q 2853 3084 3261 2657 
Q 3669 2231 3669 1497 
Q 3669 778 3244 343 
Q 2819 -91 2113 -91 
Q 1303 -91 875 529 
Q 447 1150 447 2328 
Q 447 3434 972 4092 
Q 1497 4750 2381 4750 
Q 2619 4750 2861 4703 
Q 3103 4656 3366 4563 
z
" transform="scale(0.015625)"/>
       </defs>
       <use xlink:href="#DejaVuSans-36"/>
      </g>
     </g>
    </g>
    <g id="xtick_5">
     <g id="line2d_9">
      <path d="M 525.280992 448.56 
L 525.280992 60.48 
" clip-path="url(#p751e4b6bb5)" style="fill: none; stroke: #b0b0b0; stroke-width: 0.8; stroke-linecap: square"/>
     </g>
     <g id="line2d_10">
      <g>
       <use xlink:href="#m3d7a27b3fc" x="525.280992" y="448.56" style="stroke: #000000; stroke-width: 0.8"/>
      </g>
     </g>
     <g id="text_5">
      <!-- 8 -->
      <g transform="translate(522.099742 463.158437) scale(0.1 -0.1)">
       <defs>
        <path id="DejaVuSans-38" d="M 2034 2216 
Q 1584 2216 1326 1975 
Q 1069 1734 1069 1313 
Q 1069 891 1326 650 
Q 1584 409 2034 409 
Q 2484 409 2743 651 
Q 3003 894 3003 1313 
Q 3003 1734 2745 1975 
Q 2488 2216 2034 2216 
z
M 1403 2484 
Q 997 2584 770 2862 
Q 544 3141 544 3541 
Q 544 4100 942 4425 
Q 1341 4750 2034 4750 
Q 2731 4750 3128 4425 
Q 3525 4100 3525 3541 
Q 3525 3141 3298 2862 
Q 3072 2584 2669 2484 
Q 3125 2378 3379 2068 
Q 3634 1759 3634 1313 
Q 3634 634 3220 271 
Q 2806 -91 2034 -91 
Q 1263 -91 848 271 
Q 434 634 434 1313 
Q 434 1759 690 2068 
Q 947 2378 1403 2484 
z
M 1172 3481 
Q 1172 3119 1398 2916 
Q 1625 2713 2034 2713 
Q 2441 2713 2670 2916 
Q 2900 3119 2900 3481 
Q 2900 3844 2670 4047 
Q 2441 4250 2034 4250 
Q 1625 4250 1398 4047 
Q 1172 3844 1172 3481 
z
" transform="scale(0.015625)"/>
       </defs>
       <use xlink:href="#DejaVuSans-38"/>
      </g>
     </g>
    </g>
    <g id="xtick_6">
     <g id="line2d_11">
      <path d="M 627.760331 448.56 
L 627.760331 60.48 
" clip-path="url(#p751e4b6bb5)" style="fill: none; stroke: #b0b0b0; stroke-width: 0.8; stroke-linecap: square"/>
     </g>
     <g id="line2d_12">
      <g>
       <use xlink:href="#m3d7a27b3fc" x="627.760331" y="448.56" style="stroke: #000000; stroke-width: 0.8"/>
      </g>
     </g>
     <g id="text_6">
      <!-- 10 -->
      <g transform="translate(621.397831 463.158437) scale(0.1 -0.1)">
       <defs>
        <path id="DejaVuSans-31" d="M 794 531 
L 1825 531 
L 1825 4091 
L 703 3866 
L 703 4441 
L 1819 4666 
L 2450 4666 
L 2450 531 
L 3481 531 
L 3481 0 
L 794 0 
L 794 531 
z
" transform="scale(0.015625)"/>
       </defs>
       <use xlink:href="#DejaVuSans-31"/>
       <use xlink:href="#DejaVuSans-30" x="63.623047"/>
      </g>
     </g>
    </g>
    <g id="text_7">
     <!-- x -->
     <g transform="translate(366.040625 476.836563) scale(0.1 -0.1)">
      <defs>
       <path id="DejaVuSans-78" d="M 3513 3500 
L 2247 1797 
L 3578 0 
L 2900 0 
L 1881 1375 
L 863 0 
L 184 0 
L 1544 1831 
L 300 3500 
L 978 3500 
L 1906 2253 
L 2834 3500 
L 3513 3500 
z
" transform="scale(0.015625)"/>
      </defs>
      <use xlink:href="#DejaVuSans-78"/>
     </g>
    </g>
   </g>
   <g id="matplotlib.axis_2">
    <g id="ytick_1">
     <g id="line2d_13">
      <path d="M 90 375.7353 
L 648 375.7353 
" clip-path="url(#p751e4b6bb5)" style="fill: none; stroke: #b0b0b0; stroke-width: 0.8; stroke-linecap: square"/>
     </g>
     <g id="line2d_14">
      <defs>
       <path id="m63ee67cbde" d="M 0 0 
L -3.5 0 
" style="stroke: #000000; stroke-width: 0.8"/>
      </defs>
      <g>
       <use xlink:href="#m63ee67cbde" x="90" y="375.7353" style="stroke: #000000; stroke-width: 0.8"/>
      </g>
     </g>
     <g id="text_8">
      <!-- −2 -->
      <g transform="translate(68.257812 379.534519) scale(0.1 -0.1)">
       <defs>
        <path id="DejaVuSans-2212" d="M 678 2272 
L 4684 2272 
L 4684 1741 
L 678 1741 
L 678 2272 
z
" transform="scale(0.015625)"/>
       </defs>
       <use xlink:href="#DejaVuSans-2212"/>
       <use xlink:href="#DejaVuSans-32" x="83.789062"/>
      </g>
     </g>
    </g>
    <g id="ytick_2">
     <g id="line2d_15">
      <path d="M 90 293.56713 
L 648 293.56713 
" clip-path="url(#p751e4b6bb5)" style="fill: none; stroke: #b0b0b0; stroke-width: 0.8; stroke-linecap: square"/>
     </g>
     <g id="line2d_16">
      <g>
       <use xlink:href="#m63ee67cbde" x="90" y="293.56713" style="stroke: #000000; stroke-width: 0.8"/>
      </g>
     </g>
     <g id="text_9">
      <!-- 0 -->
      <g transform="translate(76.6375 297.366348) scale(0.1 -0.1)">
       <use xlink:href="#DejaVuSans-30"/>
      </g>
     </g>
    </g>
    <g id="ytick_3">
     <g id="line2d_17">
      <path d="M 90 211.398959 
L 648 211.398959 
" clip-path="url(#p751e4b6bb5)" style="fill: none; stroke: #b0b0b0; stroke-width: 0.8; stroke-linecap: square"/>
     </g>
     <g id="line2d_18">
      <g>
       <use xlink:href="#m63ee67cbde" x="90" y="211.398959" style="stroke: #000000; stroke-width: 0.8"/>
      </g>
     </g>
     <g id="text_10">
      <!-- 2 -->
      <g transform="translate(76.6375 215.198177) scale(0.1 -0.1)">
       <use xlink:href="#DejaVuSans-32"/>
      </g>
     </g>
    </g>
    <g id="ytick_4">
     <g id="line2d_19">
      <path d="M 90 129.230788 
L 648 129.230788 
" clip-path="url(#p751e4b6bb5)" style="fill: none; stroke: #b0b0b0; stroke-width: 0.8; stroke-linecap: square"/>
     </g>
     <g id="line2d_20">
      <g>
       <use xlink:href="#m63ee67cbde" x="90" y="129.230788" style="stroke: #000000; stroke-width: 0.8"/>
      </g>
     </g>
     <g id="text_11">
      <!-- 4 -->
      <g transform="translate(76.6375 133.030007) scale(0.1 -0.1)">
       <use xlink:href="#DejaVuSans-34"/>
      </g>
     </g>
    </g>
    <g id="text_12">
     <!-- y -->
     <g transform="translate(62.178125 257.479375) rotate(-90) scale(0.1 -0.1)">
      <defs>
       <path id="DejaVuSans-79" d="M 2059 -325 
Q 1816 -950 1584 -1140 
Q 1353 -1331 966 -1331 
L 506 -1331 
L 506 -850 
L 844 -850 
Q 1081 -850 1212 -737 
Q 1344 -625 1503 -206 
L 1606 56 
L 191 3500 
L 800 3500 
L 1894 763 
L 2988 3500 
L 3597 3500 
L 2059 -325 
z
" transform="scale(0.015625)"/>
      </defs>
      <use xlink:href="#DejaVuSans-79"/>
     </g>
    </g>
   </g>
   <g id="line2d_21">
    <defs>
     <path id="m892324d576" d="M 0 3 
C 0.795609 3 1.55874 2.683901 2.12132 2.12132 
C 2.683901 1.55874 3 0.795609 3 0 
C 3 -0.795609 2.683901 -1.55874 2.12132 -2.12132 
C 1.55874 -2.683901 0.795609 -3 0 -3 
C -0.795609 -3 -1.55874 -2.683901 -2.12132 -2.12132 
C -2.683901 -1.55874 -3 -0.795609 -3 0 
C -3 0.795609 -2.683901 1.55874 -2.12132 2.12132 
C -1.55874 2.683901 -0.795609 3 0 3 
z
" style="stroke: #000000"/>
    </defs>
    <g clip-path="url(#p751e4b6bb5)">
     <use xlink:href="#m892324d576" x="115.363636" y="90.165686" style="stroke: #000000"/>
     <use xlink:href="#m892324d576" x="120.487603" y="78.12" style="stroke: #000000"/>
     <use xlink:href="#m892324d576" x="125.61157" y="104.71697" style="stroke: #000000"/>
     <use xlink:href="#m892324d576" x="130.735537" y="138.612007" style="stroke: #000000"/>
     <use xlink:href="#m892324d576" x="135.859504" y="177.695329" style="stroke: #000000"/>
     <use xlink:href="#m892324d576" x="140.983471" y="193.519823" style="stroke: #000000"/>
     <use xlink:href="#m892324d576" x="146.107438" y="217.860849" style="stroke: #000000"/>
     <use xlink:href="#m892324d576" x="151.231405" y="216.128814" style="stroke: #000000"/>
     <use xlink:href="#m892324d576" x="156.355372" y="224.94939" style="stroke: #000000"/>
     <use xlink:href="#m892324d576" x="161.479339" y="210.573569" style="stroke: #000000"/>
     <use xlink:href="#m892324d576" x="166.603306" y="196.897137" style="stroke: #000000"/>
     <use xlink:href="#m892324d576" x="171.727273" y="172.290573" style="stroke: #000000"/>
     <use xlink:href="#m892324d576" x="176.85124" y="178.063969" style="stroke: #000000"/>
     <use xlink:href="#m892324d576" x="181.975207" y="203.496797" style="stroke: #000000"/>
     <use xlink:href="#m892324d576" x="187.099174" y="233.064138" style="stroke: #000000"/>
     <use xlink:href="#m892324d576" x="192.22314" y="274.180111" style="stroke: #000000"/>
     <use xlink:href="#m892324d576" x="197.347107" y="318.071938" style="stroke: #000000"/>
     <use xlink:href="#m892324d576" x="202.471074" y="359.557133" style="stroke: #000000"/>
     <use xlink:href="#m892324d576" x="207.595041" y="373.432704" style="stroke: #000000"/>
     <use xlink:href="#m892324d576" x="212.719008" y="385.741066" style="stroke: #000000"/>
     <use xlink:href="#m892324d576" x="217.842975" y="368.122159" style="stroke: #000000"/>
     <use xlink:href="#m892324d576" x="222.966942" y="334.712169" style="stroke: #000000"/>
     <use xlink:href="#m892324d576" x="228.090909" y="294.449981" style="stroke: #000000"/>
     <use xlink:href="#m892324d576" x="233.214876" y="243.832484" style="stroke: #000000"/>
     <use xlink:href="#m892324d576" x="238.338843" y="213.449199" style="stroke: #000000"/>
     <use xlink:href="#m892324d576" x="243.46281" y="205.329738" style="stroke: #000000"/>
     <use xlink:href="#m892324d576" x="248.586777" y="195.538092" style="stroke: #000000"/>
     <use xlink:href="#m892324d576" x="253.710744" y="226.698003" style="stroke: #000000"/>
     <use xlink:href="#m892324d576" x="258.834711" y="257.487992" style="stroke: #000000"/>
     <use xlink:href="#m892324d576" x="263.958678" y="287.204079" style="stroke: #000000"/>
     <use xlink:href="#m892324d576" x="269.082645" y="329.869748" style="stroke: #000000"/>
     <use xlink:href="#m892324d576" x="274.206612" y="349.04508" style="stroke: #000000"/>
     <use xlink:href="#m892324d576" x="279.330579" y="359.719839" style="stroke: #000000"/>
     <use xlink:href="#m892324d576" x="284.454545" y="354.318173" style="stroke: #000000"/>
     <use xlink:href="#m892324d576" x="289.578512" y="323.285567" style="stroke: #000000"/>
     <use xlink:href="#m892324d576" x="294.702479" y="306.159305" style="stroke: #000000"/>
     <use xlink:href="#m892324d576" x="299.826446" y="269.681684" style="stroke: #000000"/>
     <use xlink:href="#m892324d576" x="304.950413" y="239.017536" style="stroke: #000000"/>
     <use xlink:href="#m892324d576" x="310.07438" y="236.954505" style="stroke: #000000"/>
     <use xlink:href="#m892324d576" x="315.198347" y="237.890225" style="stroke: #000000"/>
     <use xlink:href="#m892324d576" x="320.322314" y="249.285226" style="stroke: #000000"/>
     <use xlink:href="#m892324d576" x="325.446281" y="279.771777" style="stroke: #000000"/>
     <use xlink:href="#m892324d576" x="330.570248" y="311.480592" style="stroke: #000000"/>
     <use xlink:href="#m892324d576" x="335.694215" y="309.626835" style="stroke: #000000"/>
     <use xlink:href="#m892324d576" x="340.818182" y="320.995773" style="stroke: #000000"/>
     <use xlink:href="#m892324d576" x="345.942149" y="308.864491" style="stroke: #000000"/>
     <use xlink:href="#m892324d576" x="351.066116" y="284.142352" style="stroke: #000000"/>
     <use xlink:href="#m892324d576" x="356.190083" y="248.44439" style="stroke: #000000"/>
     <use xlink:href="#m892324d576" x="361.31405" y="226.00486" style="stroke: #000000"/>
     <use xlink:href="#m892324d576" x="366.438017" y="203.5618" style="stroke: #000000"/>
     <use xlink:href="#m892324d576" x="371.561983" y="224.168035" style="stroke: #000000"/>
     <use xlink:href="#m892324d576" x="376.68595" y="227.786031" style="stroke: #000000"/>
     <use xlink:href="#m892324d576" x="381.809917" y="263.682874" style="stroke: #000000"/>
     <use xlink:href="#m892324d576" x="386.933884" y="309.115276" style="stroke: #000000"/>
     <use xlink:href="#m892324d576" x="392.057851" y="355.990559" style="stroke: #000000"/>
     <use xlink:href="#m892324d576" x="397.181818" y="394.690148" style="stroke: #000000"/>
     <use xlink:href="#m892324d576" x="402.305785" y="429.943266" style="stroke: #000000"/>
     <use xlink:href="#m892324d576" x="407.429752" y="421.577053" style="stroke: #000000"/>
     <use xlink:href="#m892324d576" x="412.553719" y="415.459889" style="stroke: #000000"/>
     <use xlink:href="#m892324d576" x="417.677686" y="377.362863" style="stroke: #000000"/>
     <use xlink:href="#m892324d576" x="422.801653" y="322.697603" style="stroke: #000000"/>
     <use xlink:href="#m892324d576" x="427.92562" y="276.162912" style="stroke: #000000"/>
     <use xlink:href="#m892324d576" x="433.049587" y="243.292489" style="stroke: #000000"/>
     <use xlink:href="#m892324d576" x="438.173554" y="215.456056" style="stroke: #000000"/>
     <use xlink:href="#m892324d576" x="443.297521" y="211.618827" style="stroke: #000000"/>
     <use xlink:href="#m892324d576" x="448.421488" y="230.418502" style="stroke: #000000"/>
     <use xlink:href="#m892324d576" x="453.545455" y="238.648534" style="stroke: #000000"/>
     <use xlink:href="#m892324d576" x="458.669421" y="278.061175" style="stroke: #000000"/>
     <use xlink:href="#m892324d576" x="463.793388" y="275.952011" style="stroke: #000000"/>
     <use xlink:href="#m892324d576" x="468.917355" y="291.803693" style="stroke: #000000"/>
     <use xlink:href="#m892324d576" x="474.041322" y="277.776969" style="stroke: #000000"/>
     <use xlink:href="#m892324d576" x="479.165289" y="285.040199" style="stroke: #000000"/>
     <use xlink:href="#m892324d576" x="484.289256" y="256.618652" style="stroke: #000000"/>
     <use xlink:href="#m892324d576" x="489.413223" y="245.935085" style="stroke: #000000"/>
     <use xlink:href="#m892324d576" x="494.53719" y="219.347963" style="stroke: #000000"/>
     <use xlink:href="#m892324d576" x="499.661157" y="231.495363" style="stroke: #000000"/>
     <use xlink:href="#m892324d576" x="504.785124" y="242.45603" style="stroke: #000000"/>
     <use xlink:href="#m892324d576" x="509.909091" y="289.427709" style="stroke: #000000"/>
     <use xlink:href="#m892324d576" x="515.033058" y="314.547556" style="stroke: #000000"/>
     <use xlink:href="#m892324d576" x="520.157025" y="362.533146" style="stroke: #000000"/>
     <use xlink:href="#m892324d576" x="525.280992" y="387.091649" style="stroke: #000000"/>
     <use xlink:href="#m892324d576" x="530.404959" y="404.818266" style="stroke: #000000"/>
     <use xlink:href="#m892324d576" x="535.528926" y="405.012275" style="stroke: #000000"/>
     <use xlink:href="#m892324d576" x="540.652893" y="384.56656" style="stroke: #000000"/>
     <use xlink:href="#m892324d576" x="545.77686" y="342.701555" style="stroke: #000000"/>
     <use xlink:href="#m892324d576" x="550.900826" y="301.580141" style="stroke: #000000"/>
     <use xlink:href="#m892324d576" x="556.024793" y="253.831132" style="stroke: #000000"/>
     <use xlink:href="#m892324d576" x="561.14876" y="227.089772" style="stroke: #000000"/>
     <use xlink:href="#m892324d576" x="566.272727" y="204.612026" style="stroke: #000000"/>
     <use xlink:href="#m892324d576" x="571.396694" y="212.770784" style="stroke: #000000"/>
     <use xlink:href="#m892324d576" x="576.520661" y="227.46913" style="stroke: #000000"/>
     <use xlink:href="#m892324d576" x="581.644628" y="276.604956" style="stroke: #000000"/>
     <use xlink:href="#m892324d576" x="586.768595" y="312.852995" style="stroke: #000000"/>
     <use xlink:href="#m892324d576" x="591.892562" y="339.955195" style="stroke: #000000"/>
     <use xlink:href="#m892324d576" x="597.016529" y="360.38863" style="stroke: #000000"/>
     <use xlink:href="#m892324d576" x="602.140496" y="362.839271" style="stroke: #000000"/>
     <use xlink:href="#m892324d576" x="607.264463" y="354.611297" style="stroke: #000000"/>
     <use xlink:href="#m892324d576" x="612.38843" y="329.227437" style="stroke: #000000"/>
     <use xlink:href="#m892324d576" x="617.512397" y="307.27761" style="stroke: #000000"/>
     <use xlink:href="#m892324d576" x="622.636364" y="266.971143" style="stroke: #000000"/>
    </g>
   </g>
   <g id="line2d_22">
    <path d="M 115.363636 83.902489 
L 115.876033 83.511326 
L 116.38843 83.281755 
L 116.900826 83.21467 
L 117.413223 83.310527 
L 117.92562 83.569347 
L 118.438017 83.990717 
L 119.46281 85.317321 
L 120.487603 87.278552 
L 121.512397 89.856046 
L 122.53719 93.025128 
L 124.07438 98.819373 
L 125.61157 105.747792 
L 127.14876 113.658946 
L 129.198347 125.435592 
L 132.272727 144.801076 
L 137.396694 177.548126 
L 139.446281 189.427182 
L 141.495868 199.980662 
L 143.033058 206.822597 
L 144.570248 212.619071 
L 145.595041 215.860687 
L 146.619835 218.583506 
L 147.644628 220.776789 
L 148.669421 222.4361 
L 149.694215 223.56334 
L 150.719008 224.166722 
L 151.231405 224.276234 
L 151.743802 224.260668 
L 152.256198 224.122771 
L 153.280992 223.492787 
L 154.305785 222.415385 
L 155.330579 220.925038 
L 156.355372 219.061211 
L 157.892562 215.662631 
L 159.429752 211.688998 
L 161.991736 204.287961 
L 165.578512 193.834789 
L 167.115702 189.884708 
L 168.652893 186.536024 
L 169.677686 184.727972 
L 170.702479 183.318036 
L 171.727273 182.352108 
L 172.752066 181.871654 
L 173.264463 181.825107 
L 173.77686 181.913231 
L 174.289256 182.139757 
L 174.801653 182.508061 
L 175.826446 183.681653 
L 176.85124 185.453483 
L 177.876033 187.836737 
L 178.900826 190.838118 
L 179.92562 194.457714 
L 181.46281 201.030033 
L 183 208.926692 
L 184.53719 218.064454 
L 186.586777 231.97615 
L 188.636364 247.535178 
L 191.710744 273.000729 
L 198.371901 329.147056 
L 200.421488 344.411403 
L 201.958678 354.649619 
L 203.495868 363.628134 
L 205.033058 371.17074 
L 206.057851 375.326311 
L 207.082645 378.739517 
L 208.107438 381.379646 
L 209.132231 383.222653 
L 209.644628 383.839613 
L 210.157025 384.25143 
L 210.669421 384.457083 
L 211.181818 384.456006 
L 211.694215 384.248087 
L 212.206612 383.833678 
L 212.719008 383.213586 
L 213.743802 381.361878 
L 214.768595 378.708556 
L 215.793388 375.276396 
L 216.818182 371.095167 
L 218.355372 363.500471 
L 219.892562 354.454013 
L 221.429752 344.135254 
L 223.479339 328.755849 
L 226.041322 307.701915 
L 232.702479 251.575804 
L 234.752066 236.280237 
L 236.289256 226.033185 
L 237.826446 217.058668 
L 239.363636 209.528246 
L 240.38843 205.381207 
L 241.413223 201.972938 
L 242.438017 199.330123 
L 243.46281 197.472289 
L 243.975207 196.841844 
L 244.487603 196.411643 
L 245 196.182054 
L 245.512397 196.152977 
L 246.024793 196.32385 
L 246.53719 196.693645 
L 247.049587 197.26088 
L 248.07438 198.979453 
L 249.099174 201.458696 
L 250.123967 204.670769 
L 251.14876 208.581164 
L 252.68595 215.665165 
L 254.22314 224.064903 
L 255.760331 233.59195 
L 257.809917 247.681978 
L 260.884298 270.668886 
L 265.495868 305.426154 
L 267.545455 319.508452 
L 269.595041 332.01469 
L 271.132231 340.094776 
L 272.669421 346.88798 
L 273.694215 350.639571 
L 274.719008 353.735009 
L 275.743802 356.152275 
L 276.768595 357.87617 
L 277.280992 358.475248 
L 277.793388 358.898428 
L 278.305785 359.145764 
L 278.818182 359.217746 
L 279.330579 359.115294 
L 279.842975 358.839756 
L 280.355372 358.392904 
L 281.380165 356.994415 
L 282.404959 354.942201 
L 283.429752 352.264922 
L 284.454545 348.997195 
L 285.991736 343.077839 
L 287.528926 336.078337 
L 289.578512 325.377189 
L 292.140496 310.471647 
L 298.801653 270.650048 
L 300.85124 260.041789 
L 302.38843 253.078817 
L 303.92562 247.132706 
L 304.950413 243.79426 
L 305.975207 240.990555 
L 307 238.744179 
L 308.024793 237.071476 
L 309.049587 235.982395 
L 309.561983 235.658055 
L 310.07438 235.480418 
L 310.586777 235.448907 
L 311.099174 235.562542 
L 311.61157 235.819945 
L 312.636364 236.758573 
L 313.661157 238.245978 
L 314.68595 240.257354 
L 315.710744 242.762186 
L 317.247934 247.364798 
L 318.785124 252.854193 
L 320.834711 261.26817 
L 323.396694 272.927795 
L 328.520661 296.516571 
L 330.570248 304.73036 
L 332.107438 310.022901 
L 333.644628 314.395045 
L 334.669421 316.731009 
L 335.694215 318.564081 
L 336.719008 319.866322 
L 337.743802 320.615698 
L 338.256198 320.777853 
L 338.768595 320.796334 
L 339.280992 320.670153 
L 339.793388 320.398729 
L 340.305785 319.981893 
L 341.330579 318.713363 
L 342.355372 316.871439 
L 343.380165 314.469552 
L 344.404959 311.527593 
L 345.942149 306.160946 
L 347.479339 299.753052 
L 349.016529 292.445743 
L 351.066116 281.595474 
L 354.140496 263.890235 
L 358.239669 240.334591 
L 360.289256 229.79135 
L 361.826446 222.853001 
L 363.363636 216.970268 
L 364.38843 213.725713 
L 365.413223 211.079999 
L 366.438017 209.076234 
L 367.46281 207.75188 
L 367.975207 207.354538 
L 368.487603 207.138324 
L 369 207.106155 
L 369.512397 207.260526 
L 370.024793 207.603502 
L 370.53719 208.136714 
L 371.561983 209.778148 
L 372.586777 212.188958 
L 373.61157 215.366041 
L 374.636364 219.299031 
L 375.661157 223.970346 
L 377.198347 232.305774 
L 378.735537 242.132993 
L 380.272727 253.306775 
L 382.322314 269.992655 
L 384.884298 293.023257 
L 394.107438 378.740857 
L 396.157025 394.583858 
L 397.694215 404.927871 
L 399.231405 413.738691 
L 400.256198 418.679354 
L 401.280992 422.825528 
L 402.305785 426.143676 
L 403.330579 428.607299 
L 404.355372 430.197174 
L 404.867769 430.66048 
L 405.380165 430.90152 
L 405.892562 430.92 
L 406.404959 430.716101 
L 406.917355 430.290476 
L 407.429752 429.644249 
L 408.454545 427.696823 
L 409.479339 424.892092 
L 410.504132 421.255549 
L 411.528926 416.819656 
L 413.066116 408.754332 
L 414.603306 399.137962 
L 416.140496 388.156802 
L 418.190083 371.758968 
L 420.752066 349.222934 
L 428.950413 275.012263 
L 431 258.977524 
L 433.049587 244.939176 
L 434.586777 235.940712 
L 436.123967 228.385491 
L 437.14876 224.192556 
L 438.173554 220.694223 
L 439.198347 217.899394 
L 440.22314 215.81 
L 441.247934 214.421065 
L 441.760331 213.985854 
L 442.272727 213.720826 
L 442.785124 213.623482 
L 443.297521 213.690926 
L 443.809917 213.919874 
L 444.322314 214.306668 
L 445.347107 215.537341 
L 446.371901 217.346588 
L 447.396694 219.692848 
L 448.421488 222.529831 
L 449.958678 227.593963 
L 451.495868 233.462697 
L 453.545455 242.194285 
L 461.231405 276.107556 
L 462.768595 281.664581 
L 464.305785 286.420585 
L 465.330579 289.083478 
L 466.355372 291.304004 
L 467.380165 293.057625 
L 468.404959 294.325807 
L 469.429752 295.096201 
L 469.942149 295.292589 
L 470.454545 295.362759 
L 470.966942 295.306946 
L 471.479339 295.125782 
L 472.504132 294.391904 
L 473.528926 293.173998 
L 474.553719 291.491035 
L 475.578512 289.367856 
L 476.603306 286.834898 
L 478.140496 282.34655 
L 479.677686 277.158157 
L 481.727273 269.433163 
L 488.900826 241.317524 
L 490.438017 236.387696 
L 491.975207 232.266833 
L 493 230.051465 
L 494.024793 228.313603 
L 495.049587 227.092717 
L 495.561983 226.687106 
L 496.07438 226.423228 
L 496.586777 226.30453 
L 497.099174 226.334093 
L 497.61157 226.514622 
L 498.123967 226.848444 
L 498.636364 227.33749 
L 499.661157 228.786996 
L 500.68595 230.870549 
L 501.710744 233.588971 
L 502.735537 236.936419 
L 503.760331 240.900387 
L 505.297521 247.958742 
L 506.834711 256.268191 
L 508.371901 265.706131 
L 510.421488 279.78025 
L 512.983471 299.153532 
L 521.181818 362.943783 
L 523.231405 376.410611 
L 524.768595 385.194039 
L 526.305785 392.638773 
L 527.330579 396.776839 
L 528.355372 400.205923 
L 529.380165 402.890899 
L 530.404959 404.803108 
L 530.917355 405.462312 
L 531.429752 405.920658 
L 531.942149 406.176508 
L 532.454545 406.228673 
L 532.966942 406.076419 
L 533.479339 405.71947 
L 533.991736 405.158007 
L 534.504132 404.392671 
L 535.528926 402.255237 
L 536.553719 399.32144 
L 537.578512 395.612757 
L 538.603306 391.157703 
L 540.140496 383.154687 
L 541.677686 373.699429 
L 543.214876 362.967919 
L 545.264463 347.02685 
L 547.826446 325.244702 
L 555 262.906804 
L 557.049587 247.349318 
L 558.586777 236.975864 
L 560.123967 227.928218 
L 561.661157 220.370931 
L 562.68595 216.227899 
L 563.710744 212.838358 
L 564.735537 210.226479 
L 565.760331 208.409217 
L 566.272727 207.801855 
L 566.785124 207.396166 
L 567.297521 207.192187 
L 567.809917 207.189493 
L 568.322314 207.387193 
L 568.834711 207.783937 
L 569.347107 208.377919 
L 570.371901 210.148121 
L 571.396694 212.674439 
L 572.421488 215.926643 
L 573.446281 219.867947 
L 574.983471 226.976377 
L 576.520661 235.368461 
L 578.570248 248.216168 
L 581.132231 266.205888 
L 588.818182 322.278609 
L 590.867769 335.071515 
L 592.404959 343.464148 
L 593.942149 350.639889 
L 594.966942 354.67868 
L 595.991736 358.08206 
L 597.016529 360.823553 
L 598.041322 362.883397 
L 599.066116 364.248698 
L 599.578512 364.668766 
L 600.090909 364.913514 
L 600.603306 364.983288 
L 601.115702 364.878865 
L 601.628099 364.601452 
L 602.140496 364.152681 
L 603.165289 362.749672 
L 604.190083 360.691142 
L 605.214876 358.004727 
L 606.239669 354.724077 
L 607.77686 348.776282 
L 609.31405 341.735096 
L 611.363636 330.953883 
L 613.92562 315.903467 
L 620.586777 275.455637 
L 622.636364 264.58808 
L 622.636364 264.58808 
" clip-path="url(#p751e4b6bb5)" style="fill: none; stroke: #ff0000; stroke-width: 1.5; stroke-linecap: square"/>
   </g>
   <g id="patch_3">
    <path d="M 90 448.56 
L 90 60.48 
" style="fill: none; stroke: #000000; stroke-width: 0.8; stroke-linejoin: miter; stroke-linecap: square"/>
   </g>
   <g id="patch_4">
    <path d="M 648 448.56 
L 648 60.48 
" style="fill: none; stroke: #000000; stroke-width: 0.8; stroke-linejoin: miter; stroke-linecap: square"/>
   </g>
   <g id="patch_5">
    <path d="M 90 448.56 
L 648 448.56 
" style="fill: none; stroke: #000000; stroke-width: 0.8; stroke-linejoin: miter; stroke-linecap: square"/>
   </g>
   <g id="patch_6">
    <path d="M 90 60.48 
L 648 60.48 
" style="fill: none; stroke: #000000; stroke-width: 0.8; stroke-linejoin: miter; stroke-linecap: square"/>
   </g>
   <g id="text_13">
    <!-- Function approximation using least squares method -->
    <g transform="translate(213.150937 41.040375) scale(0.12 -0.12)">
     <defs>
      <path id="DejaVuSans-46" d="M 628 4666 
L 3309 4666 
L 3309 4134 
L 1259 4134 
L 1259 2759 
L 3109 2759 
L 3109 2228 
L 1259 2228 
L 1259 0 
L 628 0 
L 628 4666 
z
" transform="scale(0.015625)"/>
      <path id="DejaVuSans-75" d="M 544 1381 
L 544 3500 
L 1119 3500 
L 1119 1403 
Q 1119 906 1312 657 
Q 1506 409 1894 409 
Q 2359 409 2629 706 
Q 2900 1003 2900 1516 
L 2900 3500 
L 3475 3500 
L 3475 0 
L 2900 0 
L 2900 538 
Q 2691 219 2414 64 
Q 2138 -91 1772 -91 
Q 1169 -91 856 284 
Q 544 659 544 1381 
z
M 1991 3584 
L 1991 3584 
z
" transform="scale(0.015625)"/>
      <path id="DejaVuSans-6e" d="M 3513 2113 
L 3513 0 
L 2938 0 
L 2938 2094 
Q 2938 2591 2744 2837 
Q 2550 3084 2163 3084 
Q 1697 3084 1428 2787 
Q 1159 2491 1159 1978 
L 1159 0 
L 581 0 
L 581 3500 
L 1159 3500 
L 1159 2956 
Q 1366 3272 1645 3428 
Q 1925 3584 2291 3584 
Q 2894 3584 3203 3211 
Q 3513 2838 3513 2113 
z
" transform="scale(0.015625)"/>
      <path id="DejaVuSans-63" d="M 3122 3366 
L 3122 2828 
Q 2878 2963 2633 3030 
Q 2388 3097 2138 3097 
Q 1578 3097 1268 2742 
Q 959 2388 959 1747 
Q 959 1106 1268 751 
Q 1578 397 2138 397 
Q 2388 397 2633 464 
Q 2878 531 3122 666 
L 3122 134 
Q 2881 22 2623 -34 
Q 2366 -91 2075 -91 
Q 1284 -91 818 406 
Q 353 903 353 1747 
Q 353 2603 823 3093 
Q 1294 3584 2113 3584 
Q 2378 3584 2631 3529 
Q 2884 3475 3122 3366 
z
" transform="scale(0.015625)"/>
      <path id="DejaVuSans-74" d="M 1172 4494 
L 1172 3500 
L 2356 3500 
L 2356 3053 
L 1172 3053 
L 1172 1153 
Q 1172 725 1289 603 
Q 1406 481 1766 481 
L 2356 481 
L 2356 0 
L 1766 0 
Q 1100 0 847 248 
Q 594 497 594 1153 
L 594 3053 
L 172 3053 
L 172 3500 
L 594 3500 
L 594 4494 
L 1172 4494 
z
" transform="scale(0.015625)"/>
      <path id="DejaVuSans-69" d="M 603 3500 
L 1178 3500 
L 1178 0 
L 603 0 
L 603 3500 
z
M 603 4863 
L 1178 4863 
L 1178 4134 
L 603 4134 
L 603 4863 
z
" transform="scale(0.015625)"/>
      <path id="DejaVuSans-6f" d="M 1959 3097 
Q 1497 3097 1228 2736 
Q 959 2375 959 1747 
Q 959 1119 1226 758 
Q 1494 397 1959 397 
Q 2419 397 2687 759 
Q 2956 1122 2956 1747 
Q 2956 2369 2687 2733 
Q 2419 3097 1959 3097 
z
M 1959 3584 
Q 2709 3584 3137 3096 
Q 3566 2609 3566 1747 
Q 3566 888 3137 398 
Q 2709 -91 1959 -91 
Q 1206 -91 779 398 
Q 353 888 353 1747 
Q 353 2609 779 3096 
Q 1206 3584 1959 3584 
z
" transform="scale(0.015625)"/>
      <path id="DejaVuSans-20" transform="scale(0.015625)"/>
      <path id="DejaVuSans-61" d="M 2194 1759 
Q 1497 1759 1228 1600 
Q 959 1441 959 1056 
Q 959 750 1161 570 
Q 1363 391 1709 391 
Q 2188 391 2477 730 
Q 2766 1069 2766 1631 
L 2766 1759 
L 2194 1759 
z
M 3341 1997 
L 3341 0 
L 2766 0 
L 2766 531 
Q 2569 213 2275 61 
Q 1981 -91 1556 -91 
Q 1019 -91 701 211 
Q 384 513 384 1019 
Q 384 1609 779 1909 
Q 1175 2209 1959 2209 
L 2766 2209 
L 2766 2266 
Q 2766 2663 2505 2880 
Q 2244 3097 1772 3097 
Q 1472 3097 1187 3025 
Q 903 2953 641 2809 
L 641 3341 
Q 956 3463 1253 3523 
Q 1550 3584 1831 3584 
Q 2591 3584 2966 3190 
Q 3341 2797 3341 1997 
z
" transform="scale(0.015625)"/>
      <path id="DejaVuSans-70" d="M 1159 525 
L 1159 -1331 
L 581 -1331 
L 581 3500 
L 1159 3500 
L 1159 2969 
Q 1341 3281 1617 3432 
Q 1894 3584 2278 3584 
Q 2916 3584 3314 3078 
Q 3713 2572 3713 1747 
Q 3713 922 3314 415 
Q 2916 -91 2278 -91 
Q 1894 -91 1617 61 
Q 1341 213 1159 525 
z
M 3116 1747 
Q 3116 2381 2855 2742 
Q 2594 3103 2138 3103 
Q 1681 3103 1420 2742 
Q 1159 2381 1159 1747 
Q 1159 1113 1420 752 
Q 1681 391 2138 391 
Q 2594 391 2855 752 
Q 3116 1113 3116 1747 
z
" transform="scale(0.015625)"/>
      <path id="DejaVuSans-72" d="M 2631 2963 
Q 2534 3019 2420 3045 
Q 2306 3072 2169 3072 
Q 1681 3072 1420 2755 
Q 1159 2438 1159 1844 
L 1159 0 
L 581 0 
L 581 3500 
L 1159 3500 
L 1159 2956 
Q 1341 3275 1631 3429 
Q 1922 3584 2338 3584 
Q 2397 3584 2469 3576 
Q 2541 3569 2628 3553 
L 2631 2963 
z
" transform="scale(0.015625)"/>
      <path id="DejaVuSans-6d" d="M 3328 2828 
Q 3544 3216 3844 3400 
Q 4144 3584 4550 3584 
Q 5097 3584 5394 3201 
Q 5691 2819 5691 2113 
L 5691 0 
L 5113 0 
L 5113 2094 
Q 5113 2597 4934 2840 
Q 4756 3084 4391 3084 
Q 3944 3084 3684 2787 
Q 3425 2491 3425 1978 
L 3425 0 
L 2847 0 
L 2847 2094 
Q 2847 2600 2669 2842 
Q 2491 3084 2119 3084 
Q 1678 3084 1418 2786 
Q 1159 2488 1159 1978 
L 1159 0 
L 581 0 
L 581 3500 
L 1159 3500 
L 1159 2956 
Q 1356 3278 1631 3431 
Q 1906 3584 2284 3584 
Q 2666 3584 2933 3390 
Q 3200 3197 3328 2828 
z
" transform="scale(0.015625)"/>
      <path id="DejaVuSans-73" d="M 2834 3397 
L 2834 2853 
Q 2591 2978 2328 3040 
Q 2066 3103 1784 3103 
Q 1356 3103 1142 2972 
Q 928 2841 928 2578 
Q 928 2378 1081 2264 
Q 1234 2150 1697 2047 
L 1894 2003 
Q 2506 1872 2764 1633 
Q 3022 1394 3022 966 
Q 3022 478 2636 193 
Q 2250 -91 1575 -91 
Q 1294 -91 989 -36 
Q 684 19 347 128 
L 347 722 
Q 666 556 975 473 
Q 1284 391 1588 391 
Q 1994 391 2212 530 
Q 2431 669 2431 922 
Q 2431 1156 2273 1281 
Q 2116 1406 1581 1522 
L 1381 1569 
Q 847 1681 609 1914 
Q 372 2147 372 2553 
Q 372 3047 722 3315 
Q 1072 3584 1716 3584 
Q 2034 3584 2315 3537 
Q 2597 3491 2834 3397 
z
" transform="scale(0.015625)"/>
      <path id="DejaVuSans-67" d="M 2906 1791 
Q 2906 2416 2648 2759 
Q 2391 3103 1925 3103 
Q 1463 3103 1205 2759 
Q 947 2416 947 1791 
Q 947 1169 1205 825 
Q 1463 481 1925 481 
Q 2391 481 2648 825 
Q 2906 1169 2906 1791 
z
M 3481 434 
Q 3481 -459 3084 -895 
Q 2688 -1331 1869 -1331 
Q 1566 -1331 1297 -1286 
Q 1028 -1241 775 -1147 
L 775 -588 
Q 1028 -725 1275 -790 
Q 1522 -856 1778 -856 
Q 2344 -856 2625 -561 
Q 2906 -266 2906 331 
L 2906 616 
Q 2728 306 2450 153 
Q 2172 0 1784 0 
Q 1141 0 747 490 
Q 353 981 353 1791 
Q 353 2603 747 3093 
Q 1141 3584 1784 3584 
Q 2172 3584 2450 3431 
Q 2728 3278 2906 2969 
L 2906 3500 
L 3481 3500 
L 3481 434 
z
" transform="scale(0.015625)"/>
      <path id="DejaVuSans-6c" d="M 603 4863 
L 1178 4863 
L 1178 0 
L 603 0 
L 603 4863 
z
" transform="scale(0.015625)"/>
      <path id="DejaVuSans-65" d="M 3597 1894 
L 3597 1613 
L 953 1613 
Q 991 1019 1311 708 
Q 1631 397 2203 397 
Q 2534 397 2845 478 
Q 3156 559 3463 722 
L 3463 178 
Q 3153 47 2828 -22 
Q 2503 -91 2169 -91 
Q 1331 -91 842 396 
Q 353 884 353 1716 
Q 353 2575 817 3079 
Q 1281 3584 2069 3584 
Q 2775 3584 3186 3129 
Q 3597 2675 3597 1894 
z
M 3022 2063 
Q 3016 2534 2758 2815 
Q 2500 3097 2075 3097 
Q 1594 3097 1305 2825 
Q 1016 2553 972 2059 
L 3022 2063 
z
" transform="scale(0.015625)"/>
      <path id="DejaVuSans-71" d="M 947 1747 
Q 947 1113 1208 752 
Q 1469 391 1925 391 
Q 2381 391 2643 752 
Q 2906 1113 2906 1747 
Q 2906 2381 2643 2742 
Q 2381 3103 1925 3103 
Q 1469 3103 1208 2742 
Q 947 2381 947 1747 
z
M 2906 525 
Q 2725 213 2448 61 
Q 2172 -91 1784 -91 
Q 1150 -91 751 415 
Q 353 922 353 1747 
Q 353 2572 751 3078 
Q 1150 3584 1784 3584 
Q 2172 3584 2448 3432 
Q 2725 3281 2906 2969 
L 2906 3500 
L 3481 3500 
L 3481 -1331 
L 2906 -1331 
L 2906 525 
z
" transform="scale(0.015625)"/>
      <path id="DejaVuSans-68" d="M 3513 2113 
L 3513 0 
L 2938 0 
L 2938 2094 
Q 2938 2591 2744 2837 
Q 2550 3084 2163 3084 
Q 1697 3084 1428 2787 
Q 1159 2491 1159 1978 
L 1159 0 
L 581 0 
L 581 4863 
L 1159 4863 
L 1159 2956 
Q 1366 3272 1645 3428 
Q 1925 3584 2291 3584 
Q 2894 3584 3203 3211 
Q 3513 2838 3513 2113 
z
" transform="scale(0.015625)"/>
      <path id="DejaVuSans-64" d="M 2906 2969 
L 2906 4863 
L 3481 4863 
L 3481 0 
L 2906 0 
L 2906 525 
Q 2725 213 2448 61 
Q 2172 -91 1784 -91 
Q 1150 -91 751 415 
Q 353 922 353 1747 
Q 353 2572 751 3078 
Q 1150 3584 1784 3584 
Q 2172 3584 2448 3432 
Q 2725 3281 2906 2969 
z
M 947 1747 
Q 947 1113 1208 752 
Q 1469 391 1925 391 
Q 2381 391 2643 752 
Q 2906 1113 2906 1747 
Q 2906 2381 2643 2742 
Q 2381 3103 1925 3103 
Q 1469 3103 1208 2742 
Q 947 2381 947 1747 
z
" transform="scale(0.015625)"/>
     </defs>
     <use xlink:href="#DejaVuSans-46"/>
     <use xlink:href="#DejaVuSans-75" x="52.019531"/>
     <use xlink:href="#DejaVuSans-6e" x="115.398438"/>
     <use xlink:href="#DejaVuSans-63" x="178.777344"/>
     <use xlink:href="#DejaVuSans-74" x="233.757812"/>
     <use xlink:href="#DejaVuSans-69" x="272.966797"/>
     <use xlink:href="#DejaVuSans-6f" x="300.75"/>
     <use xlink:href="#DejaVuSans-6e" x="361.931641"/>
     <use xlink:href="#DejaVuSans-20" x="425.310547"/>
     <use xlink:href="#DejaVuSans-61" x="457.097656"/>
     <use xlink:href="#DejaVuSans-70" x="518.376953"/>
     <use xlink:href="#DejaVuSans-70" x="581.853516"/>
     <use xlink:href="#DejaVuSans-72" x="645.330078"/>
     <use xlink:href="#DejaVuSans-6f" x="684.193359"/>
     <use xlink:href="#DejaVuSans-78" x="742.25"/>
     <use xlink:href="#DejaVuSans-69" x="801.429688"/>
     <use xlink:href="#DejaVuSans-6d" x="829.212891"/>
     <use xlink:href="#DejaVuSans-61" x="926.625"/>
     <use xlink:href="#DejaVuSans-74" x="987.904297"/>
     <use xlink:href="#DejaVuSans-69" x="1027.113281"/>
     <use xlink:href="#DejaVuSans-6f" x="1054.896484"/>
     <use xlink:href="#DejaVuSans-6e" x="1116.078125"/>
     <use xlink:href="#DejaVuSans-20" x="1179.457031"/>
     <use xlink:href="#DejaVuSans-75" x="1211.244141"/>
     <use xlink:href="#DejaVuSans-73" x="1274.623047"/>
     <use xlink:href="#DejaVuSans-69" x="1326.722656"/>
     <use xlink:href="#DejaVuSans-6e" x="1354.505859"/>
     <use xlink:href="#DejaVuSans-67" x="1417.884766"/>
     <use xlink:href="#DejaVuSans-20" x="1481.361328"/>
     <use xlink:href="#DejaVuSans-6c" x="1513.148438"/>
     <use xlink:href="#DejaVuSans-65" x="1540.931641"/>
     <use xlink:href="#DejaVuSans-61" x="1602.455078"/>
     <use xlink:href="#DejaVuSans-73" x="1663.734375"/>
     <use xlink:href="#DejaVuSans-74" x="1715.833984"/>
     <use xlink:href="#DejaVuSans-20" x="1755.042969"/>
     <use xlink:href="#DejaVuSans-73" x="1786.830078"/>
     <use xlink:href="#DejaVuSans-71" x="1838.929688"/>
     <use xlink:href="#DejaVuSans-75" x="1902.40625"/>
     <use xlink:href="#DejaVuSans-61" x="1965.785156"/>
     <use xlink:href="#DejaVuSans-72" x="2027.064453"/>
     <use xlink:href="#DejaVuSans-65" x="2065.927734"/>
     <use xlink:href="#DejaVuSans-73" x="2127.451172"/>
     <use xlink:href="#DejaVuSans-20" x="2179.550781"/>
     <use xlink:href="#DejaVuSans-6d" x="2211.337891"/>
     <use xlink:href="#DejaVuSans-65" x="2308.75"/>
     <use xlink:href="#DejaVuSans-74" x="2370.273438"/>
     <use xlink:href="#DejaVuSans-68" x="2409.482422"/>
     <use xlink:href="#DejaVuSans-6f" x="2472.861328"/>
     <use xlink:href="#DejaVuSans-64" x="2534.042969"/>
    </g>
    <!-- $F(x)=a*sin(2*x)+b*sin(3*x)+c*cos(5*x)+d*exp(-x)$ -->
    <g transform="translate(188.1 54.48) scale(0.12 -0.12)">
     <defs>
      <path id="DejaVuSans-Oblique-46" d="M 1081 4666 
L 3756 4666 
L 3653 4134 
L 1606 4134 
L 1338 2759 
L 3188 2759 
L 3084 2228 
L 1234 2228 
L 800 0 
L 172 0 
L 1081 4666 
z
" transform="scale(0.015625)"/>
      <path id="DejaVuSans-28" d="M 1984 4856 
Q 1566 4138 1362 3434 
Q 1159 2731 1159 2009 
Q 1159 1288 1364 580 
Q 1569 -128 1984 -844 
L 1484 -844 
Q 1016 -109 783 600 
Q 550 1309 550 2009 
Q 550 2706 781 3412 
Q 1013 4119 1484 4856 
L 1984 4856 
z
" transform="scale(0.015625)"/>
      <path id="DejaVuSans-Oblique-78" d="M 3841 3500 
L 2234 1784 
L 3219 0 
L 2559 0 
L 1819 1388 
L 531 0 
L -166 0 
L 1556 1844 
L 641 3500 
L 1300 3500 
L 1972 2234 
L 3144 3500 
L 3841 3500 
z
" transform="scale(0.015625)"/>
      <path id="DejaVuSans-29" d="M 513 4856 
L 1013 4856 
Q 1481 4119 1714 3412 
Q 1947 2706 1947 2009 
Q 1947 1309 1714 600 
Q 1481 -109 1013 -844 
L 513 -844 
Q 928 -128 1133 580 
Q 1338 1288 1338 2009 
Q 1338 2731 1133 3434 
Q 928 4138 513 4856 
z
" transform="scale(0.015625)"/>
      <path id="DejaVuSans-3d" d="M 678 2906 
L 4684 2906 
L 4684 2381 
L 678 2381 
L 678 2906 
z
M 678 1631 
L 4684 1631 
L 4684 1100 
L 678 1100 
L 678 1631 
z
" transform="scale(0.015625)"/>
      <path id="DejaVuSans-Oblique-61" d="M 3438 1997 
L 3047 0 
L 2472 0 
L 2578 531 
Q 2325 219 2001 64 
Q 1678 -91 1281 -91 
Q 834 -91 548 182 
Q 263 456 263 884 
Q 263 1497 752 1853 
Q 1241 2209 2100 2209 
L 2900 2209 
L 2931 2363 
Q 2938 2388 2941 2417 
Q 2944 2447 2944 2509 
Q 2944 2788 2717 2942 
Q 2491 3097 2081 3097 
Q 1800 3097 1504 3025 
Q 1209 2953 897 2809 
L 997 3341 
Q 1322 3463 1633 3523 
Q 1944 3584 2234 3584 
Q 2853 3584 3176 3315 
Q 3500 3047 3500 2534 
Q 3500 2431 3484 2292 
Q 3469 2153 3438 1997 
z
M 2816 1759 
L 2241 1759 
Q 1534 1759 1195 1570 
Q 856 1381 856 984 
Q 856 709 1029 553 
Q 1203 397 1509 397 
Q 1978 397 2328 733 
Q 2678 1069 2791 1631 
L 2816 1759 
z
" transform="scale(0.015625)"/>
      <path id="DejaVuSans-2a" d="M 3009 3897 
L 1888 3291 
L 3009 2681 
L 2828 2375 
L 1778 3009 
L 1778 1831 
L 1422 1831 
L 1422 3009 
L 372 2375 
L 191 2681 
L 1313 3291 
L 191 3897 
L 372 4206 
L 1422 3572 
L 1422 4750 
L 1778 4750 
L 1778 3572 
L 2828 4206 
L 3009 3897 
z
" transform="scale(0.015625)"/>
      <path id="DejaVuSans-Oblique-73" d="M 3200 3397 
L 3091 2853 
Q 2863 2978 2609 3040 
Q 2356 3103 2088 3103 
Q 1634 3103 1373 2948 
Q 1113 2794 1113 2528 
Q 1113 2219 1719 2053 
Q 1766 2041 1788 2034 
L 1972 1978 
Q 2547 1819 2739 1644 
Q 2931 1469 2931 1166 
Q 2931 609 2489 259 
Q 2047 -91 1331 -91 
Q 1053 -91 747 -37 
Q 441 16 72 128 
L 184 722 
Q 500 559 806 475 
Q 1113 391 1394 391 
Q 1816 391 2080 572 
Q 2344 753 2344 1031 
Q 2344 1331 1650 1516 
L 1591 1531 
L 1394 1581 
Q 956 1697 753 1886 
Q 550 2075 550 2369 
Q 550 2928 970 3256 
Q 1391 3584 2113 3584 
Q 2397 3584 2667 3537 
Q 2938 3491 3200 3397 
z
" transform="scale(0.015625)"/>
      <path id="DejaVuSans-Oblique-69" d="M 1172 4863 
L 1747 4863 
L 1606 4134 
L 1031 4134 
L 1172 4863 
z
M 909 3500 
L 1484 3500 
L 800 0 
L 225 0 
L 909 3500 
z
" transform="scale(0.015625)"/>
      <path id="DejaVuSans-Oblique-6e" d="M 3566 2113 
L 3156 0 
L 2578 0 
L 2988 2091 
Q 3016 2238 3031 2350 
Q 3047 2463 3047 2528 
Q 3047 2791 2881 2937 
Q 2716 3084 2419 3084 
Q 1956 3084 1622 2776 
Q 1288 2469 1184 1941 
L 800 0 
L 225 0 
L 903 3500 
L 1478 3500 
L 1363 2950 
Q 1603 3253 1940 3418 
Q 2278 3584 2650 3584 
Q 3113 3584 3367 3334 
Q 3622 3084 3622 2631 
Q 3622 2519 3608 2391 
Q 3594 2263 3566 2113 
z
" transform="scale(0.015625)"/>
      <path id="DejaVuSans-2b" d="M 2944 4013 
L 2944 2272 
L 4684 2272 
L 4684 1741 
L 2944 1741 
L 2944 0 
L 2419 0 
L 2419 1741 
L 678 1741 
L 678 2272 
L 2419 2272 
L 2419 4013 
L 2944 4013 
z
" transform="scale(0.015625)"/>
      <path id="DejaVuSans-Oblique-62" d="M 3169 2138 
Q 3169 2591 2961 2847 
Q 2753 3103 2388 3103 
Q 2122 3103 1889 2973 
Q 1656 2844 1484 2597 
Q 1303 2338 1198 1995 
Q 1094 1653 1094 1313 
Q 1094 881 1298 636 
Q 1503 391 1863 391 
Q 2134 391 2365 517 
Q 2597 644 2772 891 
Q 2950 1147 3059 1487 
Q 3169 1828 3169 2138 
z
M 1381 2969 
Q 1594 3256 1914 3420 
Q 2234 3584 2584 3584 
Q 3122 3584 3439 3221 
Q 3756 2859 3756 2241 
Q 3756 1734 3570 1259 
Q 3384 784 3041 416 
Q 2816 172 2522 40 
Q 2228 -91 1906 -91 
Q 1566 -91 1316 65 
Q 1066 222 909 531 
L 806 0 
L 231 0 
L 1178 4863 
L 1753 4863 
L 1381 2969 
z
" transform="scale(0.015625)"/>
      <path id="DejaVuSans-33" d="M 2597 2516 
Q 3050 2419 3304 2112 
Q 3559 1806 3559 1356 
Q 3559 666 3084 287 
Q 2609 -91 1734 -91 
Q 1441 -91 1130 -33 
Q 819 25 488 141 
L 488 750 
Q 750 597 1062 519 
Q 1375 441 1716 441 
Q 2309 441 2620 675 
Q 2931 909 2931 1356 
Q 2931 1769 2642 2001 
Q 2353 2234 1838 2234 
L 1294 2234 
L 1294 2753 
L 1863 2753 
Q 2328 2753 2575 2939 
Q 2822 3125 2822 3475 
Q 2822 3834 2567 4026 
Q 2313 4219 1838 4219 
Q 1578 4219 1281 4162 
Q 984 4106 628 3988 
L 628 4550 
Q 988 4650 1302 4700 
Q 1616 4750 1894 4750 
Q 2613 4750 3031 4423 
Q 3450 4097 3450 3541 
Q 3450 3153 3228 2886 
Q 3006 2619 2597 2516 
z
" transform="scale(0.015625)"/>
      <path id="DejaVuSans-Oblique-63" d="M 3431 3366 
L 3316 2797 
Q 3109 2947 2876 3022 
Q 2644 3097 2394 3097 
Q 2119 3097 1870 3000 
Q 1622 2903 1453 2725 
Q 1184 2453 1037 2087 
Q 891 1722 891 1331 
Q 891 859 1127 628 
Q 1363 397 1844 397 
Q 2081 397 2348 469 
Q 2616 541 2906 684 
L 2797 116 
Q 2547 13 2283 -39 
Q 2019 -91 1741 -91 
Q 1044 -91 669 257 
Q 294 606 294 1253 
Q 294 1797 489 2255 
Q 684 2713 1069 3078 
Q 1331 3328 1684 3456 
Q 2038 3584 2456 3584 
Q 2700 3584 2940 3529 
Q 3181 3475 3431 3366 
z
" transform="scale(0.015625)"/>
      <path id="DejaVuSans-Oblique-6f" d="M 1625 -91 
Q 1009 -91 651 289 
Q 294 669 294 1325 
Q 294 1706 417 2101 
Q 541 2497 738 2766 
Q 1047 3184 1428 3384 
Q 1809 3584 2291 3584 
Q 2888 3584 3255 3212 
Q 3622 2841 3622 2241 
Q 3622 1825 3500 1412 
Q 3378 1000 3181 728 
Q 2875 309 2494 109 
Q 2113 -91 1625 -91 
z
M 891 1344 
Q 891 869 1089 633 
Q 1288 397 1691 397 
Q 2269 397 2648 901 
Q 3028 1406 3028 2181 
Q 3028 2634 2825 2865 
Q 2622 3097 2228 3097 
Q 1903 3097 1650 2945 
Q 1397 2794 1197 2484 
Q 1050 2253 970 1956 
Q 891 1659 891 1344 
z
" transform="scale(0.015625)"/>
      <path id="DejaVuSans-35" d="M 691 4666 
L 3169 4666 
L 3169 4134 
L 1269 4134 
L 1269 2991 
Q 1406 3038 1543 3061 
Q 1681 3084 1819 3084 
Q 2600 3084 3056 2656 
Q 3513 2228 3513 1497 
Q 3513 744 3044 326 
Q 2575 -91 1722 -91 
Q 1428 -91 1123 -41 
Q 819 9 494 109 
L 494 744 
Q 775 591 1075 516 
Q 1375 441 1709 441 
Q 2250 441 2565 725 
Q 2881 1009 2881 1497 
Q 2881 1984 2565 2268 
Q 2250 2553 1709 2553 
Q 1456 2553 1204 2497 
Q 953 2441 691 2322 
L 691 4666 
z
" transform="scale(0.015625)"/>
      <path id="DejaVuSans-Oblique-64" d="M 2675 525 
Q 2444 222 2128 65 
Q 1813 -91 1428 -91 
Q 903 -91 598 267 
Q 294 625 294 1247 
Q 294 1766 478 2236 
Q 663 2706 1013 3078 
Q 1244 3325 1534 3454 
Q 1825 3584 2144 3584 
Q 2481 3584 2739 3421 
Q 2997 3259 3138 2956 
L 3513 4863 
L 4091 4863 
L 3144 0 
L 2566 0 
L 2675 525 
z
M 891 1350 
Q 891 897 1095 644 
Q 1300 391 1663 391 
Q 1931 391 2161 520 
Q 2391 650 2566 903 
Q 2750 1166 2856 1509 
Q 2963 1853 2963 2188 
Q 2963 2622 2758 2865 
Q 2553 3109 2194 3109 
Q 1922 3109 1687 2981 
Q 1453 2853 1288 2613 
Q 1106 2353 998 2009 
Q 891 1666 891 1350 
z
" transform="scale(0.015625)"/>
      <path id="DejaVuSans-Oblique-65" d="M 3078 2063 
Q 3088 2113 3092 2166 
Q 3097 2219 3097 2272 
Q 3097 2653 2873 2875 
Q 2650 3097 2266 3097 
Q 1838 3097 1509 2826 
Q 1181 2556 1013 2059 
L 3078 2063 
z
M 3578 1613 
L 903 1613 
Q 884 1494 878 1425 
Q 872 1356 872 1306 
Q 872 872 1139 634 
Q 1406 397 1894 397 
Q 2269 397 2603 481 
Q 2938 566 3225 728 
L 3116 159 
Q 2806 34 2476 -28 
Q 2147 -91 1806 -91 
Q 1078 -91 686 257 
Q 294 606 294 1247 
Q 294 1794 489 2264 
Q 684 2734 1063 3103 
Q 1306 3334 1642 3459 
Q 1978 3584 2356 3584 
Q 2950 3584 3301 3228 
Q 3653 2872 3653 2272 
Q 3653 2128 3634 1964 
Q 3616 1800 3578 1613 
z
" transform="scale(0.015625)"/>
      <path id="DejaVuSans-Oblique-70" d="M 3175 2156 
Q 3175 2616 2975 2859 
Q 2775 3103 2400 3103 
Q 2144 3103 1911 2972 
Q 1678 2841 1497 2591 
Q 1319 2344 1212 1994 
Q 1106 1644 1106 1300 
Q 1106 863 1306 627 
Q 1506 391 1875 391 
Q 2147 391 2380 519 
Q 2613 647 2778 891 
Q 2956 1147 3065 1494 
Q 3175 1841 3175 2156 
z
M 1394 2969 
Q 1625 3272 1939 3428 
Q 2253 3584 2638 3584 
Q 3175 3584 3472 3232 
Q 3769 2881 3769 2247 
Q 3769 1728 3584 1258 
Q 3400 788 3053 416 
Q 2822 169 2531 39 
Q 2241 -91 1919 -91 
Q 1547 -91 1294 64 
Q 1041 219 916 525 
L 556 -1331 
L -19 -1331 
L 922 3500 
L 1497 3500 
L 1394 2969 
z
" transform="scale(0.015625)"/>
     </defs>
     <use xlink:href="#DejaVuSans-Oblique-46" transform="translate(0 0.015625)"/>
     <use xlink:href="#DejaVuSans-28" transform="translate(57.519531 0.015625)"/>
     <use xlink:href="#DejaVuSans-Oblique-78" transform="translate(96.533203 0.015625)"/>
     <use xlink:href="#DejaVuSans-29" transform="translate(155.712891 0.015625)"/>
     <use xlink:href="#DejaVuSans-3d" transform="translate(214.208984 0.015625)"/>
     <use xlink:href="#DejaVuSans-Oblique-61" transform="translate(317.480469 0.015625)"/>
     <use xlink:href="#DejaVuSans-2a" transform="translate(398.242188 0.015625)"/>
     <use xlink:href="#DejaVuSans-Oblique-73" transform="translate(467.724609 0.015625)"/>
     <use xlink:href="#DejaVuSans-Oblique-69" transform="translate(519.824219 0.015625)"/>
     <use xlink:href="#DejaVuSans-Oblique-6e" transform="translate(547.607422 0.015625)"/>
     <use xlink:href="#DejaVuSans-28" transform="translate(610.986328 0.015625)"/>
     <use xlink:href="#DejaVuSans-32" transform="translate(650 0.015625)"/>
     <use xlink:href="#DejaVuSans-2a" transform="translate(733.105469 0.015625)"/>
     <use xlink:href="#DejaVuSans-Oblique-78" transform="translate(802.587891 0.015625)"/>
     <use xlink:href="#DejaVuSans-29" transform="translate(861.767578 0.015625)"/>
     <use xlink:href="#DejaVuSans-2b" transform="translate(920.263672 0.015625)"/>
     <use xlink:href="#DejaVuSans-Oblique-62" transform="translate(1023.535156 0.015625)"/>
     <use xlink:href="#DejaVuSans-2a" transform="translate(1106.494141 0.015625)"/>
     <use xlink:href="#DejaVuSans-Oblique-73" transform="translate(1175.976562 0.015625)"/>
     <use xlink:href="#DejaVuSans-Oblique-69" transform="translate(1228.076172 0.015625)"/>
     <use xlink:href="#DejaVuSans-Oblique-6e" transform="translate(1255.859375 0.015625)"/>
     <use xlink:href="#DejaVuSans-28" transform="translate(1319.238281 0.015625)"/>
     <use xlink:href="#DejaVuSans-33" transform="translate(1358.251953 0.015625)"/>
     <use xlink:href="#DejaVuSans-2a" transform="translate(1441.357422 0.015625)"/>
     <use xlink:href="#DejaVuSans-Oblique-78" transform="translate(1510.839844 0.015625)"/>
     <use xlink:href="#DejaVuSans-29" transform="translate(1570.019531 0.015625)"/>
     <use xlink:href="#DejaVuSans-2b" transform="translate(1628.515625 0.015625)"/>
     <use xlink:href="#DejaVuSans-Oblique-63" transform="translate(1731.787109 0.015625)"/>
     <use xlink:href="#DejaVuSans-2a" transform="translate(1806.25 0.015625)"/>
     <use xlink:href="#DejaVuSans-Oblique-63" transform="translate(1875.732422 0.015625)"/>
     <use xlink:href="#DejaVuSans-Oblique-6f" transform="translate(1930.712891 0.015625)"/>
     <use xlink:href="#DejaVuSans-Oblique-73" transform="translate(1991.894531 0.015625)"/>
     <use xlink:href="#DejaVuSans-28" transform="translate(2043.994141 0.015625)"/>
     <use xlink:href="#DejaVuSans-35" transform="translate(2083.007812 0.015625)"/>
     <use xlink:href="#DejaVuSans-2a" transform="translate(2166.113281 0.015625)"/>
     <use xlink:href="#DejaVuSans-Oblique-78" transform="translate(2235.595703 0.015625)"/>
     <use xlink:href="#DejaVuSans-29" transform="translate(2294.775391 0.015625)"/>
     <use xlink:href="#DejaVuSans-2b" transform="translate(2353.271484 0.015625)"/>
     <use xlink:href="#DejaVuSans-Oblique-64" transform="translate(2456.542969 0.015625)"/>
     <use xlink:href="#DejaVuSans-2a" transform="translate(2539.501953 0.015625)"/>
     <use xlink:href="#DejaVuSans-Oblique-65" transform="translate(2608.984375 0.015625)"/>
     <use xlink:href="#DejaVuSans-Oblique-78" transform="translate(2670.507812 0.015625)"/>
     <use xlink:href="#DejaVuSans-Oblique-70" transform="translate(2729.6875 0.015625)"/>
     <use xlink:href="#DejaVuSans-28" transform="translate(2793.164062 0.015625)"/>
     <use xlink:href="#DejaVuSans-2212" transform="translate(2832.177734 0.015625)"/>
     <use xlink:href="#DejaVuSans-Oblique-78" transform="translate(2915.966797 0.015625)"/>
     <use xlink:href="#DejaVuSans-29" transform="translate(2975.146484 0.015625)"/>
    </g>
   </g>
   <g id="legend_1">
    <g id="patch_7">
     <path d="M 316.525 443.56 
L 421.475 443.56 
Q 423.475 443.56 423.475 441.56 
L 423.475 413.20375 
Q 423.475 411.20375 421.475 411.20375 
L 316.525 411.20375 
Q 314.525 411.20375 314.525 413.20375 
L 314.525 441.56 
Q 314.525 443.56 316.525 443.56 
z
" style="fill: #ffffff; opacity: 0.8; stroke: #cccccc; stroke-linejoin: miter"/>
    </g>
    <g id="line2d_23">
     <g>
      <use xlink:href="#m892324d576" x="328.525" y="419.302188" style="stroke: #000000"/>
     </g>
    </g>
    <g id="text_14">
     <!-- Exact points -->
     <g transform="translate(346.525 422.802188) scale(0.1 -0.1)">
      <defs>
       <path id="DejaVuSans-45" d="M 628 4666 
L 3578 4666 
L 3578 4134 
L 1259 4134 
L 1259 2753 
L 3481 2753 
L 3481 2222 
L 1259 2222 
L 1259 531 
L 3634 531 
L 3634 0 
L 628 0 
L 628 4666 
z
" transform="scale(0.015625)"/>
      </defs>
      <use xlink:href="#DejaVuSans-45"/>
      <use xlink:href="#DejaVuSans-78" x="63.183594"/>
      <use xlink:href="#DejaVuSans-61" x="122.363281"/>
      <use xlink:href="#DejaVuSans-63" x="183.642578"/>
      <use xlink:href="#DejaVuSans-74" x="238.623047"/>
      <use xlink:href="#DejaVuSans-20" x="277.832031"/>
      <use xlink:href="#DejaVuSans-70" x="309.619141"/>
      <use xlink:href="#DejaVuSans-6f" x="373.095703"/>
      <use xlink:href="#DejaVuSans-69" x="434.277344"/>
      <use xlink:href="#DejaVuSans-6e" x="462.060547"/>
      <use xlink:href="#DejaVuSans-74" x="525.439453"/>
      <use xlink:href="#DejaVuSans-73" x="564.648438"/>
     </g>
    </g>
    <g id="line2d_24">
     <path d="M 318.525 433.980312 
L 328.525 433.980312 
L 338.525 433.980312 
" style="fill: none; stroke: #ff0000; stroke-width: 1.5; stroke-linecap: square"/>
    </g>
    <g id="text_15">
     <!-- Approximation -->
     <g transform="translate(346.525 437.480312) scale(0.1 -0.1)">
      <defs>
       <path id="DejaVuSans-41" d="M 2188 4044 
L 1331 1722 
L 3047 1722 
L 2188 4044 
z
M 1831 4666 
L 2547 4666 
L 4325 0 
L 3669 0 
L 3244 1197 
L 1141 1197 
L 716 0 
L 50 0 
L 1831 4666 
z
" transform="scale(0.015625)"/>
      </defs>
      <use xlink:href="#DejaVuSans-41"/>
      <use xlink:href="#DejaVuSans-70" x="68.408203"/>
      <use xlink:href="#DejaVuSans-70" x="131.884766"/>
      <use xlink:href="#DejaVuSans-72" x="195.361328"/>
      <use xlink:href="#DejaVuSans-6f" x="234.224609"/>
      <use xlink:href="#DejaVuSans-78" x="292.28125"/>
      <use xlink:href="#DejaVuSans-69" x="351.460938"/>
      <use xlink:href="#DejaVuSans-6d" x="379.244141"/>
      <use xlink:href="#DejaVuSans-61" x="476.65625"/>
      <use xlink:href="#DejaVuSans-74" x="537.935547"/>
      <use xlink:href="#DejaVuSans-69" x="577.144531"/>
      <use xlink:href="#DejaVuSans-6f" x="604.927734"/>
      <use xlink:href="#DejaVuSans-6e" x="666.109375"/>
     </g>
    </g>
   </g>
  </g>
 </g>
 <defs>
  <clipPath id="p751e4b6bb5">
   <rect x="90" y="60.48" width="558" height="388.08"/>
  </clipPath>
 </defs>
</svg>
